<?xml version="1.0" encoding="utf-8"?>
<!-- Generator: Adobe Illustrator 27.5.0, SVG Export Plug-In . SVG Version: 6.00 Build 0)  -->
<svg version="1.1" xmlns="http://www.w3.org/2000/svg" xmlns:xlink="http://www.w3.org/1999/xlink" x="0px" y="0px"
	 viewBox="0 0 3710 3710" style="enable-background:new 0 0 3710 3710;" xml:space="preserve">
<g id="Background">
	<g>
		<g>
			<rect style="fill:#FFFFFF;" width="3710" height="3710"/>
		</g>
	</g>
</g>
<g id="Illustration">
	<g>
		<path style="fill:#F4F7FA;" d="M3140.54,1644.251c-73.596-488.73-375.341-1089.17-971.469-1152.007
			c0,0-452.609-55.854-898.782,28.799C1005.483,571.283,773.289,720.84,626.366,935.79
			c-146.925,214.95-196.002,477.053-136.44,726.936c38.685,162.301,64.826,330.276,57.652,497.05
			c-12.486,290.254-5.302,561.186,272.344,734.285c247.906,154.559,559.899,290.874,857.544,314.75
			c202.278,16.226,429.12-10.031,624.078-63.46C3295.091,2873.058,3214.135,2132.981,3140.54,1644.251z"/>
		<g>
			<g>
				<defs>
					<path id="SVGID_1_" d="M1705.627,2319.15l-259.321-141.945c0,0,24-159.746,138.937-218.84
						c234.506-120.571,112.54-317.544,73.797-407.686c-58.427-135.942-50.628-281.22,127.081-249.052
						c177.71,32.168,154.175-283.415,28.174-489.361c-123.301-201.533,163.798-537.005,470.718-125.316
						c183.292,245.86,3.037,484.211-59.374,626.217c-62.412,142.006,133.054,263.575-26.586,391.401
						c-136.361,109.188-304.796,151.031-272.568,295.054C1958.714,2143.644,1907.873,2257.516,1705.627,2319.15z"/>
				</defs>
				<clipPath id="SVGID_00000032636380441651994630000013343711286020305805_">
					<use xlink:href="#SVGID_1_"  style="overflow:visible;"/>
				</clipPath>
				<path style="clip-path:url(#SVGID_00000032636380441651994630000013343711286020305805_);fill:#D8DEE8;" d="M1705.627,2319.15
					l-259.321-141.945c0,0,24-159.746,138.937-218.84c234.506-120.571,112.54-317.544,73.797-407.686
					c-58.427-135.942-46.895-263.953,112.721-263.717c180.597,0.267,168.535-268.75,42.534-474.697
					c-123.301-201.533,163.798-537.005,470.718-125.316c183.292,245.86,3.037,484.211-59.374,626.217
					c-62.412,142.006,133.054,263.575-26.586,391.401c-136.361,109.188-304.796,151.031-272.568,295.054
					C1958.714,2143.644,1907.873,2257.516,1705.627,2319.15z"/>
				<g style="opacity:0.5;clip-path:url(#SVGID_00000032636380441651994630000013343711286020305805_);">
					<path style="fill:#BEB8F2;" d="M1580.218,2281.784l-4.845-3.935c2.438-3,245.338-304.291,396.074-675.579
						c138.871-342.054,225.653-815.242-149.528-1127.018l3.988-4.8c167.014,138.787,257.949,320.534,270.282,540.193
						c9.852,175.469-30.187,375.35-119.005,594.091C1826.08,1976.86,1582.659,2278.776,1580.218,2281.784z"/>
					<path style="fill:#BEB8F2;" d="M2097.378,1102.656l-5.063-3.653c121.484-168.491,193.188-463.041,193.899-465.996l6.069,1.455
						C2291.569,637.432,2219.573,933.177,2097.378,1102.656z"/>
					<path style="fill:#BEB8F2;" d="M2085.149,956.524c-121.44-215.694-323.777-254.849-325.805-255.217l1.118-6.138
						c2.061,0.372,207.196,39.956,330.126,258.293L2085.149,956.524z"/>
					<path style="fill:#BEB8F2;" d="M1859.676,1839.636c80.071-291.612-236.325-547.067-239.616-549.298l3.154-5.379
						c3.437,1.883,323.262,262.127,242.479,556.329L1859.676,1839.636z"/>
					<path style="fill:#BEB8F2;" d="M1921.232,1731.192l-4.751-4.052c125.181-146.856,367.365-162.488,369.798-162.628l0.362,6.23
						C2284.232,1570.881,2044.662,1586.382,1921.232,1731.192z"/>
					<path style="fill:#BEB8F2;" d="M1612.552,2229.597c47.095-104.782-52.793-262.838-53.805-264.423l5.254-3.364
						c4.218,6.581,102.73,162.474,54.243,270.347L1612.552,2229.597z"/>
					<path style="fill:#BEB8F2;" d="M1671.032,2159.022l-4.892-3.876c56.401-71.2,223.011-93.71,277.76-101.106
						c7.737-1.046,14.415-1.948,15.574-2.343l2.098,5.877c-1.626,0.581-6.064,1.193-16.837,2.65
						C1890.604,2067.538,1725.871,2089.794,1671.032,2159.022z"/>
				</g>
			</g>
			<g>
				
					<linearGradient id="SVGID_00000115488405591157294980000016982785492305699990_" gradientUnits="userSpaceOnUse" x1="1577.3475" y1="1957.7162" x2="3048.698" y2="1957.7162">
					<stop  offset="0" style="stop-color:#AA80F9"/>
					<stop  offset="0.9964" style="stop-color:#6165D7"/>
				</linearGradient>
				<path style="fill:url(#SVGID_00000115488405591157294980000016982785492305699990_);" d="M1757.957,2193.255
					c-76.679-22.612-139.918,22.234-180.597,61.855c1.46,7.541,0.378,12.252,0.163,20.16
					c-1.929,71.377,12.457,102.238,21.663,172.892c1.982,15.208,21.373,58.076,30.422,75.083l17.374,31.438
					c0,0,181.531,30.035,209.906-70.761c28.375-100.796,204.402-94.142,298.089-102.11c57.531-4.893,82.275-25.56,103.125-30.752
					c220.718-54.955,299.432-0.058,360.229-62.019c67.114-68.4-9.601-154.878,59.478-233.144
					c78.004-88.375,228.194-37.44,283.322-137.568c9.452-17.166,18.696-35.062,21.302-61.071c6.431-64.201-38.295-107,3.632-159.804
					c84.274-106.137,92.133-256.343-29.934-324.217c-120.474-66.987-306.123,71.154-420.793,355.292
					c-104.588,192.769-145.475,202.492-248.984,206.416c-72.501,2.751-270.893-37.824-323.927,77.219
					C1909.391,2127.206,1845.615,2219.106,1757.957,2193.255z"/>
				<g>
					<defs>
						<path id="SVGID_00000009575555551622811540000008839697555333312952_" d="M1529.125,2309.466l110.57,240.667
							c0,0,188.818,34.584,217.194-66.212c28.375-100.797,204.402-94.143,298.09-102.111
							c254.199-21.619,173.864-306.482,497.072-362.054c85.963-14.78,256.059-12.243,309.082-101.428
							c60.408-101.606-28.985-152.968,24.934-220.875c84.274-106.137,92.131-256.344-29.935-324.216
							c-120.473-66.987-306.123,71.154-420.794,355.29c-104.588,192.771-145.475,202.492-248.983,206.417
							c-72.502,2.749-270.894-37.824-323.929,77.219c-53.034,115.043-116.81,206.942-204.468,181.093
							C1624.574,2153.922,1529.125,2309.466,1529.125,2309.466z"/>
					</defs>
					<clipPath id="SVGID_00000121279886325140481380000015833089542138590111_">
						<use xlink:href="#SVGID_00000009575555551622811540000008839697555333312952_"  style="overflow:visible;"/>
					</clipPath>
					<g style="opacity:0.5;clip-path:url(#SVGID_00000121279886325140481380000015833089542138590111_);">
						<path style="fill:#FCFDFE;" d="M1589.301,2412.244l1.612,4.997c27.67-8.646,55.456-17.733,82.588-27.008
							c200.878-68.691,387.454-155.103,554.547-256.842c141.582-86.208,271.189-184.597,385.221-292.437
							c91.704-86.724,173.879-180.004,244.241-277.249c49.462-68.362,92.623-137.962,128.276-206.868
							c6.216-12.007,11.918-24.689,17.434-36.955c7.348-16.342,14.946-33.24,23.818-48.668l-4.236-2.868
							c-8.994,15.64-16.644,32.652-24.042,49.104c-5.487,12.205-11.162,24.824-17.314,36.71
							c-35.542,68.69-78.572,138.082-127.896,206.25c-70.187,97.004-152.168,190.06-243.661,276.585
							c-113.797,107.618-243.147,205.811-384.456,291.852c-166.81,101.568-353.089,187.841-553.658,256.424
							C1644.682,2394.536,1616.935,2403.611,1589.301,2412.244z"/>
						<path style="fill:#FCFDFE;" d="M2465.748,1961.822l2.969,4.305c168.12-125.612,529.671-102.333,533.303-102.082l0.068-5.194
							C2998.437,1858.599,2635.214,1835.205,2465.748,1961.822z"/>
						<path style="fill:#FCFDFE;" d="M1964.186,2267.913l2.494,4.614c124.391-70.679,174.3-356.332,174.791-359.209l-4.842-1.177
							C2136.143,1914.996,2086.634,2198.34,1964.186,2267.913z"/>
						<path style="fill:#FCFDFE;" d="M1890.012,2301.37l1.708,4.966c88.379-29.767,226.385-19.488,388.591,28.948
							c8.157,2.436,8.157,2.436,9.037,2.154l-1.651-4.986l0.825,2.493l0.102-2.581c-0.557-0.097-3.637-1.016-7.207-2.084
							C2118.286,2281.57,1979.283,2271.301,1890.012,2301.37z"/>
						<path style="fill:#FCFDFE;" d="M1639.548,2395.698l2.954,4.314c82.96-61.428,88.136-223.815,88.179-225.447l-4.914-0.413
							C1725.725,2175.76,1720.608,2335.676,1639.548,2395.698z"/>
						<path style="fill:#FCFDFE;" d="M1590.477,2420.076c83.694,5.721,169.812,37.017,263.273,95.677l2.344-4.443
							c-94.18-59.108-181.044-90.649-265.553-96.427L1590.477,2420.076z"/>
						<path style="fill:#FCFDFE;" d="M2811.187,1616.913l3.184,4.131c89.521-75.561,201.208-132.043,237.91-150.602
							c8.884-4.493,12.006-6.085,12.992-6.845l-3.025-4.261c-0.761,0.569-5.84,3.137-12.27,6.388
							C3013.16,1484.344,2901.118,1541.006,2811.187,1616.913z"/>
						<path style="fill:#FCFDFE;" d="M2683.932,1763.53l4.146,3.018c59.212-94.998,10.839-324.904,8.751-334.645l-4.792,0.902
							C2692.544,1435.168,2742.039,1670.305,2683.932,1763.53z"/>
					</g>
				</g>
			</g>
			<g>
				
					<linearGradient id="SVGID_00000165945023959159346200000010380133407257183926_" gradientUnits="userSpaceOnUse" x1="9751.9385" y1="-1408.813" x2="10669" y2="100.9063" gradientTransform="matrix(0.3467 0.938 -0.938 0.3467 -1969.8221 -7487.7788)">
					<stop  offset="0" style="stop-color:#FFC444"/>
					<stop  offset="0.9964" style="stop-color:#F36F56"/>
				</linearGradient>
				<path style="fill:url(#SVGID_00000165945023959159346200000010380133407257183926_);" d="M1526.062,2284.439
					c8.369,16.114-117.966,140.269,11.811,148.308c32.422,2.009,134.075-19.555,184.643,104.034
					c9.816,23.991,19.635,47.982,29.451,71.972c62.311,0.803,121.187-9.984,114.935-91.447
					c-9.71-126.508,181.427-197.028,261.03-189.466c98.523,9.358,328.144,26.292,316.099-169.386
					c-10.026-162.901-48.611-267.463,127.784-341.29c176.397-73.828,250.66-216.969,176.54-385.185
					c-78.001-177.021,96.206-406.129-35.026-527.424c-228.669-211.348-539.485,162.699-538.689,517.477
					c0.794,354.775-173.24,212.447-323.83,255.947c-13.75,4.831-34.696,13.38-57.503,28.163
					c-140.408,91.017-107.906,260.617-191.189,421.156C1488.538,2346.24,1511.962,2257.293,1526.062,2284.439z"/>
				<g>
					<defs>
						<path id="SVGID_00000066497158085910547860000013792591857044546725_" d="M1555.442,2217.229l148.328,393.339
							c61.524,3.778,170.116-2.265,163.132-93.26c-9.709-126.51,181.428-197.029,261.03-189.467
							c98.523,9.359,328.145,26.292,316.101-169.387c-10.026-162.901-48.613-267.461,127.784-341.289
							c176.396-73.828,250.659-216.97,176.538-385.186c-78-177.021,96.208-406.128-35.026-527.423
							c-228.668-211.349-539.482,162.698-538.688,517.475c0.794,354.776-173.239,212.448-323.83,255.949
							c-205.59,59.387-56.98,330.673-108.178,434.213C1702.495,2193.363,1612.88,2212.514,1555.442,2217.229z"/>
					</defs>
					<clipPath id="SVGID_00000121256530281513777820000014432447470027442866_">
						<use xlink:href="#SVGID_00000066497158085910547860000013792591857044546725_"  style="overflow:visible;"/>
					</clipPath>
					<g style="opacity:0.5;clip-path:url(#SVGID_00000121256530281513777820000014432447470027442866_);">
						<path style="fill:#FCFDFE;" d="M1684.046,2381.172l4.716,7.799c535.307-330.482,900.612-936.003,953.356-1580.264
							l-8.679-1.176C2580.917,1449.076,2217.13,2052.062,1684.046,2381.172z"/>
						<path style="fill:#FCFDFE;" d="M1959.791,2174.369l3.177,8.538c232.996-83.083,492.796,62.121,495.393,63.599l3.915-7.853
							C2459.647,2237.154,2196.46,2089.978,1959.791,2174.369z"/>
						<path style="fill:#FCFDFE;" d="M1780.79,2317.518l6.647,6.14c163.929-192.196,25.125-654.48,23.703-659.128l-8.294,2.348
							C1804.253,1671.474,1941.603,2128.977,1780.79,2317.518z"/>
						<path style="fill:#FCFDFE;" d="M2351.612,1691.228l6.142,6.685c142.683-139.801,451.197-116.017,454.297-115.761l0.292-8.982
							C2809.206,1572.908,2496.93,1548.843,2351.612,1691.228z"/>
						<path style="fill:#FCFDFE;" d="M2523.833,1321.376l8.575,2.009c40.505-231.354-131.695-505.911-133.446-508.66l-7.213,4.698
							C2393.48,822.135,2563.71,1093.626,2523.833,1321.376z"/>
					</g>
				</g>
			</g>
		</g>
		<g>
			
				<linearGradient id="SVGID_00000167386042112570004730000017574891306155087796_" gradientUnits="userSpaceOnUse" x1="1482.7158" y1="2318.0464" x2="612.1326" y2="4449.4736">
				<stop  offset="0" style="stop-color:#40447E"/>
				<stop  offset="0.9964" style="stop-color:#3C3B6B"/>
			</linearGradient>
			<path style="fill:url(#SVGID_00000167386042112570004730000017574891306155087796_);" d="M1687.922,3028.465l-767.441-392.422
				c-13.216-9.563-29.488-15.282-47.165-15.282c-44.021,0-79.709,35.06-79.709,78.31c0,27.775,14.759,52.113,36.953,66.015
				c2.411,1.963,5.047,3.717,7.925,5.188l778.028,397.836c22.038,11.268,49.032,2.538,60.3-19.497l30.604-59.848
				C1718.683,3066.73,1709.956,3039.733,1687.922,3028.465z"/>
			<path style="fill:#D8DEE8;" d="M941.913,2133.171l-24.128,189.904c-2.484,19.552,2.906,39.288,14.985,54.863l631.002,813.675
				l63.998-330.519L941.913,2133.171z"/>
			
				<linearGradient id="SVGID_00000028294161476993528010000004141262259505531818_" gradientUnits="userSpaceOnUse" x1="964.4544" y1="2526.9231" x2="1832.3949" y2="2526.9231">
				<stop  offset="0" style="stop-color:#D8DEE8"/>
				<stop  offset="1" style="stop-color:#FFFFFF"/>
			</linearGradient>
			<polygon style="fill:url(#SVGID_00000028294161476993528010000004141262259505531818_);" points="1832.395,2855.977 
				1630.105,2867.628 1193.297,2424.695 1182.131,2413.38 964.454,2192.642 975.621,2192.38 1255.173,2186.219 1581.857,2565.257 
							"/>
			<g>
				<ellipse style="fill:#FFFFFF;" cx="1481.041" cy="2918.664" rx="67.218" ry="118.876"/>
				<ellipse style="fill:#97A6B7;" cx="1477.307" cy="2918.664" rx="52.281" ry="100.205"/>
			</g>
			<path style="fill:#FFFFFF;" d="M1840.167,2886.494l-55.708,268.481l-2.201,10.668c-3.286,15.848-16.797,27.566-32.984,28.548
				l-156.389,9.516c-11.041,0.677-21.776-3.793-29.124-12.09c-4.977-5.689-7.992-12.666-8.771-19.98
				c-0.339-3.454-0.238-6.943,0.44-10.431l1.151-6.062l52.322-276.27c1.964-10.43,8.364-19.134,17.068-24.213
				c4.977-2.98,10.702-4.741,16.797-4.978l160.824-6.367c11.041-0.44,21.673,4.233,28.82,12.666
				C1839.557,2864.414,1842.402,2875.657,1840.167,2886.494z"/>
			<polygon style="opacity:0.4;fill:#97A6B7;" points="1581.857,2565.257 1193.297,2424.695 1192.4,2424.359 1182.131,2413.38 
				975.621,2192.38 1255.173,2186.219 			"/>
			<polygon style="fill:#97A6B7;" points="3024.18,2040.466 2615.268,2363.489 2615.268,2021.794 			"/>
			<path style="fill:#D8DEE8;" d="M2227.902,2041.698l-222.793,692.949L707.046,2112.091
				c-36.859-17.664-55.716-59.264-44.739-98.624l12.921-46.232l20.616-73.828l48.284-172.864L2227.902,2041.698z"/>
			<g>
				<g>
					<path style="fill:#FFFFFF;" d="M2592.311,2618.558c-17.381,66.108-76.451,119.438-131.891,119.438h-430.25
						c-55.44,0-85.532-53.331-67.26-119.438l142.112-513.257c17.822-64.479,76.456-115.72,131.007-115.72h423.354
						c54.551,0,85.065,51.242,68.112,115.72L2592.311,2618.558z"/>
					
						<linearGradient id="SVGID_00000118376504373984227370000013630857981802809265_" gradientUnits="userSpaceOnUse" x1="1991.3436" y1="2360.4023" x2="2699.4163" y2="2360.4023">
						<stop  offset="0" style="stop-color:#40447E"/>
						<stop  offset="0.9964" style="stop-color:#3C3B6B"/>
					</linearGradient>
					<path style="fill:url(#SVGID_00000118376504373984227370000013630857981802809265_);" d="M2696.197,2104.015
						c11.631-44.113-9.245-80.569-46.58-80.569h-423.53c-37.335,0-77.529,36.456-89.693,80.569l-141.446,512.755
						c-12.451,45.153,8.416,80.589,46.277,80.589h429.502c37.861,0,78.136-35.435,90.044-80.589L2696.197,2104.015z"/>
					<path style="fill:#FFFFFF;" d="M2540.203,2358.59c-33.307,125.44-146.287,227.628-252.184,227.628
						c-105.897,0-163.771-102.188-129.433-227.628c34.153-124.767,146.719-225.419,251.588-225.419
						C2515.043,2133.17,2573.331,2233.823,2540.203,2358.59z"/>
					
						<linearGradient id="SVGID_00000096765658337516442990000011927031064795387033_" gradientUnits="userSpaceOnUse" x1="2196.1648" y1="2359.2339" x2="2502.2708" y2="2359.2339">
						<stop  offset="0" style="stop-color:#40447E"/>
						<stop  offset="0.9964" style="stop-color:#3C3B6B"/>
					</linearGradient>
					<path style="fill:url(#SVGID_00000096765658337516442990000011927031064795387033_);" d="M2495.122,2358.59
						c-25.514,95.742-111.764,173.647-192.547,173.647s-125.022-77.905-98.907-173.647c26.008-95.349,112.016-172.358,192.2-172.358
						S2520.531,2263.24,2495.122,2358.59z"/>
				</g>
				
					<linearGradient id="SVGID_00000047754073227269581540000012667974502408697752_" gradientUnits="userSpaceOnUse" x1="2391.7942" y1="2302.0862" x2="2483.0142" y2="2302.0862">
					<stop  offset="0" style="stop-color:#D8DEE8"/>
					<stop  offset="1" style="stop-color:#FFFFFF"/>
				</linearGradient>
				<path style="fill:url(#SVGID_00000047754073227269581540000012667974502408697752_);" d="M2480.875,2302.029
					c-7.606,28.474-33.256,51.583-57.283,51.583c-24.027,0-37.288-23.109-29.628-51.583c7.65-28.439,33.279-51.468,57.252-51.468
					C2475.19,2250.561,2488.472,2273.59,2480.875,2302.029z"/>
			</g>
			<path style="opacity:0.3;fill:#97A6B7;" d="M2071.172,2292.237l-275.894,123.421c-32.041,14.34-68.677,14.452-100.791,0.299
				L675.227,1967.235l20.616-73.828c19.678-11.054,38.948-17.253,38.948-17.253L2071.172,2292.237z"/>
			
				<linearGradient id="SVGID_00000062896417992968001250000003917509986968176055_" gradientUnits="userSpaceOnUse" x1="2414.2952" y1="1078.4365" x2="868.551" y2="3173.0347">
				<stop  offset="0" style="stop-color:#D8DEE8"/>
				<stop  offset="1" style="stop-color:#FFFFFF"/>
			</linearGradient>
			<path style="fill:url(#SVGID_00000062896417992968001250000003917509986968176055_);" d="M3058.898,2018.994v7.319
				c0,11.689-8.77,21.323-20.422,22.108l-452.658,29.427c-27.745,1.83-54.866,8.552-80.222,19.904l-193.369,86.563l-396.275,177.382
				c-78.159,34.991-167.403,35.738-246.124,2.017l-991.207-424.261c-49.816-21.323-73.566-78.459-53.548-128.836l83.539-210.282
				l25.955-65.277c24.047-60.459,80.996-101.462,145.976-105.085l305.244-17.066c71.7-3.996,143.478,5.788,211.517,28.754
				l1646.81,556.383C3053.115,2001.068,3058.898,2009.508,3058.898,2018.994z"/>
			<path style="fill:#FFFFFF;" d="M3043.72,1998.044l-18.687-6.269v0.929c0,11.689-8.642,21.323-20.294,22.108l-452.594,29.427
				c-27.745,1.83-54.833,8.552-80.19,19.904l-193.354,86.563l-396.266,177.382c-78.159,34.991-167.399,35.738-246.12,2.017
				l-991.205-424.261c-4.376-1.873-8.534-4.036-12.495-6.433c10.452,17.255,26.19,31.516,46.109,40.042l991.212,424.261
				c78.721,33.721,167.974,32.974,246.133-2.017l396.291-177.382l193.403-86.563c25.356-11.352,52.544-18.074,80.289-19.904
				l452.525-29.427c11.652-0.785,20.422-10.419,20.422-22.108v-7.319C3058.898,2009.508,3052.72,2001.068,3043.72,1998.044z"/>
			<path style="opacity:0.2;fill:#D8DEE8;" d="M2312.26,2184.314l-396.291,177.382c-78.159,34.991-167.412,35.738-246.132,2.017
				l-991.211-424.261c-49.816-21.323-73.568-78.459-53.55-128.836l83.538-210.282c10.641,73.119,45.633,163.341,155.013,145.117
				c179.249-29.875,341.767,13.07,389.344,173.648s270.705,218.46,374.782,171.781c104.114-46.68,535.433-155.051,659.899,42.273
				C2298.184,2149.846,2306.287,2166.987,2312.26,2184.314z"/>
			
				<linearGradient id="SVGID_00000173872877120294991760000017218882535888498089_" gradientUnits="userSpaceOnUse" x1="1554.9902" y1="3029.2178" x2="1784.4584" y2="3029.2178">
				<stop  offset="0" style="stop-color:#D8DEE8"/>
				<stop  offset="1" style="stop-color:#FFFFFF"/>
			</linearGradient>
			<path style="opacity:0.4;fill:url(#SVGID_00000173872877120294991760000017218882535888498089_);" d="M1784.458,3154.976
				l-2.201,10.668c-3.286,15.848-16.797,27.566-32.984,28.548l-156.389,9.516c-11.041,0.677-21.776-3.793-29.124-12.09
				c-4.977-5.689-7.992-12.666-8.771-19.98c0.508-5.283,1.048-10.803,1.591-16.493l52.322-276.27
				c1.964-10.43,8.364-19.134,17.068-24.213c10.396,4.335,20.352,15.239,26.685,38.268c18.626,67.73,2.371,165.092,45.21,204.036
				C1723.129,3119.926,1760.313,3136.722,1784.458,3154.976z"/>
		</g>
		<g>
			<g>
				<g>
					<g>
						
							<linearGradient id="SVGID_00000066514942691615673970000003109319209998666629_" gradientUnits="userSpaceOnUse" x1="-1083.3416" y1="1374.2719" x2="-882.4728" y2="1374.2719" gradientTransform="matrix(0.8538 -0.5205 0.5205 0.8538 2615.0129 293.696)">
							<stop  offset="0" style="stop-color:#40447E"/>
							<stop  offset="0.9964" style="stop-color:#3C3B6B"/>
						</linearGradient>
						<path style="fill:url(#SVGID_00000066514942691615673970000003109319209998666629_);" d="M2410.375,2038.931
							c-6.499-13.743-9.687-65.048,25.521-64.225c35.403,0.828,57.208-5.421,113.176-27.055
							c55.969-21.634,57.696,12.721-23.754,50.851C2443.866,2036.632,2419.616,2058.474,2410.375,2038.931z"/>
						
							<linearGradient id="SVGID_00000166659135111896761830000006760193389480307626_" gradientUnits="userSpaceOnUse" x1="1008.4434" y1="1642.2203" x2="2624.7759" y2="3319.5457" gradientTransform="matrix(0.9191 0.3941 -0.3941 0.9191 1938.9031 -448.0182)">
							<stop  offset="0" style="stop-color:#FFC444"/>
							<stop  offset="0.9964" style="stop-color:#F36F56"/>
						</linearGradient>
						<path style="fill:url(#SVGID_00000166659135111896761830000006760193389480307626_);" d="M2389.294,1958.806l19.203,31.595
							c4.011,6.599,11.882,9.778,19.352,7.816c3.482-0.915,6.321-3.428,7.653-6.772c1.331-3.344,0.995-7.121-0.905-10.178
							l-28.284-45.502L2389.294,1958.806z"/>
					</g>
					<g>
						
							<linearGradient id="SVGID_00000155113435007733439910000012089990853094325383_" gradientUnits="userSpaceOnUse" x1="87.1006" y1="1658.2025" x2="1080.1678" y2="2185.6677" gradientTransform="matrix(0.97 0.2432 -0.2432 0.97 1968.5042 -266.7252)">
							<stop  offset="0" style="stop-color:#311944"/>
							<stop  offset="1" style="stop-color:#6B3976"/>
						</linearGradient>
						<path style="fill:url(#SVGID_00000155113435007733439910000012089990853094325383_);" d="M1664.852,1483.605
							c-59.932,26.229-4.72,192.022,165.545,197.912c206.33,7.136,439.865,107.317,560.444,291.128
							c12.085-5.399,39.606-11.159,32.349-25.341c-99.76-194.97-208.724-323.278-314.104-381.835
							C1949.77,1476.939,1835.501,1408.924,1664.852,1483.605z"/>
						<g style="opacity:0.24;">
							<path style="fill:#552D63;" d="M2196.895,1714.317c22.43,24.71,38.591-5.932,59.552-22.817
								c-49.045-56.685-98.584-98.928-147.361-126.032c-159.315-88.529-273.584-156.544-444.232-81.863
								c-59.932,26.228-4.721,192.022,165.544,197.912c61.58,2.13,125.556,12.732,188.257,31.188
								C2078.745,1697.073,2142.653,1637.767,2196.895,1714.317z"/>
						</g>
					</g>
				</g>
				<g>
					
						<linearGradient id="SVGID_00000041281256686534097170000015906589542625216928_" gradientUnits="userSpaceOnUse" x1="-289.0367" y1="1893.837" x2="611.4561" y2="1726.5325" gradientTransform="matrix(0.97 0.2432 -0.2432 0.97 1968.5042 -266.7252)">
						<stop  offset="0" style="stop-color:#311944"/>
						<stop  offset="1" style="stop-color:#893976"/>
					</linearGradient>
					<path style="fill:url(#SVGID_00000041281256686534097170000015906589542625216928_);" d="M1592.679,1615.214l-12.602-4.553
						c0,0-41.842-73.36-48.193-91.863c-7.75-22.577,159.541-20.868,228.397-66.169c72.353-47.601-13.186,79.554-13.186,79.554
						L1592.679,1615.214z"/>
				</g>
				<g>
					
						<linearGradient id="SVGID_00000103257368506233008400000007891443560627710381_" gradientUnits="userSpaceOnUse" x1="451.9688" y1="2054.8474" x2="220.1473" y2="1505.9127" gradientTransform="matrix(0.97 0.2432 -0.2432 0.97 1968.5042 -266.7252)">
						<stop  offset="0" style="stop-color:#AA80F9"/>
						<stop  offset="0.9964" style="stop-color:#6165D7"/>
					</linearGradient>
					<path style="fill:url(#SVGID_00000103257368506233008400000007891443560627710381_);" d="M1719.025,1020.367
						c0,0,52.892,25.102,79.453,151.826c19.97,95.28,97.721,193.611,97.721,193.611l-9.995,66.827l-86.716-11.601l-23.251-28.659
						l-26.113-195.946L1719.025,1020.367z"/>
					<g>
						
							<linearGradient id="SVGID_00000149373484428624530890000014305854384100057235_" gradientUnits="userSpaceOnUse" x1="88.1648" y1="1800.8352" x2="-10.2474" y2="1415.9333" gradientTransform="matrix(0.97 0.2432 -0.2432 0.97 1968.5042 -266.7252)">
							<stop  offset="0" style="stop-color:#AA80F9"/>
							<stop  offset="0.9964" style="stop-color:#6165D7"/>
						</linearGradient>
						<path style="fill:url(#SVGID_00000149373484428624530890000014305854384100057235_);" d="M1613.986,979.537
							c0,0-141.626-26.383-194.253,129.523c-48.566,143.878-14.116,216.499,75.773,377.786
							c9.039,16.218,29.931,22.843,30.926,25.079c5.349,12.025,10.687,24.48,15.971,37.413
							c149.546-73.708,290.658-70.002,290.658-70.002s-41.186-285.289-67.745-383.946
							C1737.932,993.672,1651.644,982.216,1613.986,979.537z"/>
						<g style="opacity:0.29;">
							
								<linearGradient id="SVGID_00000070803134334375558700000008648572733661419937_" gradientUnits="userSpaceOnUse" x1="88.1649" y1="1800.8346" x2="-10.2491" y2="1415.9257" gradientTransform="matrix(0.97 0.2432 -0.2432 0.97 1968.5042 -266.7252)">
								<stop  offset="0" style="stop-color:#FF9085"/>
								<stop  offset="1" style="stop-color:#FB6FBB"/>
							</linearGradient>
							<path style="fill:url(#SVGID_00000070803134334375558700000008648572733661419937_);" d="M1724.503,1416.599
								c-67.289,12.552-147.729-16.77-165.644-64.369c-13.492-35.846-13.763-47.697-26.978-101.464
								c-10.63-43.253-19.555-52.476-58.208-98.304c-14.588-17.295-30.003-40.523-42.382-71.94
								c-4.19,8.773-8.078,18.233-11.556,28.538c-48.566,143.878-14.117,216.499,75.772,377.786
								c9.039,16.218,29.931,22.843,30.926,25.079c5.349,12.025,10.687,24.479,15.971,37.413
								c149.546-73.708,290.658-70.002,290.658-70.002s-7.514-45.2-16.46-108.242
								C1787.415,1396.995,1767.671,1408.548,1724.503,1416.599z"/>
						</g>
					</g>
					
						<linearGradient id="SVGID_00000017485033463697213930000016385301204767281064_" gradientUnits="userSpaceOnUse" x1="1708.2375" y1="1351.4962" x2="1637.2847" y2="1658.9587">
						<stop  offset="0" style="stop-color:#FFC444"/>
						<stop  offset="0.9964" style="stop-color:#F36F56"/>
					</linearGradient>
					<path style="fill:url(#SVGID_00000017485033463697213930000016385301204767281064_);" d="M1629.066,1391.423
						c0,0,25.453,9.378,46.14,7.802c20.688-1.576,19.716-3.751,41.681,0.26c21.352,3.898,65.641,4.527,49.349-23.546
						c-18.135-31.245-63.863-38.587-81.286-27.18c-16.795,10.995-40.746,13.767-40.746,13.767L1629.066,1391.423z"/>
					
						<linearGradient id="SVGID_00000181774889225528770420000011687254866767396272_" gradientUnits="userSpaceOnUse" x1="-3.3139" y1="1849.6494" x2="-106.8631" y2="1444.6561" gradientTransform="matrix(0.97 0.2432 -0.2432 0.97 1968.5042 -266.7252)">
						<stop  offset="0" style="stop-color:#AA80F9"/>
						<stop  offset="0.9964" style="stop-color:#6165D7"/>
					</linearGradient>
					<path style="fill:url(#SVGID_00000181774889225528770420000011687254866767396272_);" d="M1491.136,1026.632
						c0,0-78.492-15.175-111.567,242.588c-17.155,133.69,101.73,151.777,255.029,142.872c15.395-16.431,16.488-61.252,16.488-61.252
						s-192.091,16.213-164.103-87.376C1518.365,1147.323,1539.138,1028.523,1491.136,1026.632z"/>
					<path style="fill:#9F73F8;" d="M1646.891,1044.939c-1.063,0-2.144-0.034-3.254-0.102
						c-39.303-2.444-72.412-47.462-73.802-49.376c-0.623-0.855-0.432-2.055,0.424-2.677c0.847-0.627,2.058-0.436,2.677,0.424
						c0.329,0.453,33.448,45.471,70.937,47.8c10.273,0.645,18.242-1.935,23.702-7.646c10.441-10.92,8.535-29.932,8.514-30.123
						c-0.114-1.055,0.649-1.999,1.699-2.114c1.016-0.144,2,0.644,2.114,1.698c0.094,0.852,2.135,20.948-9.539,33.174
						C1664.69,1041.939,1656.807,1044.939,1646.891,1044.939z"/>
					<path style="fill:#AE87F9;" d="M1534.543,1509.544c-0.729,0-1.423-0.419-1.745-1.123c-0.441-0.966-0.013-2.105,0.949-2.541
						c1.571-0.716,158.418-71.367,277.187-63.352c1.058,0.072,1.859,0.987,1.787,2.042c-0.072,1.059-1.025,1.754-2.042,1.788
						c-117.925-7.917-273.781,62.302-275.34,63.013C1535.082,1509.49,1534.811,1509.544,1534.543,1509.544z"/>
				</g>
				<g>
					
						<linearGradient id="SVGID_00000155123540866971690750000000379480543252329602_" gradientUnits="userSpaceOnUse" x1="1600.9191" y1="959.5773" x2="1660.488" y2="959.5773">
						<stop  offset="0" style="stop-color:#FFC444"/>
						<stop  offset="0.9964" style="stop-color:#F36F56"/>
					</linearGradient>
					<path style="fill:url(#SVGID_00000155123540866971690750000000379480543252329602_);" d="M1614.047,898.788
						c0,0-4.287,66.368-11.32,77.99c-7.033,11.622,6.638,31.01,37.757,42.418c31.118,11.409,16.64-64.299,16.64-64.299
						L1614.047,898.788z"/>
					
						<linearGradient id="SVGID_00000155857047004266482570000008643541544472884104_" gradientUnits="userSpaceOnUse" x1="1534.569" y1="1447.8336" x2="1418.6478" y2="1153.4152" gradientTransform="matrix(-0.9533 -0.3021 -0.3021 0.9533 3420.2971 141.3395)">
						<stop  offset="0" style="stop-color:#311944"/>
						<stop  offset="1" style="stop-color:#6B3976"/>
					</linearGradient>
					<path style="fill:url(#SVGID_00000155857047004266482570000008643541544472884104_);" d="M1706.172,915.942
						c38.081-13.815,51.051-103.933,32.215-113.816c-10.818-5.676-20.664,21.209-60.777,31.527
						c-31.239,8.035-51.12-1.621-64.448,14.008c-6.261,7.342-10.005,19.007-9.907,29.324c0.051,5.313,1.36,12.384,4.951,26.286
						c3.185,12.336,2.85,11.832,3.885,15.458c2.485,8.71,7.904,23.829,20.703,43.766c2.839-4.637,6.695-10.267,11.814-16.07
						c1.969-2.233,9.791-10.914,19.395-17.113C1681.485,918.026,1695.252,919.904,1706.172,915.942z"/>
					
						<linearGradient id="SVGID_00000054261699312803073830000005484142409596259463_" gradientUnits="userSpaceOnUse" x1="1652.2466" y1="927.1073" x2="1581.2938" y2="1358.426">
						<stop  offset="0" style="stop-color:#FFC444"/>
						<stop  offset="0.9964" style="stop-color:#F36F56"/>
					</linearGradient>
					<path style="fill:url(#SVGID_00000054261699312803073830000005484142409596259463_);" d="M1614.969,940.958
						c0,0,8.256,34.221,43.714,43.114c31.748,7.962,58.697-60.314,43.585-81.491c-5.041-7.066-17.653-13.375-29.416-13.818
						c-6.948-0.261-9.956,1.695-21.299,1.049c-10.463-0.597-12.848-2.544-16.55-1.026c-4.634,1.899-9.721,8.566-10.178,30.909
						c-4.004-7.913-10.385-12.506-16.195-11.744c-0.928,0.122-3.529,0.89-5.438,2.705
						C1596.287,917.226,1600.293,929.734,1614.969,940.958z"/>
				</g>
				<g>
					<path style="fill:#26264F;" d="M1636.838,1429.935c-1.3-0.214-2.726,0.325-3.415,1.407c-0.101,0.159-1.576,6.491-1.65,6.67
						c-0.577,1.398-0.116,3.009,1.114,3.889l103.969,74.374l243.472-16.187l-105.405-24.742L1636.838,1429.935z"/>
					<path style="fill:#444B8C;" d="M1637.053,1429.082c-1.492-0.245-2.957,0.571-3.534,1.968c-0.577,1.398-0.116,3.009,1.114,3.889
						l103.971,74.378l243.478-16.185l-105.406-24.744L1637.053,1429.082z"/>
					
						<linearGradient id="SVGID_00000052810066545695686200000010000634628675856029_" gradientUnits="userSpaceOnUse" x1="203.6572" y1="1643.6707" x2="526.7643" y2="1643.6707" gradientTransform="matrix(0.97 0.2432 -0.2432 0.97 1968.5042 -266.7252)">
						<stop  offset="0" style="stop-color:#40447E"/>
						<stop  offset="0.9964" style="stop-color:#3C3B6B"/>
					</linearGradient>
					<path style="fill:url(#SVGID_00000052810066545695686200000010000634628675856029_);" d="M1734.01,1505.999l88.865-220.471
						c1.424-3.533,5.091-5.624,8.857-5.048l272.245,41.598c2.438,0.372,4.579,1.821,5.833,3.945
						c1.253,2.124,1.485,4.699,0.633,7.013l-76.47,207.507c-1.32,3.581-4.933,5.781-8.72,5.31l-285.271-35.504L1734.01,1505.999z"/>
					<path style="fill:#26264F;" d="M1736.857,1516.275l90.984-225.278c1.426-3.531,5.092-5.618,8.855-5.043l272.25,41.598
						c2.438,0.372,4.579,1.821,5.833,3.945c1.253,2.124,1.486,4.699,0.633,7.013l-76.481,207.537
						c-1.314,3.567-4.906,5.766-8.68,5.314L1736.857,1516.275z"/>
					<path style="fill:#1F1F44;" d="M1736.857,1516.275l293.393,35.085c3.775,0.452,7.366-1.747,8.681-5.314l23.066-62.59
						c-97.268,20.691-202.461-6.093-304.686-17.822L1736.857,1516.275z"/>
				</g>
				<g>
					
						<linearGradient id="SVGID_00000026149833164355184770000001513553728885326014_" gradientUnits="userSpaceOnUse" x1="-77.1953" y1="1592.1002" x2="83.2749" y2="1592.1002" gradientTransform="matrix(0.9969 -0.0792 0.0792 0.9969 2171.5654 26.9988)">
						<stop  offset="0" style="stop-color:#40447E"/>
						<stop  offset="0.9964" style="stop-color:#3C3B6B"/>
					</linearGradient>
					<path style="fill:url(#SVGID_00000026149833164355184770000001513553728885326014_);" d="M2220.545,1617.466
						c0.379-14.335-3.382-31.5,29.819-32.633c24.1-0.823,62.517,8.632,97.278,17.717c48.711,12.731,50.649,44.902-25.183,40.948
						C2272.8,1640.909,2220.006,1637.851,2220.545,1617.466z"/>
					
						<linearGradient id="SVGID_00000128464398631662650630000002160909864389333131_" gradientUnits="userSpaceOnUse" x1="677.3918" y1="1693.7297" x2="2293.7239" y2="3371.0547" gradientTransform="matrix(0.97 0.2432 -0.2432 0.97 1968.5042 -266.7252)">
						<stop  offset="0" style="stop-color:#FFC444"/>
						<stop  offset="0.9964" style="stop-color:#F36F56"/>
					</linearGradient>
					<path style="fill:url(#SVGID_00000128464398631662650630000002160909864389333131_);" d="M2264.266,1609.19
						c-1.88,7.494-8.388,11.78-14.776,10.717c-14.824-2.469-9.849-8.927-7.97-16.42c1.878-7.493-2.238-14.414,14.775-10.716
						C2262.624,1594.147,2266.145,1601.697,2264.266,1609.19z"/>
					
						<linearGradient id="SVGID_00000088839834204400714480000016517113636786681494_" gradientUnits="userSpaceOnUse" x1="6.6536" y1="1808.4347" x2="746.949" y2="1736.264" gradientTransform="matrix(0.97 0.2432 -0.2432 0.97 1968.5042 -266.7252)">
						<stop  offset="0" style="stop-color:#311944"/>
						<stop  offset="1" style="stop-color:#6B3976"/>
					</linearGradient>
					<path style="fill:url(#SVGID_00000088839834204400714480000016517113636786681494_);" d="M2132.125,1520.796l14.7,2.231
						c0,0,26.464,11.192,95.056,55.732c15.244,7.769,22.299,61.678-25.43,48.582c-47.729-13.096-116.232,3.827-116.232,3.827
						L2132.125,1520.796z"/>
					
						<linearGradient id="SVGID_00000101082320509561301630000005924746880690676404_" gradientUnits="userSpaceOnUse" x1="-279.4242" y1="1945.6573" x2="621.0751" y2="1778.3516" gradientTransform="matrix(0.97 0.2432 -0.2432 0.97 1968.5042 -266.7252)">
						<stop  offset="0" style="stop-color:#311944"/>
						<stop  offset="1" style="stop-color:#893976"/>
					</linearGradient>
					<path style="fill:url(#SVGID_00000101082320509561301630000005924746880690676404_);" d="M1977.707,1518.429
						c-94.251,11.57-228.317-6.913-255.658-11.127c-35.005-5.396-147.425,45.043-148.642,76.868c0,0-10.308,48.939,95.848,88.002
						l260.872,18.927c91.086-21.741,229.329-72.25,240.344-109.673C2193.337,1503.735,2089.372,1504.72,1977.707,1518.429z"/>
					<g style="opacity:0.2;">
						
							<linearGradient id="SVGID_00000114761740725235143450000009462599119158870412_" gradientUnits="userSpaceOnUse" x1="43.2299" y1="1836.0577" x2="588.0128" y2="1719.6224" gradientTransform="matrix(0.97 0.2432 -0.2432 0.97 1968.5042 -266.7252)">
							<stop  offset="0" style="stop-color:#311944"/>
							<stop  offset="1" style="stop-color:#6B3976"/>
						</linearGradient>
						<path style="fill:url(#SVGID_00000114761740725235143450000009462599119158870412_);" d="M1783.005,1566.554
							c67.705,14.102,97.348-28.297,183.275-16.044c55.682,7.942,69.41,29.48,102.092,19.967c25.8-7.51,44.54-28.92,58.323-54.256
							c-37.14-8.395-92.005-4.789-148.987,2.206c-91.542,11.239-220.644-5.876-253.04-10.729
							c-0.958-0.145-19.288-14.089-19.288-14.089s-18.175,3.917-31.41,7.362C1709.661,1537.645,1758.277,1561.403,1783.005,1566.554
							z"/>
					</g>
				</g>
			</g>
		</g>
		<g>
			
				<linearGradient id="SVGID_00000091711393408903796900000017827645523880065210_" gradientUnits="userSpaceOnUse" x1="1527.5381" y1="1168.1366" x2="1275.7192" y2="1410.1763">
				<stop  offset="0" style="stop-color:#FFC444"/>
				<stop  offset="0.9964" style="stop-color:#F36F56"/>
			</linearGradient>
			<path style="fill:url(#SVGID_00000091711393408903796900000017827645523880065210_);" d="M1025.081,2299.894
				c-22.214,0.642-43.881-4.956-62.65-16.203c-57.181-34.277-141.672-90.884-217.686-164.982
				c-96.455-94.028-151.873-189.607-163.999-283.462l-0.19-1.471l-2.353-400.478c0-79.146,51.623-143.393,148.544-185.608
				c80.076-34.878,186.21-52.16,298.334-48.915c110.818,3.208,213.362,26.073,289.262,64.172
				c90.223,45.291,137.562,108.938,137.562,184.399l-2.146,382.659l-0.173,1.407c-11.081,89.876-62.07,182.776-152.192,276.72
				c-72.287,75.348-153.972,135.062-210.071,172.059C1068.763,2292.433,1047.245,2299.252,1025.081,2299.894z"/>
			
				<linearGradient id="SVGID_00000088094777328398519450000013835806782679752349_" gradientUnits="userSpaceOnUse" x1="779.0919" y1="1223.2888" x2="1635.0846" y2="2623.321">
				<stop  offset="0" style="stop-color:#FFC444"/>
				<stop  offset="0.9964" style="stop-color:#F36F56"/>
			</linearGradient>
			<path style="fill:url(#SVGID_00000088094777328398519450000013835806782679752349_);" d="M1047.074,2299.894
				c-21.921,0.642-43.302-4.956-61.822-16.203c-56.426-34.277-139.8-90.884-214.81-164.982
				c-95.18-94.028-149.867-189.607-161.831-283.462l-0.188-1.471l-2.322-400.478c0-79.146,50.941-143.393,146.581-185.608
				c79.019-34.878,183.75-52.16,294.393-48.915c109.354,3.208,210.543,26.073,285.439,64.172
				c89.032,45.291,135.745,108.938,135.745,184.399l-2.118,382.659l-0.172,1.407c-10.933,89.876-61.25,182.776-150.181,276.72
				c-71.332,75.348-151.936,135.062-207.294,172.059C1090.178,2292.433,1068.944,2299.252,1047.074,2299.894z"/>
			
				<linearGradient id="SVGID_00000160899770201412754880000012435433509333501847_" gradientUnits="userSpaceOnUse" x1="1232.9917" y1="2020.4115" x2="537.8012" y2="622.5268">
				<stop  offset="0" style="stop-color:#FFC444"/>
				<stop  offset="0.9964" style="stop-color:#F36F56"/>
			</linearGradient>
			<path style="fill:url(#SVGID_00000160899770201412754880000012435433509333501847_);" d="M632.542,1433.585l2.337,398.454
				c26.229,203.302,265.154,367.901,369.214,430.437c29.81,17.915,67.922,16.853,97.521-2.624
				c101.888-67.044,327.727-235.83,351.857-431.296l2.143-381.604C1455.615,1163.834,632.542,1137.951,632.542,1433.585z"/>
			
				<linearGradient id="SVGID_00000105411552782008613740000014516511060477719680_" gradientUnits="userSpaceOnUse" x1="711.4371" y1="1749.2241" x2="1382.6803" y2="1749.2241">
				<stop  offset="0" style="stop-color:#311944"/>
				<stop  offset="1" style="stop-color:#893976"/>
			</linearGradient>
			<path style="fill:url(#SVGID_00000105411552782008613740000014516511060477719680_);" d="M1052.978,2201.059
				c-1.907,0.044-4.794-0.272-7.71-2.041c-42.846-25.946-125.903-80.293-198.158-151.267
				c-78.047-76.665-123.06-151.202-133.382-221.208l-2.29-391.856c0.095-37.598,29.858-69.777,88.199-95.524
				c65.128-28.745,157.62-43.827,253.343-41.554c94.768,2.25,184.561,21.327,246.768,52.196
				c55.026,27.303,82.844,59.492,82.933,95.79l-2.134,378.29c-9.634,67.743-51.882,140.774-126.059,217.544
				c-69.746,72.182-151.219,129.402-193.803,157.228C1057.77,2200.559,1054.886,2201.014,1052.978,2201.059z"/>
			
				<linearGradient id="SVGID_00000072275283028367672710000012840113431261511813_" gradientUnits="userSpaceOnUse" x1="1154.8652" y1="2263.1174" x2="961.0601" y2="1206.8751">
				<stop  offset="0" style="stop-color:#FFC444"/>
				<stop  offset="0.9964" style="stop-color:#F36F56"/>
			</linearGradient>
			<path style="fill:url(#SVGID_00000072275283028367672710000012840113431261511813_);" d="M1043.201,2174.275
				c-43.27-26.65-120.213-78.111-187.345-144.177c-73.346-72.184-115.791-141.453-125.77-205.545l-2.272-389.581
				c0.068-26.883,24.778-51.542,73.258-73.006c61.696-27.319,150.091-41.714,242.127-39.648
				c91.153,2.047,177.071,20.05,236.115,49.264c45.876,22.698,69.084,47.457,69.147,73.675l-2.129,376.898
				c-9.362,62.186-49.397,130.194-119.408,202.519C1161.924,2091.823,1086.275,2145.818,1043.201,2174.275z"/>
			<g>
				<path style="fill:#FFFFFF;" d="M1319.871,1713.92c-287.692-286.515-525.296-40.207-560.47-0.218
					c-2.598,2.953-2.508,7.388,0.211,10.226c276.61,288.711,523.53,41.017,560.513,0.446
					C1322.85,1721.383,1322.736,1716.776,1319.871,1713.92z"/>
				
					<linearGradient id="SVGID_00000091725590485582728810000010361421885703810213_" gradientUnits="userSpaceOnUse" x1="1172.4946" y1="1826.0634" x2="937.4069" y2="1637.2936">
					<stop  offset="0" style="stop-color:#311944"/>
					<stop  offset="1" style="stop-color:#893976"/>
				</linearGradient>
				
					<circle style="fill:url(#SVGID_00000091725590485582728810000010361421885703810213_);" cx="1039.804" cy="1719.516" r="112.93"/>
				
					<linearGradient id="SVGID_00000124153320378888493270000000540917161852966059_" gradientUnits="userSpaceOnUse" x1="1086.0323" y1="1772.6466" x2="834.3395" y2="1483.3743">
					<stop  offset="0" style="stop-color:#311944"/>
					<stop  offset="1" style="stop-color:#893976"/>
				</linearGradient>
				
					<circle style="fill:url(#SVGID_00000124153320378888493270000000540917161852966059_);" cx="1039.804" cy="1719.516" r="59.843"/>
				
					<ellipse transform="matrix(0.2298 -0.9732 0.9732 0.2298 -798.4779 2340.8672)" style="fill:#FFFFFF;" cx="1079.668" cy="1674.894" rx="22.247" ry="22.247"/>
			</g>
		</g>
		<g>
			
				<linearGradient id="SVGID_00000062885462011357761840000011673251434328613552_" gradientUnits="userSpaceOnUse" x1="965.7239" y1="726.2615" x2="1161.752" y2="950.6049" gradientTransform="matrix(-0.9994 0.0338 0.0338 0.9994 3298.3582 -7.0366)">
				<stop  offset="0" style="stop-color:#311944"/>
				<stop  offset="1" style="stop-color:#893976"/>
			</linearGradient>
			<path style="fill:url(#SVGID_00000062885462011357761840000011673251434328613552_);" d="M1876.367,970.231
				c-0.055,0.96-0.102,1.921-0.141,2.883c-0.032,0.795-0.062,1.59-0.083,2.387c-0.031,1.152-0.046,2.308-0.055,3.465
				c-0.005,0.638-0.016,1.276-0.014,1.917c0.006,1.815,0.033,3.635,0.095,5.46c0.269,7.948,1.06,15.792,2.347,23.51
				c2.251,13.51,6.02,26.642,11.162,39.295c0.735,1.808,1.497,3.606,2.288,5.394c3.161,7.151,6.765,14.141,10.784,20.953
				c9.042,15.323,20.188,29.738,33.134,43.029c2.877,2.954,5.842,5.852,8.894,8.692c3.051,2.84,6.188,5.623,9.407,8.345
				c12.875,10.889,27.067,20.816,42.359,29.63c1.912,1.102,3.841,2.185,5.786,3.252c3.891,2.133,7.85,4.196,11.872,6.185
				c14.079,6.964,28.94,13.031,44.442,18.104c4.429,1.449,8.91,2.817,13.44,4.102c4.53,1.284,9.109,2.485,13.733,3.599
				c4.625,1.116,9.295,2.144,14.007,3.085c25.917,5.172,53.114,7.673,81.034,7.114c2.392-0.048,4.775-0.121,7.15-0.214
				c0.763-0.029,1.52-0.073,2.281-0.108c1.618-0.072,3.236-0.146,4.846-0.238c0.867-0.05,1.729-0.114,2.594-0.169
				c1.501-0.097,3.001-0.196,4.495-0.31c0.884-0.068,1.764-0.147,2.646-0.221c1.477-0.123,2.953-0.251,4.423-0.391
				c0.856-0.083,1.709-0.173,2.562-0.26c1.501-0.155,2.998-0.315,4.49-0.487c0.805-0.093,1.607-0.191,2.41-0.289
				c1.553-0.189,3.101-0.388,4.645-0.596c0.724-0.098,1.447-0.198,2.169-0.3c1.649-0.234,3.292-0.478,4.93-0.733
				c0.602-0.093,1.203-0.186,1.803-0.283c1.813-0.291,3.618-0.597,5.417-0.913c0.414-0.073,0.829-0.144,1.241-0.218
				c2.087-0.375,4.165-0.769,6.233-1.179c0.12-0.024,0.24-0.046,0.361-0.07c13.228-2.637,26.06-5.97,38.419-9.961
				c-0.012-0.01-0.024-0.021-0.035-0.031c105.627-34.164,177.543-115.851,174.365-209.719
				c-4.132-122.038-133.75-222.461-292.715-224.338c-153.509-1.813-278.915,88.536-288.863,205.633
				c-0.065,0.762-0.132,1.523-0.188,2.287C1876.472,968.424,1876.418,969.326,1876.367,970.231z"/>
			<g>
				
					<linearGradient id="SVGID_00000078033277790521481110000005560528707643654059_" gradientUnits="userSpaceOnUse" x1="-1500.2687" y1="760.9767" x2="-1117.6276" y2="1470.6626" gradientTransform="matrix(0.9994 -0.0338 0.0338 0.9994 3556.1848 -15.2998)">
					<stop  offset="0" style="stop-color:#FF9085"/>
					<stop  offset="1" style="stop-color:#FB6FBB"/>
				</linearGradient>
				<path style="fill:url(#SVGID_00000078033277790521481110000005560528707643654059_);" d="M2477.345,983.297
					c4.132,122.038-115.921,223.41-271.277,226.482c-158.925,3.143-293.955-97.343-298.261-224.506s123.889-228.562,282.99-226.522
					C2346.325,760.744,2473.213,861.259,2477.345,983.297z"/>
				<path style="fill:#FFFFFF;" d="M2110.689,870.125l7.31,215.903c0.469,13.859,12.498,22.114,22.42,15.407l176.962-119.618
					c11.037-7.461,10.358-27.511-1.135-33.522l-184.275-96.388C2121.638,846.503,2110.219,856.266,2110.689,870.125z"/>
				<g style="opacity:0.3;">
					
						<linearGradient id="SVGID_00000141443704752332376980000016648654471351200184_" gradientUnits="userSpaceOnUse" x1="-1606.8582" y1="798.5896" x2="-1229.5544" y2="1555.7477" gradientTransform="matrix(0.9994 -0.0338 0.0338 0.9994 3556.1848 -15.2998)">
						<stop  offset="0" style="stop-color:#FF9085"/>
						<stop  offset="1" style="stop-color:#FB6FBB"/>
					</linearGradient>
					<path style="fill:url(#SVGID_00000141443704752332376980000016648654471351200184_);" d="M2272.863,1151.263
						c-36.317-65.898-3.968-128.216-51.538-170.894c-48.654-43.651-109.056-2.748-177.384-38.543
						c-26.593-13.931-56.656-40.681-80.275-95.851c-36.637,38.437-57.636,86.771-55.858,139.298
						c4.305,127.164,139.335,227.649,298.261,224.506c35.901-0.71,69.89-6.661,100.872-16.865
						C2291.042,1179.113,2280.325,1164.802,2272.863,1151.263z"/>
				</g>
			</g>
		</g>
		<g>
			
				<linearGradient id="SVGID_00000134222668009680815370000012583775204986693547_" gradientUnits="userSpaceOnUse" x1="1500.5175" y1="1041.4122" x2="1216.8607" y2="875.1581">
				<stop  offset="0" style="stop-color:#311944"/>
				<stop  offset="1" style="stop-color:#893976"/>
			</linearGradient>
			<path style="fill:url(#SVGID_00000134222668009680815370000012583775204986693547_);" d="M1377.257,1005.905
				c18.13,9.205,40.908,0.753,50.875-18.878c9.967-19.631,3.349-43.008-14.781-52.213c-0.939-0.477-1.898-0.878-2.859-1.262
				c3.368-10.862,5.908-21.81,7.611-32.762c1.039-0.003,2.082-0.02,3.142-0.115c20.685-1.843,37.102-20.851,36.669-42.455
				c-0.433-21.604-17.553-37.624-38.238-35.779c-1.081,0.097-2.143,0.267-3.199,0.455c-2.16-10.706-5.121-21.165-8.855-31.287
				c0.951-0.557,1.898-1.132,2.823-1.78c17.697-12.398,23.355-36.869,12.637-54.656s-33.753-22.156-51.449-9.758
				c-0.908,0.636-1.76,1.322-2.604,2.018c-6.99-7.727-14.656-14.888-22.951-21.424c0.583-0.956,1.154-1.925,1.671-2.941
				c9.967-19.631,22.992-41.076,4.719-49.995c-42.269-20.635-60.408-2.971-70.376,16.66c-0.516,1.017-0.961,2.05-1.389,3.084
				c-10.171-2.839-20.476-4.803-30.838-5.887c0.065-1.091,0.115-2.185,0.093-3.292c-0.434-21.603,5.977-33.295-14.786-33.698
				c-45.277-0.88-60.553,18.772-60.12,40.375c0.023,1.129,0.117,2.233,0.229,3.329c-10.376,2.958-20.566,6.739-30.484,11.313
				c-0.472-0.964-0.961-1.922-1.521-2.852c-10.717-17.787-33.752-22.155-51.449-9.757c-17.697,12.399-23.355,36.87-12.637,54.656
				c0.549,0.912,1.151,1.764,1.761,2.605c-7.837,7.838-15.176,16.348-21.958,25.478c-0.877-0.55-1.767-1.088-2.706-1.565
				c-18.13-9.205-40.908-0.753-50.875,18.878c-9.967,19.631-3.349,43.008,14.78,52.213c0.939,0.477,1.898,0.878,2.86,1.261
				c-3.368,10.863-5.908,21.81-7.611,32.762c-1.039,0.003-2.082,0.02-3.141,0.114c-20.686,1.845-37.103,20.852-36.67,42.457
				c0.433,21.604,17.553,37.622,38.238,35.778c1.08-0.096,2.142-0.266,3.198-0.454c2.161,10.706,5.121,21.165,8.856,31.287
				c-0.951,0.556-1.898,1.132-2.823,1.78c-17.696,12.398-23.355,36.869-12.637,54.656c10.717,17.788,46.2,26.052,63.896,13.653
				c0.907-0.636-10.688-5.217-9.844-5.914c6.989,7.727,14.656,14.888,22.95,21.423c-0.582,0.957-1.154,1.925-1.67,2.942
				c-9.967,19.631-3.35,43.008,14.781,52.214c18.13,9.205,40.907,0.753,50.875-18.878c0.516-1.017,0.961-2.05,1.389-3.085
				c10.17,2.84,20.475,4.803,30.838,5.887c-0.065,1.092-0.115,2.185-0.093,3.292c0.433,21.603,17.553,37.622,38.237,35.778
				c20.685-1.844,37.102-20.852,36.669-42.455c-0.023-1.129-0.117-2.233-0.229-3.33c10.376-2.958,20.567-6.739,30.485-11.312
				c0.471,0.963,0.961,1.921,1.52,2.85c10.718,17.787,33.752,22.157,51.449,9.757c17.698-12.399,23.355-36.869,12.638-54.658
				c-0.549-0.911-1.151-1.762-1.761-2.603c7.837-7.838,15.176-16.348,21.958-25.478
				C1375.428,1004.89,1376.318,1005.428,1377.257,1005.905z M1151.246,1008.773c-65.828-33.422-89.854-118.297-53.664-189.574
				c36.189-71.277,118.888-101.965,184.716-68.543c65.827,33.422,89.853,118.297,53.665,189.574
				C1299.772,1011.507,1217.072,1042.195,1151.246,1008.773z"/>
			
				<linearGradient id="SVGID_00000182518103851990369700000011562692987215326892_" gradientUnits="userSpaceOnUse" x1="1156.8325" y1="845.8223" x2="1219.8674" y2="874.1879">
				<stop  offset="0" style="stop-color:#311944"/>
				<stop  offset="1" style="stop-color:#893976"/>
			</linearGradient>
			<path style="fill:url(#SVGID_00000182518103851990369700000011562692987215326892_);" d="M1421.245,900.675
				c20.685-1.845,37.102-20.852,36.669-42.456c-0.433-21.604-17.553-37.624-38.238-35.779c-1.081,0.096-2.143,0.267-3.199,0.454
				c-2.159-10.707-5.121-21.164-8.855-31.287c0.951-0.556,1.898-1.132,2.823-1.78c17.697-12.398,39.591-42.357,27.106-58.95
				c-23.697-31.494-48.221-17.862-65.917-5.464c-0.908,0.636-1.76,1.321-2.603,2.018c-6.99-7.727-14.656-14.887-22.951-21.423
				c0.583-0.956,1.154-1.925,1.671-2.941c5.425-10.684,5.903-22.464,2.321-32.478c-17.093,30.085-33.957,60.296-50.517,90.672
				c52.514,38.482,69.234,114.316,36.408,178.969c-27.815,54.786-83.11,85.55-137.1,81.695c-2.408,6.245-4.773,12.526-7.352,18.711
				c-6.999,16.786-14.949,33.227-22.91,49.646c5.007,0.944,10.036,1.687,15.078,2.215c-0.065,1.092-0.115,2.186-0.093,3.292
				c0.433,21.604,13.549,39.959,51.038,37.971c20.737-1.1,24.301-23.044,23.868-44.648c-0.023-1.129-0.117-2.232-0.229-3.329
				c10.375-2.958,20.566-6.739,30.484-11.313c0.471,0.964,0.961,1.921,1.521,2.85c10.718,17.788,47.897,25.346,65.595,12.947
				c17.697-12.399,9.209-40.058-1.509-57.846c-0.549-0.911-1.151-1.763-1.761-2.604c7.837-7.837,15.176-16.348,21.958-25.477
				c0.877,0.55,1.767,1.088,2.706,1.563c18.13,9.206,40.908,0.753,50.876-18.878c9.966-19.63,3.35-43.008-14.781-52.213
				c-0.939-0.477-1.899-0.878-2.86-1.261c3.368-10.862,5.908-21.811,7.611-32.762
				C1419.142,900.787,1420.185,900.769,1421.245,900.675z"/>
			
				<linearGradient id="SVGID_00000175281714280176288700000012992402015569127351_" gradientUnits="userSpaceOnUse" x1="1426.1823" y1="1122.4854" x2="732.798" y2="244.1998">
				<stop  offset="0" style="stop-color:#FF9085"/>
				<stop  offset="1" style="stop-color:#FB6FBB"/>
			</linearGradient>
			<path style="fill:url(#SVGID_00000175281714280176288700000012992402015569127351_);" d="M1396.756,1008.122
				c18.13,9.205,40.908,0.753,50.876-18.878c9.966-19.632,3.349-43.008-14.781-52.214c-0.939-0.476-1.897-0.878-2.859-1.261
				c3.368-10.862,5.908-21.81,7.612-32.762c1.039-0.003,2.082-0.02,3.141-0.114c20.685-1.844,37.102-20.852,36.669-42.456
				c-0.434-21.604-17.553-37.623-38.238-35.779c-1.082,0.097-2.143,0.268-3.2,0.456c-2.16-10.706-5.12-21.165-8.856-31.287
				c0.952-0.557,1.898-1.133,2.823-1.78c17.697-12.398,23.355-36.87,12.637-54.657c-10.718-17.787-33.752-22.156-51.449-9.757
				c-0.907,0.635-1.76,1.321-2.603,2.018c-6.99-7.727-14.656-14.888-22.951-21.423c0.583-0.956,1.154-1.925,1.672-2.942
				c9.966-19.631,3.349-43.008-14.781-52.213c-18.13-9.206-40.908-0.753-50.875,18.878c-0.516,1.017-0.961,2.049-1.389,3.084
				c-10.171-2.84-20.476-4.803-30.838-5.887c0.065-1.091,0.115-2.185,0.093-3.292c-0.434-21.603-17.553-37.622-38.238-35.778
				c-20.685,1.843-37.102,20.852-36.669,42.455c0.023,1.129,0.117,2.233,0.229,3.33c-10.376,2.958-20.566,6.739-30.485,11.313
				c-0.471-0.964-0.961-1.922-1.52-2.852c-10.717-17.787-33.752-22.156-51.45-9.757c-17.697,12.399-23.354,36.87-12.637,54.657
				c0.549,0.911,1.151,1.764,1.762,2.604c-7.837,7.838-15.177,16.348-21.959,25.478c-0.877-0.551-1.766-1.088-2.706-1.565
				c-18.13-9.206-40.907-0.753-50.875,18.878c-9.968,19.631-3.35,43.008,14.78,52.213c0.939,0.477,1.898,0.878,2.86,1.261
				c-3.368,10.863-5.908,21.811-7.611,32.762c-1.04,0.003-2.083,0.02-3.141,0.114c-20.685,1.845-37.103,20.852-36.669,42.457
				c0.433,21.604,17.553,37.622,38.237,35.779c1.081-0.096,2.144-0.266,3.198-0.455c2.161,10.706,5.121,21.165,8.856,31.287
				c-0.952,0.556-1.898,1.132-2.823,1.78c-17.697,12.398-23.354,36.87-12.637,54.657c10.718,17.788,33.753,22.156,51.449,9.758
				c0.907-0.636,1.76-1.322,2.603-2.018c6.991,7.727,14.656,14.888,22.951,21.423c-0.583,0.956-1.154,1.925-1.67,2.942
				c-9.968,19.631-3.35,43.008,14.78,52.213c18.13,9.205,40.908,0.753,50.875-18.878c0.517-1.017,0.961-2.05,1.389-3.085
				c10.171,2.84,20.476,4.803,30.839,5.887c-0.064,1.092-0.115,2.185-0.093,3.293c0.434,21.603,17.553,37.622,38.238,35.778
				c20.685-1.844,37.102-20.852,36.669-42.456c-0.022-1.129-0.116-2.233-0.229-3.33c10.376-2.958,20.567-6.739,30.485-11.312
				c0.471,0.963,0.961,1.921,1.521,2.85c10.717,17.788,33.751,22.157,51.449,9.758c17.697-12.399,23.356-36.869,12.638-54.658
				c-0.549-0.91-1.151-1.762-1.761-2.603c7.836-7.837,15.176-16.348,21.958-25.478
				C1394.928,1007.108,1395.817,1007.645,1396.756,1008.122z M1170.746,1010.99c-65.827-33.422-89.854-118.296-53.665-189.574
				c36.189-71.277,118.889-101.964,184.716-68.543c65.827,33.421,89.853,118.296,53.665,189.574
				C1319.272,1013.725,1236.573,1044.411,1170.746,1010.99z"/>
		</g>
	</g>
</g>
</svg>
