<?xml version="1.0" encoding="utf-8"?>
<!-- Generator: Adobe Illustrator 27.5.0, SVG Export Plug-In . SVG Version: 6.00 Build 0)  -->
<svg version="1.1" xmlns="http://www.w3.org/2000/svg" xmlns:xlink="http://www.w3.org/1999/xlink" x="0px" y="0px"
	 viewBox="0 0 2475 1650" style="enable-background:new 0 0 2475 1650;" xml:space="preserve">
<g id="Background">
	<rect style="fill:#FFFFFF;" width="2475" height="1650"/>
</g>
<g id="Illustration">
	<g>
		<g>
			<linearGradient id="SVGID_1_" gradientUnits="userSpaceOnUse" x1="185.7253" y1="833.3184" x2="2255.1558" y2="833.3184">
				<stop  offset="0" style="stop-color:#B37CFF"/>
				<stop  offset="1" style="stop-color:#F895E7"/>
			</linearGradient>
			<path style="opacity:0.5;fill:url(#SVGID_1_);" d="M295.939,1137.902c-0.226,0.898-0.452,1.799-0.677,2.702
				c-36.717,146.897,85.089,286.966,249.537,286.966c74.664,0,149.327,0,223.991,0c160.875,0,321.751,0,482.627,0
				c152.82,0,305.64,0,458.46,0c68.746,0,142.709,10.617,210.348-2.418c91.885-17.708,180.128-61.879,243.566-131.983
				c49.072-54.227,82.247-124.404,90.104-198.016c8.71-81.602-29.829-147.385-50.078-223.625
				c-18.676-70.315-43.234-134.202-49.259-208.65c-6.554-81.002-16.451-163.132-58.289-234.151
				c-102.565-174.095-341.992-218.376-517.385-181.89c-182.541,37.973-339.497,161.451-525.182,188.16
				c-76.205,10.962-157.362,3.954-227.289-32.269c-93.317-48.34-168.161-121.434-277.779-117.111
				c-176.917,6.976-315.076,69.151-354.446,268.153c-27.342,138.205,15.052,224.501,77.138,341.46
				C314.996,977.496,318.523,1048.075,295.939,1137.902z"/>
			
				<linearGradient id="SVGID_00000159435121545868249770000003175743420375273379_" gradientUnits="userSpaceOnUse" x1="156.0472" y1="817.2635" x2="2325" y2="817.2635">
				<stop  offset="0" style="stop-color:#B37CFF"/>
				<stop  offset="1" style="stop-color:#F895E7"/>
			</linearGradient>
			<path style="opacity:0.5;fill:url(#SVGID_00000159435121545868249770000003175743420375273379_);" d="M2211.908,482.981
				c6.718-36.531,13.374-75.789,18.348-116.064c11.469-92.873-63.204-174.654-159.768-174.654c-3.008,0-6.015,0-9.023,0
				c-91.526,0-183.051,0-274.576,0c-162.259,0-324.518,0-486.777,0c-155.591,0-311.183,0.07-466.774,0
				c-346.804-0.157-357.296-4.07-439.675,29.214c-89.524,36.171-176.087,94.648-214.822,184.602
				c-24.234,56.278-28.641,120.641-15.613,180.658c13.028,60.017,43.014,115.643,83.194,161.443
				c20.296,23.135,43.426,44.235,58.561,71.173c17.88,31.826,23.191,69.44,23.941,106.117
				c1.014,49.611,1.232,128.954-33.937,167.096c-18.896,20.493-44.025,35.215-58.837,58.95
				c-21.387,34.272-15.797,80.849,4.923,115.545c20.72,34.697,54.092,59.468,88.332,80.206
				c78.784,47.715,180.459,92.446,273.711,90.907c32.881-0.542,65.816,0,98.702,0c87.046,0,174.092,0,261.138,0
				c159.931,0,319.862,0,479.793,0c18.593,0,37.186,0,55.779,0c13.53-0.868,27.114-0.891,40.669,0c66.957,0,133.914,0,200.871,0
				c57.938,0,115.876,0,173.814,0c58.951,0,120.224,7.599,178.684,2.612c33.569-2.864,66.784-11.073,97.353-25.661
				c226.28-107.979,115.009-424.188,46.603-600.37C2192.851,702.283,2189.324,605.79,2211.908,482.981z"/>
		</g>
		<g>
			<g>
				
					<linearGradient id="SVGID_00000119109094333455987280000007757865404637139895_" gradientUnits="userSpaceOnUse" x1="1432.2208" y1="1241.0533" x2="2349.7559" y2="691.6764" gradientTransform="matrix(0.994 0.1094 -0.1094 0.994 221.9809 63.845)">
					<stop  offset="0" style="stop-color:#A737D5"/>
					<stop  offset="1" style="stop-color:#EF497A"/>
				</linearGradient>
				<path style="fill:url(#SVGID_00000119109094333455987280000007757865404637139895_);" d="M2211.427,1041.822
					c-22.083,67.885-166.72,457.685-556.883,387.663c0,0,29.16-281.132,549.86-395.44
					C2208.959,1033.045,2212.869,1037.388,2211.427,1041.822z"/>
				
					<linearGradient id="SVGID_00000077284305696253086170000002210606395472458672_" gradientUnits="userSpaceOnUse" x1="-2398.8882" y1="305.1234" x2="-1984.6962" y2="305.1234" gradientTransform="matrix(0.9902 0.1396 -0.1396 0.9902 4135.3999 1246.8824)">
					<stop  offset="0" style="stop-color:#B37CFF"/>
					<stop  offset="1" style="stop-color:#F895E7"/>
				</linearGradient>
				<path style="opacity:0.6;fill:url(#SVGID_00000077284305696253086170000002210606395472458672_);" d="M2153.82,1083.877
					c-14.212,18.957-29.703,36.677-45.659,54.035c-16.005,17.296-32.679,33.968-49.869,50.086
					c-17.198,16.111-34.941,31.644-53.167,46.597c-18.276,14.891-37.056,29.163-56.259,42.852
					c-19.179,13.73-39.007,26.532-59.088,38.913c-10.13,6.046-20.23,12.15-30.584,17.813c-10.225,5.897-20.745,11.25-31.18,16.768
					c-42.037,21.495-85.742,39.773-130.598,54.678c-2.509,0.834-5.22-0.524-6.054-3.035c-0.834-2.509,0.525-5.219,3.034-6.053
					l0.044-0.015l0.033-0.011c44.505-14.308,87.959-31.979,129.838-52.876c10.396-5.37,20.881-10.575,31.078-16.325
					c10.326-5.517,20.403-11.474,30.515-17.375c20.046-12.09,39.859-24.608,59.042-38.06c19.207-13.411,38.009-27.411,56.322-42.037
					c18.264-14.685,36.06-29.96,53.324-45.819c17.255-15.866,34.008-32.29,50.098-49.341c16.019-17.083,31.677-34.661,45.852-53.188
					l0.043-0.055c0.681-0.89,1.953-1.059,2.843-0.379C2154.314,1081.725,2154.486,1082.987,2153.82,1083.877z"/>
			</g>
			<g>
				
					<linearGradient id="SVGID_00000128475351465445490070000002680087781848150923_" gradientUnits="userSpaceOnUse" x1="1742.9222" y1="994.2555" x2="2428.7566" y2="240.404" gradientTransform="matrix(0.998 0.063 -0.063 0.998 -129.6083 9.4236)">
					<stop  offset="0" style="stop-color:#A737D5"/>
					<stop  offset="1" style="stop-color:#EF497A"/>
				</linearGradient>
				<path style="fill:url(#SVGID_00000128475351465445490070000002680087781848150923_);" d="M1940.962,410.001
					c27.156,104.378,161.171,718.758-374.145,958.914c0,0-188.985-379.799,359.299-962.827
					C1930.912,400.988,1939.188,403.182,1940.962,410.001z"/>
				
					<linearGradient id="SVGID_00000000907761581115505310000010385832934739711363_" gradientUnits="userSpaceOnUse" x1="1892.3608" y1="775.1501" x2="2062.3167" y2="775.1501" gradientTransform="matrix(0.998 0.063 -0.063 0.998 -129.6083 9.4236)">
					<stop  offset="0" style="stop-color:#B37CFF"/>
					<stop  offset="1" style="stop-color:#F895E7"/>
				</linearGradient>
				<path style="opacity:0.6;fill:url(#SVGID_00000000907761581115505310000010385832934739711363_);" d="M1905.603,503.331
					c-4.66,34.71-10.005,69.285-15.639,103.829c-5.649,34.537-11.682,69.011-18.103,103.413
					c-12.84,68.804-27.162,137.343-43.512,205.409c-16.397,68.044-34.711,135.674-56.557,202.197
					c-10.821,33.292-22.807,66.21-35.995,98.64c-13.232,32.404-27.717,64.349-44.617,95.047c-0.999,1.814-3.219,2.461-4.958,1.447
					c-1.74-1.015-2.341-3.308-1.342-5.122l0.009-0.017l0.008-0.014c16.851-30.247,31.391-61.876,44.701-94.015
					c13.269-32.168,25.368-64.878,36.315-97.998c22.1-66.175,40.714-133.57,57.422-201.418
					c16.661-67.871,31.309-136.258,44.479-204.931c6.586-34.337,12.785-68.751,18.602-103.231
					c5.8-34.477,11.317-69.025,16.138-103.634l0.002-0.015c0.122-0.873,0.902-1.486,1.743-1.369
					C1905.137,501.664,1905.719,502.462,1905.603,503.331z"/>
			</g>
			<g>
				
					<linearGradient id="SVGID_00000091697591375606446220000001278142586838941611_" gradientUnits="userSpaceOnUse" x1="2201.3879" y1="577.0859" x2="1680.6208" y2="1559.4866">
					<stop  offset="0" style="stop-color:#CB236D"/>
					<stop  offset="1" style="stop-color:#4C246D"/>
				</linearGradient>
				<path style="fill:url(#SVGID_00000091697591375606446220000001278142586838941611_);" d="M1666.264,1414.721
					c0,0-9.791-121.272,99.582-256.175c101.479-125.167,352.595-416.396,401.813-568.502c2.18-6.738,11.947-5.807,12.737,1.231
					c8.469,75.495,14.818,266.242-96.592,467.856C1940.136,1319.126,1666.264,1414.721,1666.264,1414.721z"/>
				
					<linearGradient id="SVGID_00000150077417378926679360000007982447009365264519_" gradientUnits="userSpaceOnUse" x1="1696.8579" y1="1059.476" x2="2137.3489" y2="1059.476">
					<stop  offset="0" style="stop-color:#B37CFF"/>
					<stop  offset="1" style="stop-color:#F895E7"/>
				</linearGradient>
				<path style="opacity:0.6;fill:url(#SVGID_00000150077417378926679360000007982447009365264519_);" d="M2137.349,729.826
					c-0.47,16.801-3.03,33.49-6.498,49.929c-0.422,2.059-0.804,4.128-1.26,6.181l-1.488,6.127l-2.986,12.26l-3.495,12.124
					c-1.202,4.03-2.236,8.12-3.684,12.07c-10.506,31.967-23.623,63.125-39.397,92.887c-3.64,7.607-8.06,14.783-12.203,22.114
					l-6.29,10.957c-1.073,1.811-2.042,3.687-3.2,5.445l-3.406,5.317l-13.629,21.275c-2.194,3.6-4.757,6.946-7.185,10.385
					l-7.359,10.266l-7.36,10.267l-3.696,5.122l-3.927,4.945l-15.709,19.781c-2.642,3.274-5.185,6.646-7.909,9.838l-8.159,9.592
					l-16.319,19.183l-16.534,18.998c-5.531,6.315-11.001,12.684-16.623,18.918c-11.158,12.545-22.389,25.023-33.758,37.373
					c-11.29,12.424-22.776,24.661-34.197,36.957l-34.632,36.522c-23.106,24.315-46.25,48.579-68.54,73.558
					c-5.661,6.174-11,12.606-16.453,18.952c-2.766,3.143-5.309,6.456-7.929,9.712c-2.585,3.282-5.264,6.498-7.775,9.835
					c-4.875,6.775-10.013,13.387-14.401,20.488l-3.428,5.242c-0.559,0.881-1.172,1.732-1.687,2.638l-1.529,2.729l-6.125,10.924
					l-0.023,0.041c-0.245,0.438-0.799,0.593-1.236,0.348c-0.422-0.236-0.58-0.761-0.372-1.19
					c7.395-15.153,16.393-29.461,26.23-43.127c2.453-3.42,5.071-6.712,7.599-10.076c2.562-3.336,5.053-6.736,7.757-9.953
					c5.332-6.498,10.561-13.096,16.096-19.415l8.203-9.572c2.759-3.168,5.589-6.268,8.381-9.404l8.402-9.385l8.491-9.295
					c11.301-12.416,22.739-24.687,34.121-37.007c22.783-24.623,45.565-49.215,68.066-74.057
					c22.533-24.814,44.662-49.978,66.589-75.317l16.272-19.152l8.136-9.576c2.717-3.189,5.255-6.495,7.892-9.737l15.684-19.542
					l3.922-4.886l3.69-5.06l7.35-10.143c19.952-26.803,37.594-55.255,53.721-84.49c16.246-29.196,29.888-59.838,40.97-91.374
					c1.519-3.899,2.615-7.935,3.957-11.894l3.86-11.936l3.357-12.085l1.677-6.047c0.518-2.026,0.963-4.069,1.449-6.103
					c0.922-4.079,1.972-8.135,2.791-12.237l2.359-12.332c1.308-8.26,2.692-16.544,3.154-24.911c0-0.062,0.051-0.112,0.113-0.112
					C2137.298,729.711,2137.347,729.765,2137.349,729.826z"/>
			</g>
		</g>
		<g>
			<g>
				
					<linearGradient id="SVGID_00000101810744735461041580000009025040070212799136_" gradientUnits="userSpaceOnUse" x1="444.3392" y1="207.002" x2="886.6967" y2="1356.5511">
					<stop  offset="0" style="stop-color:#CB236D"/>
					<stop  offset="0.7326" style="stop-color:#6E246D"/>
					<stop  offset="1" style="stop-color:#4C246D"/>
				</linearGradient>
				<path style="fill:url(#SVGID_00000101810744735461041580000009025040070212799136_);" d="M504.364,439.806
					c-28.335,101.939-162.54,694.42,455.76,967.904c19.175,8.481,41.682-1.3,47.85-20.774
					c33.61-106.113,77.232-447.733-485.801-950.375C516.174,431.205,506.248,433.028,504.364,439.806z"/>
				
					<linearGradient id="SVGID_00000108298927973196503500000004321222696420409496_" gradientUnits="userSpaceOnUse" x1="555.1179" y1="955.342" x2="911.8164" y2="955.342">
					<stop  offset="0" style="stop-color:#B37CFF"/>
					<stop  offset="1" style="stop-color:#F895E7"/>
				</linearGradient>
				<path style="opacity:0.6;fill:url(#SVGID_00000108298927973196503500000004321222696420409496_);" d="M555.137,544.043
					c5.662,37.159,12.969,73.982,20.945,110.692c8.078,36.682,17.038,73.185,26.88,109.467
					c19.604,72.586,43.03,144.225,70.339,214.494c13.844,35.066,28.725,69.754,44.698,103.986
					c16.247,34.113,33.681,67.701,52.439,100.621c19.118,32.725,39.546,64.75,61.709,95.684
					c22.502,30.703,46.677,60.276,72.818,88.244c1.455,1.557,3.942,1.68,5.554,0.276c1.612-1.405,1.74-3.806,0.285-5.363
					l-0.013-0.014l-0.041-0.044c-26.016-27.568-50.138-56.776-72.63-87.149c-22.158-30.61-42.626-62.346-61.808-94.809
					c-18.826-32.663-36.353-66.021-52.709-99.926c-16.083-34.027-31.09-68.53-45.07-103.43
					c-27.582-69.939-51.321-141.312-71.254-213.672c-10.007-36.169-19.136-72.569-27.385-109.154
					c-8.144-36.593-15.633-73.381-21.457-110.347l-0.005-0.032c-0.138-0.879-0.988-1.482-1.897-1.348
					C555.625,542.351,554.999,543.164,555.137,544.043z"/>
			</g>
			<g>
				
					<linearGradient id="SVGID_00000173137772890828722260000008360270258938665626_" gradientUnits="userSpaceOnUse" x1="1210.1519" y1="1700.9021" x2="743.7034" y2="481.8401">
					<stop  offset="0" style="stop-color:#A737D5"/>
					<stop  offset="1" style="stop-color:#EF497A"/>
				</linearGradient>
				<path style="fill:url(#SVGID_00000173137772890828722260000008360270258938665626_);" d="M831.118,404.955
					c-53.382,91.624-334.149,628.92,197.642,978.462c16.465,10.823,38.816,6.151,49.388-10.323
					c58.754-91.552,193.927-406.783-228.92-968.525C844.764,398.638,834.666,398.866,831.118,404.955z"/>
				
					<linearGradient id="SVGID_00000002371580559691993940000003377674169697812653_" gradientUnits="userSpaceOnUse" x1="843.3322" y1="928.6445" x2="1019.7278" y2="928.6445">
					<stop  offset="0" style="stop-color:#B37CFF"/>
					<stop  offset="1" style="stop-color:#F895E7"/>
				</linearGradient>
				<path style="opacity:0.6;fill:url(#SVGID_00000002371580559691993940000003377674169697812653_);" d="M854.329,510.403
					c-2.278,18.007-3.932,36.028-5.391,54.084c-1.434,18.053-2.561,36.128-3.435,54.214c-1.757,36.173-2.425,72.397-2.087,108.613
					c0.762,72.422,5.598,144.874,16.041,216.636c10.476,71.709,26.462,142.862,50.988,211.355
					c12.25,34.227,26.746,67.723,43.872,99.921c8.632,16.058,17.772,31.871,27.776,47.163c10.022,15.277,20.719,30.131,32.124,44.46
					c1.05,1.319,2.987,1.55,4.327,0.517c1.34-1.033,1.576-2.939,0.526-4.258l-0.008-0.009l-0.018-0.022
					c-11.33-14.119-21.972-28.77-31.956-43.854c-9.966-15.1-19.087-30.732-27.711-46.621
					c-17.112-31.859-31.646-65.062-43.962-99.036c-24.661-67.988-40.884-138.793-51.618-210.237
					c-10.704-71.498-15.828-143.771-16.884-216.056c-0.486-36.148,0.033-72.314,1.64-108.436c0.798-18.061,1.85-36.111,3.208-54.139
					c1.38-18.019,2.963-36.052,5.155-53.964l0.002-0.02c0.086-0.705-0.424-1.344-1.14-1.429
					C855.065,509.201,854.416,509.699,854.329,510.403z"/>
			</g>
			<g>
				
					<linearGradient id="SVGID_00000030477375759945342290000016888450893724204693_" gradientUnits="userSpaceOnUse" x1="9179.1484" y1="-122.1903" x2="9495.4482" y2="-122.1903" gradientTransform="matrix(-0.894 0.4482 0.4482 0.894 8858.0693 -3002.6509)">
					<stop  offset="0" style="stop-color:#CB236D"/>
					<stop  offset="1" style="stop-color:#4C246D"/>
				</linearGradient>
				<path style="fill:url(#SVGID_00000030477375759945342290000016888450893724204693_);" d="M182.344,823.286
					c-1.537-5.686,5.585-9.662,9.6-5.352c38.81,41.672,144,147.757,239.992,183.325c156.297,57.912,314.414,201.318,297.944,326.345
					C729.881,1327.604,349.833,1442.823,182.344,823.286z"/>
				
					<linearGradient id="SVGID_00000093861931202131365080000016628803069994984581_" gradientUnits="userSpaceOnUse" x1="227.4387" y1="1085.1537" x2="678.9333" y2="1085.1537">
					<stop  offset="0" style="stop-color:#B37CFF"/>
					<stop  offset="1" style="stop-color:#F895E7"/>
				</linearGradient>
				<path style="opacity:0.6;fill:url(#SVGID_00000093861931202131365080000016628803069994984581_);" d="M229.82,886.854
					c0.741,1.064,1.768,2.39,2.692,3.614l2.89,3.71l5.87,7.364l11.883,14.625c7.998,9.69,16.117,19.28,24.322,28.795
					c16.372,19.06,33.059,37.847,50.126,56.277c34.219,36.773,69.359,72.703,106.375,106.618
					c18.578,16.869,37.21,33.687,56.533,49.691c19.318,16,39.011,31.552,59.28,46.317c40.422,29.667,83.104,56.345,128.431,77.997
					c0.616,0.287,0.883,1.02,0.596,1.636c-0.279,0.598-0.991,0.861-1.595,0.614c-23.24-9.819-45.72-21.385-67.666-33.859
					c-21.848-12.661-42.933-26.576-63.63-41.024c-41.059-29.38-80.005-61.627-116.999-95.907
					c-18.53-17.111-36.487-34.821-54.181-52.773c-17.684-17.965-34.978-36.311-51.721-55.148
					c-16.773-18.807-33.273-37.855-49.226-57.356c-7.955-9.769-15.819-19.61-23.56-29.547c-3.852-4.983-7.707-9.964-11.481-15.01
					l-5.608-7.612l-2.765-3.841c-0.912-1.329-1.8-2.5-2.767-4.079c-0.352-0.574-0.172-1.325,0.403-1.677
					c0.553-0.339,1.269-0.185,1.636,0.34L229.82,886.854z"/>
			</g>
			<g>
				
					<linearGradient id="SVGID_00000040540502053977025680000009816375773676377271_" gradientUnits="userSpaceOnUse" x1="8565.1543" y1="-1247.6854" x2="8682.7803" y2="-1247.6854" gradientTransform="matrix(-0.1213 0.9926 0.9926 0.1213 2926.6392 -7033.8496)">
					<stop  offset="0" style="stop-color:#A737D5"/>
					<stop  offset="1" style="stop-color:#EF497A"/>
				</linearGradient>
				<path style="fill:url(#SVGID_00000040540502053977025680000009816375773676377271_);" d="M1090.766,1407.915
					c0,0-71.983-52.574-234.588-65.249c-150.869-11.76-512.195-33.411-644.683-75.927c-5.869-1.884-11.967,2.212-7.941,5.347
					c43.183,33.633,162.614,112.877,369.91,151.646C840.784,1473.727,1090.766,1407.915,1090.766,1407.915z"/>
				
					<linearGradient id="SVGID_00000139993797154201195980000017123297817797481389_" gradientUnits="userSpaceOnUse" x1="323.093" y1="1354.3722" x2="1054.3342" y2="1354.3722">
					<stop  offset="0" style="stop-color:#B37CFF"/>
					<stop  offset="1" style="stop-color:#F895E7"/>
				</linearGradient>
				<path style="opacity:0.6;fill:url(#SVGID_00000139993797154201195980000017123297817797481389_);" d="M323.535,1304.81
					c12.024,6.032,25.122,11.261,38.555,16.085c6.608,2.51,13.595,4.675,20.359,7.016c7.012,2.107,13.904,4.322,20.964,6.348
					c7.139,1.939,14.114,4.054,21.358,5.842c7.255,1.773,14.446,3.615,21.725,5.331l22.027,4.866
					c7.417,1.498,14.921,2.856,22.366,4.29c29.943,5.459,60.405,9.951,91.317,13.083c15.361,1.861,30.958,2.929,46.499,4.162
					c15.504,1.274,31.354,2.098,47.015,3.169c31.443,1.856,62.911,3.554,94.427,5.07c31.517,1.495,63.07,2.823,94.67,4.203
					c15.803,0.671,31.611,1.347,47.43,2.182c7.906,0.379,15.818,0.809,23.732,1.269c7.912,0.404,15.824,0.944,23.725,1.533
					c31.5,2.342,63.495,5.236,93.318,12.338c1.075,0.256,1.593,0.976,1.157,1.607c-0.414,0.598-1.535,0.902-2.566,0.715
					l-0.059-0.011c-14.983-2.748-30.36-4.565-45.862-5.994c-15.565-1.265-31.214-2.2-46.959-2.788
					c-31.454-1.315-63.084-1.949-94.729-2.862l-47.506-1.332c-15.837-0.563-31.677-1.079-47.513-1.745
					c-31.687-1.164-63.321-2.892-94.928-4.74c-31.488-1.944-63.362-4.055-94.742-7.83c-7.832-0.964-15.741-1.7-23.503-2.852
					l-23.256-3.51c-7.792-1.068-15.37-2.622-23.034-3.97c-7.627-1.424-15.348-2.663-22.799-4.403
					c-30.216-6.194-59.478-14.001-87.254-23.275c-6.985-2.273-13.671-4.863-20.493-7.283c-6.57-2.674-13.356-5.134-19.696-7.988
					c-12.862-5.524-25.218-11.5-36.117-18.315c-0.098-0.061-0.093-0.158,0.012-0.215
					C323.272,1304.754,323.436,1304.761,323.535,1304.81z"/>
			</g>
		</g>
		<g>
			<g>
				<g>
					<g>
						<path style="fill:#FFFFFF;" d="M1747.643,753.05c5.071,6.524,44.496,32.007-2.476,68.805
							c-2.319,4.081,3.372,15.057,7.68,13.841c67.246-42.618,7.685-100.875,0.734-95.624
							C1746.629,745.323,1741.744,745.463,1747.643,753.05z"/>
					</g>
					<g>
						<path style="fill:#FFFFFF;" d="M1771.011,863.526c0.681,8.427,6.121,16.523,13.545,14.429
							c7.315-2.063,103.758-78.76,1.525-171.765c-1.255-1.141-2.913-1.734-4.606-1.648c-1.694,0.086-3.283,0.845-4.415,2.108
							c-3.529,3.938-5.926,7.316-5.535,11.824C1861.123,803.436,1770.33,855.099,1771.011,863.526z"/>
					</g>
					<g>
						<path style="fill:#FFFFFF;" d="M1797.453,906.222c-1.409,5.917,2.631,18.264,12.538,15.47
							c158.458-135.413,2.25-266.751-4.399-262.38c-6.65,4.37-7.23,13.698-5.178,17.535
							C1940.313,794.277,1798.862,900.305,1797.453,906.222z"/>
					</g>
				</g>
			</g>
			<g>
				<g>
					
						<linearGradient id="SVGID_00000134960230158908259810000011742600522033710524_" gradientUnits="userSpaceOnUse" x1="1040.3853" y1="991.1018" x2="1707.2711" y2="991.1018">
						<stop  offset="0" style="stop-color:#2B3582"/>
						<stop  offset="1" style="stop-color:#150E42"/>
					</linearGradient>
					<path style="fill:url(#SVGID_00000134960230158908259810000011742600522033710524_);" d="M1099.441,495.105
						c-25.898,1.681-46.192,22.894-46.835,48.839c-3.933,158.664-16.69,705.954-10.6,899.897
						c0.645,20.547,17.116,37.038,37.662,37.71c101.619,3.326,393.95,11.754,560.165,4.781c34.62-1.453,62.151-29.495,62.869-64.138
						c3.454-166.538,11.074-634.945-7.039-849.523c-2.17-25.71-22.349-46.183-48.022-48.752
						C1536.973,512.848,1243.04,485.787,1099.441,495.105z"/>
					
						<linearGradient id="SVGID_00000170240893646161594850000006977779334519598251_" gradientUnits="userSpaceOnUse" x1="1542.0309" y1="738.1891" x2="197.6831" y2="2457.9414">
						<stop  offset="0" style="stop-color:#FDF53F"/>
						<stop  offset="0.6645" style="stop-color:#E57A58"/>
						<stop  offset="1" style="stop-color:#D93C65"/>
					</linearGradient>
					<path style="fill:url(#SVGID_00000170240893646161594850000006977779334519598251_);" d="M1093.897,593.244
						c-5.55,129.944-23.057,562.238-17.5,722.092c0.812,23.365,19.227,42.257,42.566,43.623
						c96.094,5.623,342.565,18.023,483.511,6.736c25.38-2.032,45.296-22.557,46.665-47.981
						c7.143-132.571,27.651-535.097,22.325-693.159c-0.85-25.215-20.382-45.808-45.511-48.064
						c-103.958-9.334-370.957-31.543-490.729-25.008C1112.74,552.709,1094.857,570.747,1093.897,593.244z"/>
					<path style="opacity:0.29;fill:#FFFFFF;" d="M1134.118,618.984c-4.753,122.219-19.744,528.812-14.986,679.162
						c0.695,21.976,16.465,39.745,36.45,41.029c82.287,5.289,293.344,16.951,414.039,6.336c21.733-1.911,38.787-21.216,39.96-45.129
						c6.116-124.689,23.678-503.284,19.117-651.949c-0.728-23.716-17.453-43.085-38.972-45.207
						c-89.021-8.779-317.657-29.667-420.219-23.521C1150.254,580.86,1134.941,597.826,1134.118,618.984z"/>
					
						<linearGradient id="SVGID_00000071546422548212669310000004818552285944278407_" gradientUnits="userSpaceOnUse" x1="1286.9126" y1="395.391" x2="1550.9133" y2="791.3915">
						<stop  offset="0" style="stop-color:#53D8FF"/>
						<stop  offset="1" style="stop-color:#3840F7"/>
					</linearGradient>
					<path style="fill:url(#SVGID_00000071546422548212669310000004818552285944278407_);" d="M1303.747,522.829L1303.747,522.829
						c0,4.869,3.794,8.884,8.656,9.138c24.002,1.257,91.616,4.813,121.833,6.567c5.958,0.346,10.634-5.01,9.504-10.87l-0.193-1
						c-0.771-3.999-4.087-7.008-8.143-7.38c-20.426-1.872-82.058-7.061-122.894-5.604
						C1307.605,513.856,1303.747,517.921,1303.747,522.829z"/>
				</g>
				<g>
					<g>
						
							<linearGradient id="SVGID_00000167370793767866769880000000415664271318846138_" gradientUnits="userSpaceOnUse" x1="686.4468" y1="1976.9374" x2="1883.5887" y2="466.9045">
							<stop  offset="0" style="stop-color:#53D8FF"/>
							<stop  offset="1" style="stop-color:#3840F7"/>
						</linearGradient>
						<path style="fill:url(#SVGID_00000167370793767866769880000000415664271318846138_);" d="M1561.073,1330.936h-399.243
							c-8.263,0-14.962-6.699-14.962-14.962V929.936h429.004v386.202C1575.871,1324.311,1569.245,1330.936,1561.073,1330.936z"/>
						
							<linearGradient id="SVGID_00000101799675002916624010000015862798598664860059_" gradientUnits="userSpaceOnUse" x1="639.1641" y1="1871.3132" x2="1790.8229" y2="418.6513">
							<stop  offset="0" style="stop-color:#53D8FF"/>
							<stop  offset="1" style="stop-color:#3840F7"/>
						</linearGradient>
						<path style="fill:url(#SVGID_00000101799675002916624010000015862798598664860059_);" d="M1090.583,944.339l278.022-314.91
							c7.912-8.962,22.032-8.488,29.326,0.983l243.716,316.493c7.263,9.432,0.539,23.096-11.365,23.096h-528.123
							C1088.859,970.002,1081.78,954.309,1090.583,944.339z"/>
					</g>
					<g>
						<g>
							<circle style="fill:#FFFFFF;" cx="1365.972" cy="1130.436" r="178.591"/>
							
								<linearGradient id="SVGID_00000115486703155538874510000002288916179763283079_" gradientUnits="userSpaceOnUse" x1="1489.1554" y1="993.4445" x2="1242.7888" y2="1267.4275">
								<stop  offset="0" style="stop-color:#FDF53F"/>
								<stop  offset="1" style="stop-color:#D93C65"/>
							</linearGradient>
							<path style="fill:url(#SVGID_00000115486703155538874510000002288916179763283079_);" d="M1365.972,1314.75
								c-101.631,0-184.314-82.683-184.314-184.314s82.683-184.314,184.314-184.314s184.314,82.683,184.314,184.314
								S1467.604,1314.75,1365.972,1314.75z M1365.972,957.567c-95.32,0-172.869,77.549-172.869,172.869
								s77.549,172.869,172.869,172.869s172.869-77.549,172.869-172.869S1461.292,957.567,1365.972,957.567z"/>
						</g>
						
							<linearGradient id="SVGID_00000049926538182616854560000018307687665666406834_" gradientUnits="userSpaceOnUse" x1="1403.8922" y1="671.1016" x2="1368.6141" y2="1145.3988">
							<stop  offset="0" style="stop-color:#FDF53F"/>
							<stop  offset="1" style="stop-color:#D93C65"/>
						</linearGradient>
						<path style="fill:url(#SVGID_00000049926538182616854560000018307687665666406834_);" d="M1382.613,1258.057
							c73.739-13.991,103.265-47.654,98.869-96.407c-4.045,18.1-15.946,25.183-32.977,25.074
							c20.935-27.953,28.934-53.229,24.63-75.958l-4.714,3.821c0.158-14.042,1.66-27.055,5.916-37.957
							c-20.72-0.218-37.029,9.883-51.8,23.578c8.952-29.612-58.706-70.984-7.936-101.468c-24.829-2.378-51.276,6.541-78.798,22.949
							l6.976-11.403c-29.156,15.236-37.122,46.667-35.088,85.742c-21.631,1.757-28.38-10.471-25.645-31.612
							c-13.829,9.345-19.641,24.2-18.641,43.738l-6.743-6.84c-4.489,31.524,8.066,60.255,31.61,82.85
							c-15.741,5.278-27.334-3.828-33.317-17.163c-1.784,56.193,38.956,85.535,113.722,93.393c0.37-0.054,0.73-0.112,1.098-0.167
							c-0.481,0.014-0.962,0.03-1.448,0.03c-26.225-1.069-76.896-48.089-61.214-115.265c3.008,15.859,12.186,12.578,21.671,27.954
							c3.518-64.996,46.205-60.856,39.152-93.837c20.35,33.133,33.736,58.913,26.065,90.435
							c15.388-25.712,29.057-11.974,37.945-28.663C1436.626,1195.326,1417.498,1246.956,1382.613,1258.057z"/>
					</g>
				</g>
			</g>
			<g>
				<g>
					<g>
						
							<linearGradient id="SVGID_00000006686708368892823020000012167685763765623443_" gradientUnits="userSpaceOnUse" x1="1139.0992" y1="480.9437" x2="1296.0356" y2="480.9437">
							<stop  offset="0" style="stop-color:#53D8FF"/>
							<stop  offset="1" style="stop-color:#3840F7"/>
						</linearGradient>
						
							<circle style="fill:url(#SVGID_00000006686708368892823020000012167685763765623443_);" cx="1217.568" cy="480.944" r="78.468"/>
						
							<linearGradient id="SVGID_00000124154292134533223360000004629305738005822112_" gradientUnits="userSpaceOnUse" x1="1138.9562" y1="562.3193" x2="1296.0438" y2="562.3193">
							<stop  offset="0" style="stop-color:#53D8FF"/>
							<stop  offset="1" style="stop-color:#3840F7"/>
						</linearGradient>
						<path style="fill:url(#SVGID_00000124154292134533223360000004629305738005822112_);" d="M1295.893,476.737h-78.325h-78.468
							c0,0-6.247,43.553,63.785,162.847c3.055,5.205,8.638,8.315,14.674,8.318c6.035,0.003,11.628-3.055,14.683-8.26
							C1302.266,520.337,1295.893,476.737,1295.893,476.737z"/>
					</g>
					<g>
						
							<linearGradient id="SVGID_00000103970364687931562080000018033297211524457902_" gradientUnits="userSpaceOnUse" x1="1188.1606" y1="376.7669" x2="1270.5267" y2="672.1073">
							<stop  offset="0" style="stop-color:#53D8FF"/>
							<stop  offset="1" style="stop-color:#3840F7"/>
						</linearGradient>
						<path style="fill:url(#SVGID_00000103970364687931562080000018033297211524457902_);" d="M1217.532,650.448v0.442h0.024
							c-6.83,0-13.205-3.758-16.637-9.604c-40.936-69.731-55.936-113.822-61.309-138.493c-1.532-5.675-2.412-11.239-2.69-16.943
							c-0.474-5.835-0.111-8.293-0.069-8.553l0.206-1.255c3.162-42.15,38.242-74.954,80.51-74.954
							c42.823,0,78.22,33.268,80.613,75.754c0.06,0.556,0.175,1.967,0.13,4.325l0.004,0.289c0,7.707-1.089,15.341-3.236,22.69
							c-5.559,24.65-20.651,68.305-60.889,136.861C1230.735,646.891,1224.593,650.448,1217.532,650.448z M1141.241,480.267
							c-0.019,1.177,0.017,2.857,0.224,5.387l0.005-0.008c0.261,5.404,1.096,10.607,2.554,15.993l0.027,0.09
							c5.293,24.337,20.137,67.876,60.799,137.139c2.618,4.459,7.471,7.225,12.693,7.228l-0.01,2.273v-2.278
							c4.707,0,10.088-2.793,12.727-7.29c39.98-68.116,54.906-111.405,60.381-135.725l0.041-0.141
							c2.039-6.954,2.619-14.181,2.619-21.478l-0.458-0.321v-0.026c0-2.271,0.385-3.5,0.348-3.822l0.217-0.132
							c-2.228-40.102-35.526-71.516-75.953-71.516c-40.349,0-73.701,31.857-76.002,72.311l-0.065,2.317H1141.241z"/>
					</g>
					
						<ellipse transform="matrix(0.7071 -0.7071 0.7071 0.7071 16.7919 1001.9202)" style="opacity:0.8;fill:#FFFFFF;" cx="1217.821" cy="480.69" rx="45.309" ry="45.309"/>
					<g>
						
							<linearGradient id="SVGID_00000171708154358266728530000003439393295684924846_" gradientUnits="userSpaceOnUse" x1="1169.9803" y1="480.6905" x2="1265.661" y2="480.6905">
							<stop  offset="0" style="stop-color:#53D8FF"/>
							<stop  offset="1" style="stop-color:#3840F7"/>
						</linearGradient>
						<path style="fill:url(#SVGID_00000171708154358266728530000003439393295684924846_);" d="M1217.821,528.531
							c-26.379,0-47.84-21.461-47.84-47.84c0-26.379,21.461-47.84,47.84-47.84c26.379,0,47.84,21.461,47.84,47.84
							C1265.661,507.07,1244.2,528.531,1217.821,528.531z M1217.821,437.913c-23.588,0-42.778,19.19-42.778,42.778
							c0,23.588,19.19,42.778,42.778,42.778c23.588,0,42.778-19.19,42.778-42.778
							C1260.599,457.103,1241.408,437.913,1217.821,437.913z"/>
					</g>
				</g>
				<g>
					<path style="fill:#FFFFFF;" d="M1174.84,433.517c-0.214,0-0.426-0.09-0.576-0.265c-0.273-0.318-0.237-0.797,0.082-1.071
						c12.728-10.931,28.991-16.952,45.791-16.952c0.42,0,0.759,0.34,0.759,0.759s-0.34,0.759-0.759,0.759
						c-16.438,0-32.348,5.89-44.802,16.585C1175.192,433.456,1175.016,433.517,1174.84,433.517z"/>
				</g>
				<g>
					<path style="fill:#FFFFFF;" d="M1150.578,486.307c-0.42,0-0.759-0.34-0.759-0.759c0-13.121,3.637-25.92,10.519-37.015
						c0.221-0.357,0.689-0.466,1.046-0.245c0.356,0.221,0.466,0.689,0.245,1.046c-6.733,10.854-10.291,23.376-10.291,36.214
						C1151.337,485.967,1150.998,486.307,1150.578,486.307z"/>
				</g>
			</g>
		</g>
		<g>
			
				<linearGradient id="SVGID_00000023270333574074392950000000261010491465665184_" gradientUnits="userSpaceOnUse" x1="599.7722" y1="650.0931" x2="458.5958" y2="828.6399" gradientTransform="matrix(0.986 0.1665 -0.1665 0.986 112.8554 659.22)">
				<stop  offset="0" style="stop-color:#FDF53F"/>
				<stop  offset="1" style="stop-color:#D93C65"/>
			</linearGradient>
			<path style="fill:url(#SVGID_00000023270333574074392950000000261010491465665184_);" d="M584.725,1256.73
				c-1.397,107.515,21.844,181.191,125.167,194.008l2.582-15.289c-87.881-9.505-111.611-75.357-114.139-184.494L584.725,1256.73z"/>
			
				<linearGradient id="SVGID_00000011031733695142461060000008328241766792082316_" gradientUnits="userSpaceOnUse" x1="594.9478" y1="1256.4091" x2="512.027" y2="1361.2797">
				<stop  offset="0" style="stop-color:#FDF53F"/>
				<stop  offset="1" style="stop-color:#D93C65"/>
			</linearGradient>
			<circle style="fill:url(#SVGID_00000011031733695142461060000008328241766792082316_);" cx="593.769" cy="1257.9" r="26.009"/>
			
				<linearGradient id="SVGID_00000042723976925892278170000014127668320839866283_" gradientUnits="userSpaceOnUse" x1="1265.9714" y1="1422.6536" x2="421.8173" y2="1418.428">
				<stop  offset="0" style="stop-color:#FDF53F"/>
				<stop  offset="1" style="stop-color:#D93C65"/>
			</linearGradient>
			<path style="fill:url(#SVGID_00000042723976925892278170000014127668320839866283_);" d="M891.173,1476.88H707.55
				c-6.295,0-11.445-5.15-11.445-11.445v-90.234c0-6.295,5.15-11.445,11.445-11.445h183.623c6.295,0,11.445,5.15,11.445,11.445
				v90.234C902.619,1471.73,897.468,1476.88,891.173,1476.88z"/>
			
				<linearGradient id="SVGID_00000040563882902613016000000013928423538744768955_" gradientUnits="userSpaceOnUse" x1="860.7917" y1="1261.2063" x2="1817.4738" y2="1323.8026">
				<stop  offset="0" style="stop-color:#FDF53F"/>
				<stop  offset="1" style="stop-color:#D93C65"/>
			</linearGradient>
			<circle style="fill:url(#SVGID_00000040563882902613016000000013928423538744768955_);" cx="800.149" cy="1257.238" r="163.08"/>
			<g>
				<path style="fill:#FFFFFF;" d="M938.69,1387.415c-0.496,0-0.991-0.192-1.365-0.575c-0.736-0.754-0.721-1.962,0.033-2.698
					c34.488-33.655,53.482-78.724,53.482-126.904c0-46.05-17.572-89.688-49.48-122.872c-0.731-0.76-0.707-1.967,0.053-2.697
					s1.966-0.707,2.697,0.053c32.595,33.899,50.546,78.475,50.546,125.517c0,49.216-19.402,95.255-54.633,129.634
					C939.652,1387.234,939.171,1387.415,938.69,1387.415z"/>
				<path style="fill:#FFFFFF;" d="M613.227,1223.414c-0.125,0-0.253-0.012-0.38-0.038c-1.033-0.209-1.7-1.215-1.491-2.248
					c8.412-41.573,31.426-79.101,64.804-105.669c0.825-0.656,2.024-0.519,2.681,0.305c0.656,0.824,0.52,2.024-0.305,2.681
					c-32.676,26.01-55.206,62.746-63.441,103.441C614.912,1222.789,614.116,1223.414,613.227,1223.414z"/>
				<path style="fill:#FFFFFF;" d="M676.264,1398.564c-0.421,0-0.845-0.139-1.199-0.424c-31.741-25.668-54.097-61.616-62.95-101.222
					c-0.229-1.028,0.418-2.048,1.446-2.278c1.025-0.228,2.048,0.417,2.278,1.446c8.665,38.769,30.551,73.958,61.625,99.087
					c0.819,0.663,0.946,1.864,0.284,2.683C677.371,1398.322,676.82,1398.564,676.264,1398.564z"/>
				<path style="fill:#FFFFFF;" d="M923.727,1380.568c-0.503,0-1.004-0.197-1.379-0.589c-0.728-0.761-0.701-1.969,0.06-2.697
					c33.188-31.734,51.465-74.492,51.465-120.396c0-51.568-23.317-99.398-63.972-131.226c-0.83-0.649-0.976-1.848-0.326-2.678
					c0.649-0.829,1.848-0.976,2.678-0.326c41.585,32.556,65.436,81.481,65.436,134.23c0,46.956-18.696,90.692-52.644,123.154
					C924.675,1380.392,924.201,1380.568,923.727,1380.568z"/>
				<path style="fill:#FFFFFF;" d="M688.021,1389.683c-0.422,0-0.848-0.14-1.201-0.426c-40.103-32.538-63.104-80.786-63.104-132.371
					c0-30.106,7.959-59.696,23.016-85.57c14.611-25.107,35.54-46.217,60.524-61.045c0.905-0.538,2.076-0.239,2.614,0.667
					c0.538,0.906,0.239,2.076-0.667,2.614c-24.427,14.498-44.889,35.136-59.174,59.683c-14.718,25.292-22.498,54.218-22.498,83.651
					c0,50.431,22.486,97.598,61.691,129.408c0.818,0.664,0.943,1.865,0.28,2.683
					C689.126,1389.441,688.575,1389.683,688.021,1389.683z"/>
				<path style="fill:#FFFFFF;" d="M646.511,1389.682c-0.518,0-1.033-0.209-1.41-0.622c-19.083-20.915-33.127-45.116-41.741-71.932
					c-0.322-1.003,0.23-2.078,1.233-2.4c1.003-0.321,2.078,0.229,2.4,1.233c8.445,26.292,22.215,50.021,40.927,70.528
					c0.71,0.778,0.655,1.985-0.124,2.695C647.431,1389.517,646.97,1389.682,646.511,1389.682z"/>
				<path style="fill:#FFFFFF;" d="M971.548,1372.359c-0.387,0-0.777-0.117-1.115-0.361c-0.854-0.616-1.047-1.809-0.431-2.663
					c23.647-32.781,36.145-71.543,36.145-112.097c0-37.628-10.889-74.056-31.491-105.347c-0.579-0.88-0.335-2.063,0.544-2.642
					c0.879-0.58,2.063-0.336,2.642,0.544c21.013,31.915,32.12,69.068,32.12,107.444c0,41.36-12.748,80.895-36.867,114.33
					C972.724,1372.084,972.14,1372.359,971.548,1372.359z"/>
				<path style="fill:#FFFFFF;" d="M598.743,1226.086c-0.107,0-0.216-0.009-0.326-0.028c-1.038-0.178-1.735-1.165-1.557-2.203
					c6.526-37.956,24.033-72.885,50.629-101.01c0.725-0.765,1.931-0.799,2.697-0.076c0.766,0.724,0.799,1.932,0.076,2.697
					c-26.078,27.577-43.243,61.823-49.642,99.035C600.46,1225.431,599.654,1226.086,598.743,1226.086z"/>
			</g>
			
				<linearGradient id="SVGID_00000163757570547862038500000003783412000366532753_" gradientUnits="userSpaceOnUse" x1="364.0735" y1="1228.8813" x2="1222.8322" y2="1285.0707">
				<stop  offset="0" style="stop-color:#FDF53F"/>
				<stop  offset="1" style="stop-color:#D93C65"/>
			</linearGradient>
			
				<circle style="fill:url(#SVGID_00000163757570547862038500000003783412000366532753_);" cx="800.149" cy="1257.414" r="146.387"/>
			
				<linearGradient id="SVGID_00000159459905023181898950000002370467315112330918_" gradientUnits="userSpaceOnUse" x1="699.5574" y1="1251.3695" x2="1143.6422" y2="1280.4263">
				<stop  offset="0" style="stop-color:#FDF53F"/>
				<stop  offset="1" style="stop-color:#D93C65"/>
			</linearGradient>
			<circle style="fill:url(#SVGID_00000159459905023181898950000002370467315112330918_);" cx="799.362" cy="1257.9" r="75.7"/>
			
				<linearGradient id="SVGID_00000099621940695006930800000005920180405713854632_" gradientUnits="userSpaceOnUse" x1="754.0989" y1="1254.5383" x2="1152.2168" y2="1280.5875">
				<stop  offset="0" style="stop-color:#FDF53F"/>
				<stop  offset="1" style="stop-color:#D93C65"/>
			</linearGradient>
			<circle style="fill:url(#SVGID_00000099621940695006930800000005920180405713854632_);" cx="799.362" cy="1257.5" r="67.865"/>
			<g>
				
					<linearGradient id="SVGID_00000070107621410788026660000008749866273797136525_" gradientUnits="userSpaceOnUse" x1="749.6387" y1="1253.9333" x2="888.9657" y2="1263.0497">
					<stop  offset="0" style="stop-color:#53D8FF"/>
					<stop  offset="1" style="stop-color:#3840F7"/>
				</linearGradient>
				<circle style="fill:url(#SVGID_00000070107621410788026660000008749866273797136525_);" cx="800.149" cy="1257.238" r="23.75"/>
				
					<linearGradient id="SVGID_00000179627909723295578080000005167764655764553857_" gradientUnits="userSpaceOnUse" x1="789.6189" y1="1256.5493" x2="882.2401" y2="1262.6096">
					<stop  offset="0" style="stop-color:#53D8FF"/>
					<stop  offset="1" style="stop-color:#3840F7"/>
				</linearGradient>
				
					<circle style="fill:url(#SVGID_00000179627909723295578080000005167764655764553857_);" cx="800.149" cy="1257.238" r="15.789"/>
			</g>
		</g>
		<g>
			<g>
				
					<linearGradient id="SVGID_00000062902201564010272120000005022768926579043511_" gradientUnits="userSpaceOnUse" x1="-1686.7111" y1="932.3586" x2="-1656.0214" y2="1020.0435" gradientTransform="matrix(1 0 0 1 3367.5027 0)">
					<stop  offset="0" style="stop-color:#F9B776"/>
					<stop  offset="1" style="stop-color:#F47960"/>
				</linearGradient>
				<path style="fill:url(#SVGID_00000062902201564010272120000005022768926579043511_);" d="M1694.415,979.394
					c-0.472,1.501,4.997,3.788,8.217-2.353c0.113-2.943,1.902-15.551,0.144-17.948c-9.366-12.769-27.525-28.776-27.525-28.776
					c-3.069,3.028-0.541,6.003-0.541,6.003l8.809,9.177c-1.843,3.33-4.09,6.14-5.143,10.168c-0.798,3.05-0.31,6.309,1.231,9.085
					c1.546,2.786,3.656,6.407,5.651,9.241C1689.032,979.353,1694.415,979.394,1694.415,979.394z"/>
				
					<linearGradient id="SVGID_00000042722104823367086650000006405530628353880462_" gradientUnits="userSpaceOnUse" x1="-1663.1348" y1="988.3804" x2="-1686.2518" y2="941.7477" gradientTransform="matrix(1 0 0 1 3367.5027 0)">
					<stop  offset="0" style="stop-color:#F9B776"/>
					<stop  offset="1" style="stop-color:#F47960"/>
				</linearGradient>
				<path style="fill:url(#SVGID_00000042722104823367086650000006405530628353880462_);" d="M1687.373,951.45l8.027,6.805
					l2.52,6.775l-7.157,7.94c0,0-2.406-13.444-4.195-16.353C1684.78,953.708,1685.707,952.301,1687.373,951.45z"/>
			</g>
			<g>
				
					<linearGradient id="SVGID_00000026137300346509585720000001575086159823895989_" gradientUnits="userSpaceOnUse" x1="5316.5864" y1="1464.6869" x2="5120.7607" y2="1677.6908" gradientTransform="matrix(-1 0 0 1 7106.7852 0)">
					<stop  offset="0" style="stop-color:#2B3582"/>
					<stop  offset="1" style="stop-color:#150E42"/>
				</linearGradient>
				<path style="fill:url(#SVGID_00000026137300346509585720000001575086159823895989_);" d="M1852.099,1480.554
					c0,0,2.028,11.481,3.022,22.846c0.389,4.441-3.035,8.298-7.49,8.484c-15.135,0.63-47.509,1.856-59.125,1.337
					c-1.747-0.078-2.888-1.866-2.242-3.49l0,0c0.542-1.361,1.586-2.462,2.917-3.073l53.475-24.577L1852.099,1480.554z"/>
				
					<linearGradient id="SVGID_00000016059135079738661930000012375663729208475533_" gradientUnits="userSpaceOnUse" x1="5253.0244" y1="1480.507" x2="5270.4185" y2="1480.507" gradientTransform="matrix(-1 0 0 1 7106.7852 0)">
					<stop  offset="0" style="stop-color:#F9B776"/>
					<stop  offset="1" style="stop-color:#F47960"/>
				</linearGradient>
				<path style="fill:url(#SVGID_00000016059135079738661930000012375663729208475533_);" d="M1853.761,1473.809l-1.629,13.733
					c0,0-9.368,4.361-15.765-0.55l3.879-15.304L1853.761,1473.809z"/>
				
					<linearGradient id="SVGID_00000139293916751408201110000017026832227462676927_" gradientUnits="userSpaceOnUse" x1="5332.0059" y1="1223.8024" x2="5165.3765" y2="1449.6466" gradientTransform="matrix(-1 0 0 1 7106.7852 0)">
					<stop  offset="0" style="stop-color:#2B3582"/>
					<stop  offset="1" style="stop-color:#150E42"/>
				</linearGradient>
				<path style="fill:url(#SVGID_00000139293916751408201110000017026832227462676927_);" d="M1852.536,1215.628
					c0.704,3.586,3.778,178.961-14.968,257.553c-0.306,1.282,0.344,2.604,1.565,3.103c2.875,1.175,8.512,2.876,15.267,3.103
					c2.092,0.07,3.968-1.289,4.558-3.297c5.359-18.234,31.036-109.594,34.386-196.867c3.743-97.519,0-3.321,0-3.321l-2.195-60.28
					L1852.536,1215.628z"/>
				
					<linearGradient id="SVGID_00000064340189210960025080000012809365153831736203_" gradientUnits="userSpaceOnUse" x1="5272.6558" y1="1424.2998" x2="5076.8311" y2="1637.3025" gradientTransform="matrix(-1 0 0 1 7106.7852 0)">
					<stop  offset="0" style="stop-color:#2B3582"/>
					<stop  offset="1" style="stop-color:#150E42"/>
				</linearGradient>
				<path style="fill:url(#SVGID_00000064340189210960025080000012809365153831736203_);" d="M1913.614,1486.544
					c0,0,3.228,5.796,6.354,21.197c0.564,2.782-1.379,5.444-4.204,5.721c-4.997,0.491-12.691,1.123-18.853,1.081
					c-2.841-0.019-5.058-2.493-4.716-5.313c0.682-5.622,2.809-14.845,9.379-22.034L1913.614,1486.544z"/>
				
					<linearGradient id="SVGID_00000067226657392300034660000010007692733160701600_" gradientUnits="userSpaceOnUse" x1="5190.3359" y1="1479.6151" x2="5205.354" y2="1479.6151" gradientTransform="matrix(-1 0 0 1 7106.7852 0)">
					<stop  offset="0" style="stop-color:#F9B776"/>
					<stop  offset="1" style="stop-color:#F47960"/>
				</linearGradient>
				<path style="fill:url(#SVGID_00000067226657392300034660000010007692733160701600_);" d="M1916.449,1468.881l-3.807,20.767
					c0,0-3.765,2.8-11.211,0.77l1.817-22.345L1916.449,1468.881z"/>
				
					<linearGradient id="SVGID_00000161631442727090413610000016866293452076780471_" gradientUnits="userSpaceOnUse" x1="5302.3086" y1="1201.8916" x2="5135.6792" y2="1427.7357" gradientTransform="matrix(-1 0 0 1 7106.7852 0)">
					<stop  offset="0" style="stop-color:#2B3582"/>
					<stop  offset="1" style="stop-color:#150E42"/>
				</linearGradient>
				<path style="fill:url(#SVGID_00000161631442727090413610000016866293452076780471_);" d="M1926.734,1221.01
					c15.332,92.53-3.326,228.694-9.618,255.345c-0.385,1.632-1.702,2.882-3.356,3.156c-2.809,0.466-7.433,0.845-11.992-0.479
					c-1.571-0.456-2.674-1.873-2.738-3.508c-0.844-21.546,0.675-153.819-13.611-206.094c-0.724-2.649-2.342-4.96-4.58-6.551
					l-27.728-19.712l-2.126-31.863L1926.734,1221.01z"/>
				<g>
					
						<linearGradient id="SVGID_00000175318693558700780880000009354111818564905391_" gradientUnits="userSpaceOnUse" x1="1905.6198" y1="1070.6019" x2="1649.7971" y2="1391.8674">
						<stop  offset="0" style="stop-color:#FDF53F"/>
						<stop  offset="0.6645" style="stop-color:#E57A58"/>
						<stop  offset="1" style="stop-color:#D93C65"/>
					</linearGradient>
					<path style="fill:url(#SVGID_00000175318693558700780880000009354111818564905391_);" d="M1829.039,1045.685
						c45.947-0.759,96.644,12.064,96.644,12.064c13.696,79.915,2.395,172.091,2.395,172.091
						c-35.571,9.328-75.697-5.703-75.697-5.703c-5.912-33.403-33.496-127.408-33.496-127.408
						c-22.449-2.786-40.943-9.263-56.173-17.827c11.617-13.465,17.093-30.6,19.472-40.728
						C1798.429,1043.222,1814.867,1045.919,1829.039,1045.685z"/>
					
						<linearGradient id="SVGID_00000140006869439785632480000015698470021556743336_" gradientUnits="userSpaceOnUse" x1="-1660.531" y1="923.0325" x2="-1629.8126" y2="1010.7994" gradientTransform="matrix(1 0 0 1 3367.5027 0)">
						<stop  offset="0" style="stop-color:#F9B776"/>
						<stop  offset="1" style="stop-color:#F47960"/>
					</linearGradient>
					<path style="fill:url(#SVGID_00000140006869439785632480000015698470021556743336_);" d="M1693.32,978.007
						c4.514-5.451,9.482-3.129,9.482-3.129c6.761,28.562,42.959,51.976,79.381,63.295c-2.378,10.128-7.855,27.263-19.472,40.728
						C1702.264,1044.915,1693.32,978.007,1693.32,978.007z"/>
				</g>
				
					<linearGradient id="SVGID_00000160165931961212955210000013179880023533942689_" gradientUnits="userSpaceOnUse" x1="1943.0391" y1="1100.3987" x2="1687.2166" y2="1421.6639">
					<stop  offset="0" style="stop-color:#FDF53F"/>
					<stop  offset="0.6645" style="stop-color:#E57A58"/>
					<stop  offset="1" style="stop-color:#D93C65"/>
				</linearGradient>
				<path style="fill:url(#SVGID_00000160165931961212955210000013179880023533942689_);" d="M1908.059,1102.239l17.623-44.49
					c0,0,42.917,29.16,49.975,66.132c-8.109,0.597-22.865,2.706-37.309,9.999
					C1935.175,1116.423,1908.059,1102.239,1908.059,1102.239z"/>
				
					<linearGradient id="SVGID_00000166643351840788716550000008738358751346351266_" gradientUnits="userSpaceOnUse" x1="5216.501" y1="1032.3625" x2="5260.9629" y2="1032.3625" gradientTransform="matrix(-1 0 0 1 7106.7852 0)">
					<stop  offset="0" style="stop-color:#F9B776"/>
					<stop  offset="1" style="stop-color:#F47960"/>
				</linearGradient>
				<path style="fill:url(#SVGID_00000166643351840788716550000008738358751346351266_);" d="M1875.579,1008.383l14.62,42.279
					c0.242,0.7-0.046,1.476-0.694,1.835c-3.985,2.203-18.343,8.572-35.645-2.398c-1.802-1.143-3.029-3.006-3.303-5.123
					l-4.734-36.592H1875.579z"/>
				<g>
					
						<linearGradient id="SVGID_00000021814660572523563900000007002420099783209628_" gradientUnits="userSpaceOnUse" x1="-1938.0558" y1="1594.9651" x2="-1954.6708" y2="1540.1648" gradientTransform="matrix(-0.746 -0.6659 -0.6659 0.746 1451.5446 -1476.3188)">
						<stop  offset="0" style="stop-color:#F9B776"/>
						<stop  offset="1" style="stop-color:#F47960"/>
					</linearGradient>
					<path style="fill:url(#SVGID_00000021814660572523563900000007002420099783209628_);" d="M1843.769,969.232
						c0,0-16.054,30.22-13.996,42.427c2.058,12.207,21.954,11.331,39.328,1.416l12.141-32.63L1843.769,969.232z"/>
					
						<linearGradient id="SVGID_00000068649466510371352300000017608903697369090705_" gradientUnits="userSpaceOnUse" x1="-1953.046" y1="1499.4835" x2="-1939.1476" y2="1578.7559" gradientTransform="matrix(-0.746 -0.6659 -0.6659 0.746 1451.5446 -1476.3188)">
						<stop  offset="0" style="stop-color:#2B3582"/>
						<stop  offset="1" style="stop-color:#150E42"/>
					</linearGradient>
					<path style="fill:url(#SVGID_00000068649466510371352300000017608903697369090705_);" d="M1868.333,997.05
						c-0.706-0.313-0.966-1.177-0.544-1.823c1.286-1.965,3.697-5.973,4.467-9.483c0,0,2.886-1.849-7.346-4.297
						c-10.231-2.449-25.489-6.25-28.696-14.959c-3.127-8.491,5.089-29.844,18.196-12.83c0.499,0.647,1.476,0.661,1.973,0.014
						c2.149-2.797,7.798-8.601,15.641-5.082c7.339,3.293,8.166,8.671,8.065,11.382c-0.03,0.797,0.683,1.417,1.467,1.268
						c3.711-0.708,12.615-1.315,16.772,7.819c3.423,7.524,1.198,11.784-0.828,13.867c-0.657,0.675-0.369,1.786,0.531,2.062
						c2.438,0.746,5.588,2.814,5.273,8.528c-0.436,7.899-9.267,7.203-11.781,6.843c-0.412-0.059-0.827,0.082-1.106,0.391
						c-2.156,2.386-11.869,12.516-22.383,13.737c-0.91,0.106-1.616-0.793-1.318-1.66l4.55-13.226
						c0.211-0.614-0.083-1.288-0.677-1.551L1868.333,997.05z"/>
					
						<linearGradient id="SVGID_00000072266970281786839450000015585942409728313262_" gradientUnits="userSpaceOnUse" x1="-1955.0405" y1="1594.7097" x2="-1969.9893" y2="1545.4052" gradientTransform="matrix(-0.746 -0.6659 -0.6659 0.746 1451.5446 -1476.3188)">
						<stop  offset="0" style="stop-color:#F9B776"/>
						<stop  offset="1" style="stop-color:#F47960"/>
					</linearGradient>
					<path style="fill:url(#SVGID_00000072266970281786839450000015585942409728313262_);" d="M1866.505,998.927
						c0,0,11.43-7.843,12.266-1.238c0.835,6.604-10.293,9.566-15.805,7.104L1866.505,998.927z"/>
				</g>
				
					<linearGradient id="SVGID_00000029034764448385768240000013035969317714788538_" gradientUnits="userSpaceOnUse" x1="-919.4086" y1="1359.2802" x2="-955.5555" y2="1099.6792" gradientTransform="matrix(-1 0 0 1 1008.1051 0)">
					<stop  offset="0" style="stop-color:#F9B776"/>
					<stop  offset="1" style="stop-color:#F47960"/>
				</linearGradient>
				<path style="fill:url(#SVGID_00000029034764448385768240000013035969317714788538_);" d="M1938.349,1133.881
					c0,0,15,67.672,1.413,105.717c16.658,7.724,13.581,6.268,13.581,6.268s32.955-96.286,22.315-121.984
					C1954.682,1121.656,1944.277,1127.292,1938.349,1133.881z"/>
				
					<linearGradient id="SVGID_00000063601181108506272710000009139626385854850705_" gradientUnits="userSpaceOnUse" x1="-923.713" y1="1334.3076" x2="-952.5582" y2="1127.1456" gradientTransform="matrix(-1 0 0 1 1008.1051 0)">
					<stop  offset="0" style="stop-color:#F9B776"/>
					<stop  offset="1" style="stop-color:#F47960"/>
				</linearGradient>
				<path style="fill:url(#SVGID_00000063601181108506272710000009139626385854850705_);" d="M1939.762,1239.598
					c0,0-8.584,11.11-7.897,15.535c0.687,4.425,0.85,6.228,0.85,6.228s4.313-2.95,4.042-6.72c-0.6,11.964-4.604,25.567-0.963,24.912
					c3.641-0.656,22.489-18.029,18.227-36.548C1944.352,1236.285,1941.641,1237.015,1939.762,1239.598z"/>
			</g>
		</g>
		<g>
			<g>
				
					<linearGradient id="SVGID_00000053537316420410316390000010999944741030764426_" gradientUnits="userSpaceOnUse" x1="532.9093" y1="166.1836" x2="549.6089" y2="281.6157">
					<stop  offset="0" style="stop-color:#53D8FF"/>
					<stop  offset="1" style="stop-color:#3840F7"/>
				</linearGradient>
				<path style="fill:url(#SVGID_00000053537316420410316390000010999944741030764426_);" d="M543.502,262.661L543.502,262.661
					c-4.745,0-8.628-3.883-8.628-8.628v-29.26c0-4.745,3.883-8.628,8.628-8.628l0,0c4.745,0,8.628,3.883,8.628,8.628v29.26
					C552.13,258.779,548.247,262.661,543.502,262.661z"/>
				
					<linearGradient id="SVGID_00000113350387788742070210000008725440117980266116_" gradientUnits="userSpaceOnUse" x1="611.7012" y1="166.1835" x2="628.4008" y2="281.6158">
					<stop  offset="0" style="stop-color:#53D8FF"/>
					<stop  offset="1" style="stop-color:#3840F7"/>
				</linearGradient>
				<path style="fill:url(#SVGID_00000113350387788742070210000008725440117980266116_);" d="M622.294,262.661L622.294,262.661
					c-4.745,0-8.628-3.883-8.628-8.628v-29.26c0-4.745,3.883-8.628,8.628-8.628h0c4.745,0,8.628,3.883,8.628,8.628v29.26
					C630.922,258.779,627.039,262.661,622.294,262.661z"/>
				
					<linearGradient id="SVGID_00000005970576696669014470000011576509329599834045_" gradientUnits="userSpaceOnUse" x1="698.4787" y1="165.1069" x2="715.1783" y2="280.539">
					<stop  offset="0" style="stop-color:#53D8FF"/>
					<stop  offset="1" style="stop-color:#3840F7"/>
				</linearGradient>
				<path style="fill:url(#SVGID_00000005970576696669014470000011576509329599834045_);" d="M709.071,261.584L709.071,261.584
					c-4.745,0-8.628-3.883-8.628-8.628v-29.26c0-4.745,3.883-8.628,8.628-8.628l0,0c4.745,0,8.628,3.883,8.628,8.628v29.26
					C717.699,257.702,713.817,261.584,709.071,261.584z"/>
				
					<linearGradient id="SVGID_00000075156767723061960350000012352597698831543453_" gradientUnits="userSpaceOnUse" x1="776.5568" y1="165.1069" x2="793.2564" y2="280.539">
					<stop  offset="0" style="stop-color:#53D8FF"/>
					<stop  offset="1" style="stop-color:#3840F7"/>
				</linearGradient>
				<path style="fill:url(#SVGID_00000075156767723061960350000012352597698831543453_);" d="M787.149,261.584L787.149,261.584
					c-4.745,0-8.628-3.883-8.628-8.628v-29.26c0-4.745,3.883-8.628,8.628-8.628l0,0c4.745,0,8.628,3.883,8.628,8.628v29.26
					C795.778,257.702,791.895,261.584,787.149,261.584z"/>
				
					<linearGradient id="SVGID_00000145766562653868432900000017884235567551660693_" gradientUnits="userSpaceOnUse" x1="1292.5081" y1="-205.7008" x2="488.8373" y2="325.0882">
					<stop  offset="0" style="stop-color:#53D8FF"/>
					<stop  offset="1" style="stop-color:#3840F7"/>
				</linearGradient>
				<path style="fill:url(#SVGID_00000145766562653868432900000017884235567551660693_);" d="M795.819,224.01H528.807
					c-6.295,0-11.445-5.15-11.445-11.445v-4.1c0-6.295,5.15-11.445,11.445-11.445h267.012c6.295,0,11.445,5.15,11.445,11.445v4.1
					C807.265,218.86,802.114,224.01,795.819,224.01z"/>
				
					<linearGradient id="SVGID_00000086676095949421953250000010227043435920772246_" gradientUnits="userSpaceOnUse" x1="378.5016" y1="319.1466" x2="1098.5193" y2="26.3766">
					<stop  offset="0" style="stop-color:#53D8FF"/>
					<stop  offset="1" style="stop-color:#3840F7"/>
				</linearGradient>
				<path style="fill:url(#SVGID_00000086676095949421953250000010227043435920772246_);" d="M857.493,212.194H472.596
					c-5.258,0-9.56-4.302-9.56-9.56l0,0c0-5.258,4.302-9.56,9.56-9.56h384.897c5.258,0,9.56,4.302,9.56,9.56l0,0
					C867.052,207.892,862.75,212.194,857.493,212.194z"/>
				
					<linearGradient id="SVGID_00000086679475241954291130000002645056790464888497_" gradientUnits="userSpaceOnUse" x1="490.7212" y1="399.4805" x2="957.0269" y2="209.8736">
					<stop  offset="0" style="stop-color:#53D8FF"/>
					<stop  offset="1" style="stop-color:#3840F7"/>
				</linearGradient>
				<path style="fill:url(#SVGID_00000086679475241954291130000002645056790464888497_);" d="M537.638,303.669l23.872,62.151
					c1.693,4.408,5.927,7.318,10.65,7.318h199.555c5.389,0,10.043-3.771,11.16-9.043l13.171-62.151
					c1.503-7.095-3.908-13.773-11.16-13.773H548.288C540.284,288.17,534.769,296.197,537.638,303.669z"/>
				
					<linearGradient id="SVGID_00000000207277594179585680000011577958833307954842_" gradientUnits="userSpaceOnUse" x1="444.0808" y1="363.7843" x2="748.7999" y2="319.4355">
					<stop  offset="0" style="stop-color:#53D8FF"/>
					<stop  offset="1" style="stop-color:#3840F7"/>
				</linearGradient>
				<path style="fill:url(#SVGID_00000000207277594179585680000011577958833307954842_);" d="M571.046,324.745h31.9
					c2.201,0,4.053,1.648,4.309,3.833l3.203,27.336c0.302,2.578-1.713,4.843-4.309,4.843h-28.056c-1.979,0-3.707-1.339-4.201-3.255
					l-7.048-27.336C566.137,327.421,568.21,324.745,571.046,324.745z"/>
				
					<linearGradient id="SVGID_00000174583097954215896670000016977810681659702971_" gradientUnits="userSpaceOnUse" x1="445.2773" y1="372.0075" x2="749.9966" y2="327.6587">
					<stop  offset="0" style="stop-color:#53D8FF"/>
					<stop  offset="1" style="stop-color:#3840F7"/>
				</linearGradient>
				<path style="fill:url(#SVGID_00000174583097954215896670000016977810681659702971_);" d="M628.215,326.152h25.751
					c3.195,0,5.814,2.535,5.918,5.729l0.74,22.763c0.109,3.344-2.573,6.114-5.918,6.114h-25.381c-3.158,0-5.76-2.479-5.914-5.633
					l-1.11-22.763C622.136,328.982,624.832,326.152,628.215,326.152z"/>
				
					<linearGradient id="SVGID_00000106851324367335528190000017712629939863386773_" gradientUnits="userSpaceOnUse" x1="537.9282" y1="373.7874" x2="842.6474" y2="329.4386">
					<stop  offset="0" style="stop-color:#53D8FF"/>
					<stop  offset="1" style="stop-color:#3840F7"/>
				</linearGradient>
				<path style="fill:url(#SVGID_00000106851324367335528190000017712629939863386773_);" d="M766.697,325.32h-31.9
					c-2.201,0-4.053,1.648-4.309,3.833l-3.203,27.336c-0.302,2.578,1.713,4.843,4.309,4.843h28.056c1.979,0,3.707-1.339,4.201-3.255
					l7.047-27.336C771.606,327.996,769.532,325.32,766.697,325.32z"/>
				
					<linearGradient id="SVGID_00000174569079541262168980000013092278255787728778_" gradientUnits="userSpaceOnUse" x1="477.1297" y1="376.226" x2="781.849" y2="331.8772">
					<stop  offset="0" style="stop-color:#53D8FF"/>
					<stop  offset="1" style="stop-color:#3840F7"/>
				</linearGradient>
				<path style="fill:url(#SVGID_00000174569079541262168980000013092278255787728778_);" d="M711.778,326.727h-25.751
					c-3.195,0-5.815,2.535-5.918,5.729l-0.74,22.763c-0.109,3.344,2.573,6.114,5.918,6.114h25.381c3.158,0,5.761-2.478,5.914-5.633
					l1.11-22.763C717.857,329.558,715.161,326.727,711.778,326.727z"/>
				
					<linearGradient id="SVGID_00000151545273596146241610000006440301999537001875_" gradientUnits="userSpaceOnUse" x1="568.7971" y1="316.2193" x2="1106.2028" y2="97.702">
					<stop  offset="0" style="stop-color:#53D8FF"/>
					<stop  offset="1" style="stop-color:#3840F7"/>
				</linearGradient>
				<path style="fill:url(#SVGID_00000151545273596146241610000006440301999537001875_);" d="M802.308,303.926H531.494
					c-5.372,0-9.618-4.554-9.243-9.913l2.642-37.738c0.34-4.854,4.377-8.619,9.243-8.619h264.681c4.787,0,8.786,3.646,9.227,8.412
					l3.492,37.738C812.037,299.237,807.763,303.926,802.308,303.926z"/>
				
					<linearGradient id="SVGID_00000136392648990937893950000016665749640311041466_" gradientUnits="userSpaceOnUse" x1="653.2701" y1="199.9758" x2="674.6526" y2="347.7776">
					<stop  offset="0" style="stop-color:#53D8FF"/>
					<stop  offset="1" style="stop-color:#3840F7"/>
				</linearGradient>
				<path style="fill:url(#SVGID_00000136392648990937893950000016665749640311041466_);" d="M810.359,284.654
					c-7.737,0.573-238.198-0.826-287.454,0l-0.655,9.358c-0.375,5.359,3.871,9.913,9.243,9.913h270.814
					c5.454,0,9.729-4.688,9.226-10.119L810.359,284.654z"/>
			</g>
			<g>
				<path style="fill:#FFFFFF;" d="M488.305,268.95c3.708-18.606,19.945-31.519,38.187-31.725c-2.48-1.062-5.105-1.889-7.857-2.438
					c-21.358-4.256-42.122,9.607-46.378,30.965c-4.256,21.358,9.607,42.122,30.965,46.378c2.752,0.548,5.493,0.791,8.191,0.76
					C494.643,305.707,484.597,287.556,488.305,268.95z"/>
				<path style="fill:#FFFFFF;" d="M512.594,424.892c-30.969-6.171-51.071-36.28-44.9-67.249
					c4.904-24.61,24.929-42.341,48.485-45.495c-29.644-3.955-57.654,15.75-63.582,45.495c-6.172,30.969,13.931,61.077,44.9,67.249
					c6.359,1.267,12.678,1.41,18.764,0.595C515.04,425.324,513.818,425.136,512.594,424.892z"/>
				<path style="fill:#FFFFFF;" d="M517.639,468.912c-0.682-3.772-1.058-7.65-1.058-11.619c0-4.533,0.469-8.956,1.353-13.226
					c3.402-21.487,14.824-40.071,30.878-52.14c-28.846,8.848-49.821,35.693-49.821,67.438c0,34.999,25.494,64.038,58.923,69.574
					C536.581,517.307,521.149,495.155,517.639,468.912z"/>
				<path style="fill:#FFFFFF;" d="M727.614,447.647c0.64-3.537,0.992-7.175,0.992-10.897c0-4.251-0.439-8.399-1.269-12.405
					c-3.191-20.152-13.903-37.582-28.959-48.9c27.054,8.298,46.726,33.475,46.726,63.249c0,32.824-23.91,60.06-55.262,65.252
					C709.849,493.036,724.322,472.26,727.614,447.647z"/>
				<path style="fill:#FFFFFF;" d="M684.482,774.132c0.64-3.537,0.992-7.175,0.992-10.897c0-4.251-0.439-8.399-1.269-12.404
					c-3.191-20.152-13.903-37.582-28.959-48.901c27.054,8.298,46.726,33.475,46.726,63.249c0,32.824-23.91,60.06-55.262,65.252
					C666.716,819.521,681.189,798.745,684.482,774.132z"/>
				<path style="fill:#FFFFFF;" d="M848.7,263.469c-3.549-17.807-19.089-30.166-36.548-30.364c2.374-1.017,4.886-1.808,7.52-2.333
					c20.441-4.074,40.314,9.195,44.388,29.636c4.074,20.441-9.195,40.314-29.636,44.388c-2.634,0.525-5.257,0.757-7.84,0.728
					C842.633,298.648,852.248,281.276,848.7,263.469z"/>
				<path style="fill:#FFFFFF;" d="M810.984,406.952c29.64-5.907,48.879-34.723,42.973-64.362
					c-4.694-23.554-23.859-40.524-46.404-43.542c28.372-3.785,55.18,15.074,60.853,43.542c5.907,29.64-13.333,58.456-42.973,64.362
					c-6.086,1.213-12.133,1.35-17.959,0.57C808.642,407.366,809.812,407.186,810.984,406.952z"/>
				<path style="fill:#FFFFFF;" d="M814.875,456.892c0.853-4.276,1.323-8.673,1.323-13.172c0-5.139-0.586-10.153-1.691-14.995
					c-4.252-24.36-18.527-45.43-38.59-59.112c36.052,10.031,62.266,40.465,62.266,76.457c0,39.679-31.861,72.602-73.64,78.878
					C791.201,511.759,810.487,486.644,814.875,456.892z"/>
				<path style="fill:#FFFFFF;" d="M659.857,388.529c-2.728,7.297-5.212,14.612-7.302,21.956
					c-2.062,7.352-3.718,14.743-4.695,22.134c-2.008,14.76-1.332,29.52,2.994,43.017c2.13,6.752,5.121,13.176,8.755,19.239
					c3.683,6.037,7.971,11.747,12.806,17.054c4.814,5.32,10.128,10.288,15.79,14.9c5.631,4.649,11.533,9.062,17.762,13.086
					l2.302,1.553l2.406,1.523l4.847,3.06c1.824,1.303,3.687,2.59,5.451,3.943l2.519,2.115c0.822,0.727,1.711,1.369,2.466,2.179
					c6.36,6.067,11.783,13.292,15.544,21.397c3.801,8.073,5.815,17.048,5.815,26.009c0.129,8.975-2.134,17.896-6.018,25.821
					c-0.24,0.497-0.463,1.003-0.72,1.491l-0.83,1.431l-1.686,2.836c-0.596,0.92-1.269,1.788-1.902,2.678
					c-0.664,0.867-1.24,1.801-1.978,2.602l-2.14,2.454l-1.076,1.214l-1.164,1.123l-2.337,2.222
					c-0.763,0.756-1.653,1.358-2.473,2.039c-6.654,5.35-14.192,9.207-21.932,11.829c-7.765,2.6-15.736,4.008-23.652,4.539
					c-7.93,0.47-15.798-0.04-23.502-1.097c3.865-0.646,7.705-0.911,11.48-1.756l2.83-0.51l1.41-0.252l1.397-0.332l5.552-1.304
					c7.312-1.995,14.369-4.537,20.84-7.925c6.478-3.35,12.353-7.555,17.199-12.519c0.589-0.636,1.258-1.195,1.781-1.884l1.648-1.98
					l0.828-0.978l0.733-1.047l1.459-2.082c0.515-0.672,0.859-1.453,1.298-2.167c0.407-0.735,0.859-1.442,1.233-2.187l1.046-2.27
					l0.536-1.122c0.159-0.382,0.285-0.779,0.43-1.166l0.852-2.323c0.282-0.773,0.433-1.589,0.661-2.376l0.318-1.187
					c0.119-0.391,0.21-0.79,0.262-1.198l0.411-2.415c0.173-0.796,0.207-1.616,0.285-2.425c0.065-0.811,0.167-1.617,0.212-2.427
					l-0.002-2.437l0.009-1.214l-0.109-1.214c-0.528-6.451-2.169-12.843-5.28-18.591c-3.026-5.768-7.099-11.035-12.056-15.462
					c-1.219-1.125-2.562-2.132-3.826-3.216c-1.311-0.975-2.643-1.862-3.949-2.817l-4.975-3.075l-2.501-1.551l-2.509-1.669
					c-13.341-8.907-26.036-19.333-36.639-32.05c-5.253-6.378-10.023-13.271-13.828-20.742c-1.918-3.721-3.624-7.565-5.059-11.512
					c-0.391-0.972-0.699-1.979-1.008-2.983l-0.933-3.006c-0.602-2.008-1.035-4.069-1.551-6.094
					c-0.432-2.049-0.773-4.117-1.127-6.173c-0.224-2.079-0.494-4.147-0.664-6.218c-0.087-2.079-0.269-4.148-0.264-6.218l0.035-3.101
					l0.026-1.547l0.102-1.541c0.458-8.222,1.983-16.261,4.247-23.963c2.293-7.701,5.31-15.078,8.889-22.095
					C651.188,401.522,655.318,394.855,659.857,388.529z"/>
				<path style="fill:#FFFFFF;" d="M659.787,546.333c3.696,4.678,6.988,9.689,9.882,14.986c2.903,5.293,5.359,10.899,7.26,16.789
					c1.871,5.892,3.174,12.081,3.632,18.451c0.085,0.794,0.123,1.592,0.14,2.394l0.064,2.407c0.026,1.607-0.091,3.217-0.137,4.834
					c-0.109,1.613-0.296,3.225-0.449,4.846c-0.25,1.604-0.499,3.218-0.818,4.818c-0.382,1.583-0.704,3.193-1.155,4.763
					c-0.486,1.556-0.886,3.157-1.461,4.686c-1.085,3.089-2.393,6.096-3.86,9.008c-2.907,5.85-6.59,11.232-10.633,16.207
					c-8.17,9.918-17.96,17.988-28.218,24.848l-1.932,1.283l-1.912,1.182l-3.797,2.339l-2.822,2.007
					c-0.912,0.783-1.886,1.508-2.768,2.315c-3.6,3.168-6.533,6.937-8.745,11.041c-2.282,4.091-3.484,8.639-3.949,13.241
					l-0.094,0.867l-0.006,0.867l-0.031,1.743c0.023,0.579,0.089,1.156,0.125,1.737c0.046,0.58,0.059,1.168,0.173,1.74
					c0.178,1.152,0.309,2.327,0.642,3.457c0.153,0.568,0.247,1.159,0.44,1.718l0.58,1.684c3.145,9.046,10.688,16.79,20.221,22.045
					c4.763,2.67,10.017,4.738,15.503,6.43c5.512,1.616,11.247,2.74,17.13,3.788c-5.852,1.083-11.865,1.634-17.963,1.464
					c-6.089-0.228-12.257-1.162-18.315-3.044c-6.035-1.906-11.963-4.796-17.238-8.908c-1.357-0.978-2.596-2.12-3.822-3.287
					l-0.925-0.871l-0.859-0.943l-1.708-1.91c-0.588-0.624-1.054-1.352-1.586-2.03c-0.508-0.695-1.046-1.374-1.526-2.095
					l-1.358-2.223l-0.667-1.124c-0.206-0.383-0.388-0.781-0.582-1.172c-3.14-6.232-4.999-13.297-4.948-20.418
					c-0.063-7.112,1.512-14.244,4.484-20.658c2.947-6.44,7.23-12.167,12.233-16.975c1.248-1.208,2.615-2.265,3.928-3.393
					c1.395-1.074,2.875-2.1,4.324-3.132l3.668-2.324l1.817-1.154l1.725-1.167c4.679-3.009,9.096-6.309,13.311-9.764
					c4.248-3.417,8.212-7.106,11.82-11.019c3.625-3.905,6.826-8.103,9.61-12.52c1.393-2.211,2.604-4.515,3.737-6.858
					c0.605-1.159,1.044-2.379,1.586-3.57c0.505-1.203,0.893-2.445,1.356-3.672c3.375-9.906,4.135-20.858,2.917-32.007
					c-0.586-5.581-1.68-11.201-3.066-16.828C663.349,557.625,661.615,552.01,659.787,546.333z"/>
			</g>
		</g>
		<g>
			<g>
				
					<linearGradient id="SVGID_00000043421432642934887220000014539997871495415201_" gradientUnits="userSpaceOnUse" x1="2010.3127" y1="118.1856" x2="1914.5703" y2="268.1823">
					<stop  offset="0" style="stop-color:#53D8FF"/>
					<stop  offset="1" style="stop-color:#3840F7"/>
				</linearGradient>
				<path style="fill:url(#SVGID_00000043421432642934887220000014539997871495415201_);" d="M1908.201,309.663L1908.201,309.663
					c-5.227,0-9.504-4.277-9.504-9.504v-43.994c0-5.227,4.277-9.504,9.504-9.504l0,0c5.227,0,9.504,4.277,9.504,9.504v43.994
					C1917.705,305.386,1913.428,309.663,1908.201,309.663z"/>
				
					<linearGradient id="SVGID_00000129925134440313572750000013737064875941663645_" gradientUnits="userSpaceOnUse" x1="2127.8093" y1="44.1115" x2="1896.807" y2="378.666">
					<stop  offset="0" style="stop-color:#53D8FF"/>
					<stop  offset="1" style="stop-color:#3840F7"/>
				</linearGradient>
				<path style="fill:url(#SVGID_00000129925134440313572750000013737064875941663645_);" d="M1908.201,393.666L1908.201,393.666
					c-5.227,0-9.504-4.277-9.504-9.504v-43.994c0-5.227,4.277-9.504,9.504-9.504l0,0c5.227,0,9.504,4.277,9.504,9.504v43.994
					C1917.705,389.389,1913.428,393.666,1908.201,393.666z"/>
				
					<linearGradient id="SVGID_00000118370420955606024390000014839302866585451192_" gradientUnits="userSpaceOnUse" x1="1911.7878" y1="274.0632" x2="1643.1703" y2="481.3302">
					<stop  offset="0" style="stop-color:#53D8FF"/>
					<stop  offset="1" style="stop-color:#3840F7"/>
				</linearGradient>
				<polygon style="fill:url(#SVGID_00000118370420955606024390000014839302866585451192_);" points="1986.665,239.195 
					1985.007,309.663 1942.915,340.326 1866.832,340.326 1824.74,309.663 1823.082,239.195 1814.323,239.195 1814.323,319.602 
					1866.832,355.246 1942.915,355.246 1995.424,319.602 1995.424,239.195 				"/>
				
					<linearGradient id="SVGID_00000125601102972673895920000010158750198792268958_" gradientUnits="userSpaceOnUse" x1="2068.397" y1="330.7688" x2="1561.7893" y2="547.1834">
					<stop  offset="0" style="stop-color:#53D8FF"/>
					<stop  offset="1" style="stop-color:#3840F7"/>
				</linearGradient>
				<path style="fill:url(#SVGID_00000125601102972673895920000010158750198792268958_);" d="M2039.12,412.457h-261.839
					c-6.295,0-11.445-5.151-11.445-11.446v-3.618c0-6.295,5.15-11.445,11.445-11.445h261.839c6.295,0,11.445,5.15,11.445,11.445
					v3.618C2050.565,407.306,2045.415,412.457,2039.12,412.457z"/>
				
					<linearGradient id="SVGID_00000167391783947853983460000004290536844003055020_" gradientUnits="userSpaceOnUse" x1="1872.5311" y1="305.8996" x2="1622.2314" y2="756.4391">
					<stop  offset="0" style="stop-color:#53D8FF"/>
					<stop  offset="1" style="stop-color:#3840F7"/>
				</linearGradient>
				<path style="fill:url(#SVGID_00000167391783947853983460000004290536844003055020_);" d="M1994.998,269.319h-179.113
					c-6.295,0-11.445-5.15-11.445-11.445v-22.427c0-6.295,5.151-11.445,11.445-11.445h179.113c6.295,0,11.445,5.15,11.445,11.445
					v22.427C2006.444,264.168,2001.293,269.319,1994.998,269.319z"/>
				
					<linearGradient id="SVGID_00000155858669960452620620000016715687572579588744_" gradientUnits="userSpaceOnUse" x1="2522.2454" y1="-195.0134" x2="1733.428" y2="325.9657">
					<stop  offset="0" style="stop-color:#53D8FF"/>
					<stop  offset="1" style="stop-color:#3840F7"/>
				</linearGradient>
				<path style="fill:url(#SVGID_00000155858669960452620620000016715687572579588744_);" d="M2034.617,226.764h-261.839
					c-6.295,0-11.445-5.15-11.445-11.446v-3.618c0-6.295,5.15-11.445,11.445-11.445h261.839c6.295,0,11.445,5.15,11.445,11.445
					v3.618C2046.063,221.614,2040.912,226.764,2034.617,226.764z"/>
				
					<linearGradient id="SVGID_00000148619897344232698540000011694923961959824043_" gradientUnits="userSpaceOnUse" x1="1641.4445" y1="309.6651" x2="2298.8696" y2="42.3461">
					<stop  offset="0" style="stop-color:#53D8FF"/>
					<stop  offset="1" style="stop-color:#3840F7"/>
				</linearGradient>
				<path style="fill:url(#SVGID_00000148619897344232698540000011694923961959824043_);" d="M2077.177,213.51h-348.199
					c-5.626,0-10.229-4.603-10.229-10.229l0,0c0-5.626,4.603-10.229,10.229-10.229h348.199c5.626,0,10.229,4.603,10.229,10.229l0,0
					C2087.406,208.907,2082.803,213.51,2077.177,213.51z"/>
				
					<linearGradient id="SVGID_00000015313661893925073010000010420776371025349765_" gradientUnits="userSpaceOnUse" x1="1963.1747" y1="155.4435" x2="1749.1772" y2="540.6391">
					<stop  offset="0" style="stop-color:#53D8FF"/>
					<stop  offset="1" style="stop-color:#3840F7"/>
				</linearGradient>
				<path style="fill:url(#SVGID_00000015313661893925073010000010420776371025349765_);" d="M1804.44,254.329v8.358
					c0,3.648,2.984,6.632,6.632,6.632h188.74c3.647,0,6.632-2.984,6.632-6.632v-10.5
					C1939.209,254.037,1872.999,255.425,1804.44,254.329z"/>
			</g>
			<g>
				<path style="fill:#FFFFFF;" d="M1830.015,353.413c-84.856,14.009-153.39,39.246-193.165,87.255
					c-6.705,6.564,2.602,15.815,8.428,9.988C1695.218,395.225,1752.373,374.08,1830.015,353.413z"/>
				<path style="fill:#FFFFFF;" d="M1971.582,362.011c83.534,13.79,151,38.635,190.157,85.896c6.6,6.462-2.562,15.568-8.297,9.833
					C2104.279,403.172,2048.015,382.357,1971.582,362.011z"/>
				<path style="fill:#FFFFFF;" d="M1974.264,348.059c78.541,0.267,144.003,13.036,186.856,50.522
					c7.001,4.941-0.042,14.636-6.144,10.233C2101.878,366.116,2047.271,355.38,1974.264,348.059z"/>
				<path style="fill:#FFFFFF;" d="M1847.105,344.595c-83.686-12.919-155.783-9.879-208.425,24.169
					c-8.379,4.26-2.692,16.116,4.629,12.296C1707.835,342.999,1767.992,340.37,1847.105,344.595z"/>
				<path style="fill:#FFFFFF;" d="M1792.977,426.034c-67.125,35.318-117.469,75.497-137.411,126.737
					c-3.787,7.358,6.575,12.513,9.831,6.016C1691.784,498.508,1733.741,464.92,1792.977,426.034z"/>
				<path style="fill:#FFFFFF;" d="M2061.345,410.801c1.318,15.616,7.339,38.316,8.091,47.231
					c0.843,17.113,30.795,11.147,21.965-4.262C2082.887,445.776,2069.758,425.48,2061.345,410.801z"/>
				<path style="fill:#FFFFFF;" d="M2115.535,468.042c4.628,14.972,9.277,30.013,11.919,38.561
					c4.483,16.537,32.466,4.302,20.545-8.861C2137.972,491.754,2126.893,480.582,2115.535,468.042z"/>
				<path style="fill:#FFFFFF;" d="M1871.184,425.079c4.292,15.072,8.604,30.212,11.054,38.818
					c5.267,16.305-24.858,21.322-22.052,3.786C1865.322,457.193,1868.51,441.786,1871.184,425.079z"/>
				<path style="fill:#FFFFFF;" d="M1894.349,491.315c4.292,15.072,9.496,24.828,11.946,33.433
					c5.267,16.305-24.858,21.322-22.052,3.786C1889.379,518.044,1891.675,508.021,1894.349,491.315z"/>
				<path style="fill:#FFFFFF;" d="M1971.582,436.432c-4.292,15.072-8.358,52.905-10.808,61.51
					c-5.267,16.304,24.858,21.322,22.052,3.786C1977.69,491.238,1974.256,453.138,1971.582,436.432z"/>
				<path style="fill:#FFFFFF;" d="M1931.586,539.542c4.292,15.072,8.358,22.391,10.808,30.996
					c5.267,16.305-24.858,21.322-22.052,3.786C1925.478,563.835,1928.912,556.249,1931.586,539.542z"/>
				<path style="fill:#FFFFFF;" d="M2026.897,653.403c4.292,15.072,8.358,22.391,10.809,30.996
					c5.267,16.305-24.858,21.322-22.052,3.786C2020.789,677.695,2024.223,670.109,2026.897,653.403z"/>
			</g>
		</g>
	</g>
</g>
</svg>
