<?xml version="1.0" encoding="utf-8"?>
<!-- Generator: Adobe Illustrator 27.5.0, SVG Export Plug-In . SVG Version: 6.00 Build 0)  -->
<svg version="1.1" xmlns="http://www.w3.org/2000/svg" xmlns:xlink="http://www.w3.org/1999/xlink" x="0px" y="0px"
	 viewBox="0 0 3710 3710" style="enable-background:new 0 0 3710 3710;" xml:space="preserve">
<g id="Background">
	<g>
		<g>
			<rect style="fill:#FFFFFF;" width="3710" height="3710"/>
		</g>
	</g>
</g>
<g id="Illustration">
	<g>
		<path style="fill:#F4F7FA;" d="M1334.757,543.433c-115.173,113.029-48.133,343.78-201.219,416.345
			c-149.018,70.637-280.983-115.573-419.967-56.773c-206.177,87.224-276.803,649.728-73.323,1045.526
			c61.193,119.029,121.01,172.083,128.852,295.213c16.84,264.393-236.497,372.372-217.002,505.226
			c43.894,299.139,1483.969,812.827,2237.63,79.587c351.991-342.454,500.248-904.352,332.732-1383.553
			C2819.762,579.096,1593.187,289.817,1334.757,543.433z"/>
		<g>
			<g>
				<g>
					<defs>
						<path id="SVGID_1_" d="M2319.136,2344.501c-19.62,1.704-63.805-11.885-73.862-20.176
							c-66.932-55.176-198.958-150.34-213.236-240.92c-2.438-15.47,62.72-44.567,69.221-60.677
							c37.04-28.635,51.665-36.271,73.505-80.793c64.477-131.438-184.361-297.392,35.526-422.903
							c161.065-91.935,320.117-64.29,242.851-328.635c-77.265-264.345,28.672-799.974,353.018-674.692
							c186.145,71.9,70.912,336.241,191.404,486.307c114.499,142.601,75.467,289.134-73.506,422.294
							c-148.971,133.16-42.048,187.126,40.577,328.365c99.25,169.658-174.613,263.423-304.74,295.926
							C2555.107,2074.771,2305.937,2212.116,2319.136,2344.501z"/>
					</defs>
					
						<linearGradient id="SVGID_00000102508566088248204790000000622037885514689467_" gradientUnits="userSpaceOnUse" x1="2031.9719" y1="1420.8278" x2="3064.0679" y2="1420.8278">
						<stop  offset="0" style="stop-color:#FF9085"/>
						<stop  offset="1" style="stop-color:#FB6FBB"/>
					</linearGradient>
					
						<use xlink:href="#SVGID_1_"  style="overflow:visible;fill:url(#SVGID_00000102508566088248204790000000622037885514689467_);"/>
					<clipPath id="SVGID_00000016064592349618059820000002465518734662604956_">
						<use xlink:href="#SVGID_1_"  style="overflow:visible;"/>
					</clipPath>
					<g style="opacity:0.7;clip-path:url(#SVGID_00000016064592349618059820000002465518734662604956_);">
						<g>
							<path style="fill:#FCFDFE;" d="M2142.726,2211.048l-2.594-3.285c506.135-399.876,720.176-1056.712,572.56-1757.033
								l4.099-0.866c69.958,331.902,57.843,666.792-35.039,968.462C2584.106,1735.477,2397.713,2009.594,2142.726,2211.048z"/>
							<path style="fill:#FCFDFE;" d="M3013.977,1818.456c-175.515-17.936-449.757,40.47-611.329,130.201l-2.032-3.661
								c162.209-90.082,437.552-148.715,613.787-130.706L3013.977,1818.456z"/>
							<path style="fill:#FCFDFE;" d="M2241.183,2131.414l-3.404-2.44c55.922-78.113,70.207-181.497,42.456-307.279
								c-20.347-92.228-62.402-194.128-124.999-302.874l3.631-2.088c62.807,109.115,105.019,211.415,125.458,304.059
								C2312.344,1947.784,2297.829,2052.292,2241.183,2131.414z"/>
							<path style="fill:#FCFDFE;" d="M2693.271,1374.996l-3.527-2.26c97.839-152.66,273.75-226.224,404.093-261.058l1.081,4.049
								C2965.29,1150.366,2790.383,1223.466,2693.271,1374.996z"/>
							<path style="fill:#FCFDFE;" d="M2760.222,965.359l-4.146,0.596c-29.075-202.189-181.934-352.549-270.462-424.181l2.634-3.257
								C2577.253,610.537,2730.943,761.755,2760.222,965.359z"/>
						</g>
					</g>
				</g>
			</g>
		</g>
		<g>
			<g>
				<defs>
					<path id="SVGID_00000069366258915249281830000004794479074901589640_" d="M1593.323,2705.841
						c74.273-100.898,31.833-286.303-32.077-398.933c-74.618-131.498-148.555-111.022-198.628-217.806
						c-93.23-198.816,124.842-351.328,46.724-559.282c-63.86-170.001-233.833-132.584-295.986-324.064
						c-44.85-138.169,22.096-224.063-56.575-331.462c-6.725-9.181-80.675-107.157-183.52-101.57
						C769.46,778.364,696.933,886.208,668.868,962.97c-51.876,141.892,40.425,198.747,40.654,389.519
						c0.309,259.729-170.596,308.086-130.839,499.284c32.83,157.886,156.942,161.329,189.866,337.111
						c30.573,163.231-65.338,219.577-34.247,327.421C805.825,2764.403,1441.825,2911.646,1593.323,2705.841z"/>
				</defs>
				
					<linearGradient id="SVGID_00000047775361491426725790000017715656781576306832_" gradientUnits="userSpaceOnUse" x1="1389.2178" y1="1504.8101" x2="420.829" y2="2679.99">
					<stop  offset="0.0036" style="stop-color:#E38DDD"/>
					<stop  offset="1" style="stop-color:#9571F6"/>
				</linearGradient>
				
					<use xlink:href="#SVGID_00000069366258915249281830000004794479074901589640_"  style="overflow:visible;fill:url(#SVGID_00000047775361491426725790000017715656781576306832_);"/>
				<clipPath id="SVGID_00000017491076238661218280000018304589525055469698_">
					<use xlink:href="#SVGID_00000069366258915249281830000004794479074901589640_"  style="overflow:visible;"/>
				</clipPath>
				<g style="clip-path:url(#SVGID_00000017491076238661218280000018304589525055469698_);">
					<g style="opacity:0.7;">
						<path style="fill:#FFFFFF;" d="M1322.208,2811.125c-45.016-21.331-87.676-47.136-127.707-77.292
							c-82.47-62.135-167.736-126.376-197.82-232.199c-22.887-80.512-0.082-135.19,28.793-204.417
							c27.534-66.014,61.803-148.175,61.34-279.06c-0.26-74.702-0.585-167.668-55.249-260.932
							c-31.726-54.121-65.482-79.485-95.261-101.863c-31.181-23.427-58.108-43.661-69.645-89.905
							c-18.486-74.084,4.733-133.07,31.623-201.366c16.306-41.429,33.171-84.264,43.256-135.964
							c28.347-145.34-24.656-310.652-157.536-491.339c-1.131-1.539-0.801-3.705,0.74-4.838c1.542-1.136,3.704-0.798,4.843,0.738
							c134.071,182.309,187.482,349.444,158.752,496.766c-10.206,52.322-27.187,95.457-43.609,137.175
							c-26.451,67.19-49.298,125.217-31.346,197.151c10.942,43.857,35.716,62.476,67.079,86.042
							c30.303,22.767,64.651,48.579,97.076,103.894c55.612,94.877,55.94,188.882,56.207,264.417
							c0.47,132.283-34.097,215.159-61.878,281.749c-28.351,67.979-50.748,121.67-28.519,199.856
							c29.445,103.587,113.765,167.112,195.307,228.549c86.145,64.898,184.562,109.449,292.538,132.428
							c1.837,0.375,3.063,2.234,2.664,4.109c-0.398,1.869-2.236,3.065-4.108,2.667
							C1430.953,2854.977,1374.962,2836.123,1322.208,2811.125z"/>
					</g>
					<g style="opacity:0.7;">
						<path style="fill:#FFFFFF;" d="M1055.984,1804.725c-0.082-0.039-0.161-0.083-0.241-0.127c-1.663-0.953-2.24-3.069-1.286-4.728
							c207.779-362.756,132.182-594.568,131.396-596.864c-0.621-1.81,0.346-3.781,2.152-4.4c1.822-0.612,3.789,0.35,4.4,2.152
							c0.797,2.328,77.384,237.109-131.938,602.556C1059.564,1804.893,1057.601,1805.491,1055.984,1804.725z"/>
					</g>
					<g style="opacity:0.7;">
						<path style="fill:#FFFFFF;" d="M1015.752,2100.073c-202.848-96.12-297.854-238.669-342.194-346.152
							c-52.964-128.385-47.023-235.956-46.958-237.026c0.121-1.907,1.76-3.362,3.671-3.242c1.905,0.119,3.357,1.758,3.247,3.67
							c-0.067,1.059-5.884,107.297,46.57,234.256c48.375,117.086,157.566,276.297,403.657,369.91
							c1.627,0.677,2.687,2.675,2.005,4.469c-0.679,1.786-2.683,2.683-4.469,2.004
							C1058.276,2119.207,1036.451,2109.882,1015.752,2100.073z"/>
					</g>
					<g style="opacity:0.7;">
						<path style="fill:#FFFFFF;" d="M1104.067,2667.848c-0.525-0.249-0.997-0.636-1.354-1.153
							c-1.095-1.573-0.702-3.729,0.866-4.823c205.341-142.532,283.709-303.34,313.29-413.143
							c32.058-118.984,15.361-205.415,15.187-206.274c-0.377-1.874,0.837-3.702,2.714-4.077c1.865-0.378,3.704,0.842,4.076,2.711
							c0.175,0.872,17.188,88.598-15.185,209.065c-29.838,111.023-108.899,273.563-316.129,417.412
							C1106.477,2668.297,1105.154,2668.363,1104.067,2667.848z"/>
					</g>
					<g style="opacity:0.7;">
						<path style="fill:#FFFFFF;" d="M943.366,1206.211c-0.066-0.031-0.132-0.062-0.194-0.099
							c-177.268-97.871-242.195-239.954-265.45-341.918c-25.182-110.436-8.192-199.018-8.016-199.898
							c0.368-1.877,2.191-3.097,4.067-2.723c1.889,0.363,3.096,2.193,2.723,4.067c-0.171,0.869-16.888,88.239,8.045,197.295
							c22.97,100.488,87.07,240.546,261.973,337.112c1.676,0.924,2.284,3.03,1.362,4.707
							C946.987,1206.364,945.005,1206.987,943.366,1206.211z"/>
					</g>
				</g>
			</g>
		</g>
		<g>
			<g>
				<g>
					<g>
						
							<linearGradient id="SVGID_00000139284324792429280410000006841712388088843189_" gradientUnits="userSpaceOnUse" x1="1315.1674" y1="1852.5964" x2="2791.97" y2="1852.5964" gradientTransform="matrix(0.9993 0.0372 -0.0372 0.9993 -147.3405 -31.9133)">
							<stop  offset="0" style="stop-color:#444B8C"/>
							<stop  offset="0.9964" style="stop-color:#26264F"/>
						</linearGradient>
						<path style="fill:url(#SVGID_00000139284324792429280410000006841712388088843189_);" d="M2340.107,740.932l195.49,2193.635
							c2.96,33.213-20.107,62.747-51.313,65.625l-1057.678,108.938c-63.28,3.368-96.765-30.953-99.607-65.453L1139.374,766.13
							c-2.77-33.624,28.657-65.315,91.175-67.617l1047.976-15.404C2309.532,682.516,2337.219,708.532,2340.107,740.932z"/>
						
							<linearGradient id="SVGID_00000140716153025284103740000011346848035201300893_" gradientUnits="userSpaceOnUse" x1="1955.2642" y1="2206.5608" x2="2159.282" y2="1640.2366" gradientTransform="matrix(0.9993 0.0372 -0.0372 0.9993 -147.3405 -31.9133)">
							<stop  offset="0" style="stop-color:#444B8C"/>
							<stop  offset="0.9964" style="stop-color:#26264F"/>
						</linearGradient>
						<path style="fill:url(#SVGID_00000140716153025284103740000011346848035201300893_);" d="M2388.151,735.488l197.259,2206.764
							c2.987,33.415-20.201,63.128-51.585,66.025l-1097.472,101.283c-33.649,3.104-63.578-22.76-66.446-57.47L1180.615,760.794
							c-2.794-33.825,22.298-62.013,55.699-62.651l1089.89-20.821C2357.386,676.726,2385.237,702.896,2388.151,735.488z"/>
					</g>
					
						<linearGradient id="SVGID_00000063594103512509532550000004217448384272344480_" gradientUnits="userSpaceOnUse" x1="2002.5482" y1="629.2272" x2="748.8553" y2="4024.645" gradientTransform="matrix(0.9993 0.0372 -0.0372 0.9993 -147.3405 -31.9133)">
						<stop  offset="0" style="stop-color:#FFC444"/>
						<stop  offset="0.9964" style="stop-color:#F36F56"/>
					</linearGradient>
					<path style="fill:url(#SVGID_00000063594103512509532550000004217448384272344480_);" d="M1816.361,754.145
						c0.991,11.504-7.265,21.029-18.448,21.272c-11.191,0.244-21.071-8.897-22.06-20.414c-0.99-11.517,7.284-21.039,18.473-21.269
						C1805.508,733.505,1815.37,742.642,1816.361,754.145z"/>
				</g>
				<g>
					<defs>
						<path id="SVGID_00000038384457438694347320000013553740894171479220_" d="M2300.004,795.137l-1016.652,22.421
							c-26.45,0.583-45.989,22.741-43.599,49.486l191.628,2143.903c2.36,26.399,25.464,45.729,51.561,43.184l1003.348-97.858
							c24.321-2.372,42.235-24.909,40.045-50.344L2348.6,840.791C2346.383,815.036,2324.641,794.593,2300.004,795.137z"/>
					</defs>
					<clipPath id="SVGID_00000053503715633556156180000013740161622285720453_">
						<use xlink:href="#SVGID_00000038384457438694347320000013553740894171479220_"  style="overflow:visible;"/>
					</clipPath>
					<polygon style="clip-path:url(#SVGID_00000053503715633556156180000013740161622285720453_);fill:#FFFFFF;" points="
						2401.8,1458.935 1297.121,1508.87 1268.202,1185.327 2374.981,1147.32 					"/>
					<g style="clip-path:url(#SVGID_00000053503715633556156180000013740161622285720453_);">
						<polygon style="fill:#D8DEE8;" points="2531.079,2961.054 1436.495,3068.16 1282.224,1342.188 2387.982,1298.395 						"/>
						
							<linearGradient id="SVGID_00000137105959117373632640000007900490786873800082_" gradientUnits="userSpaceOnUse" x1="1336.0367" y1="254.8509" x2="2327.2661" y2="2020.5437" gradientTransform="matrix(1 0 0.0902 0.9985 -49.2091 1.1571)">
							<stop  offset="0" style="stop-color:#FFC444"/>
							<stop  offset="0.9964" style="stop-color:#F36F56"/>
						</linearGradient>
						<polygon style="fill:url(#SVGID_00000137105959117373632640000007900490786873800082_);" points="2383.698,1248.608 
							1277.603,1290.495 1231.464,774.291 2340.911,751.469 						"/>
						<g>
							<polygon style="fill:#FFFFFF;" points="2252.247,1009.803 1853.467,1021.543 1849.922,981.064 2248.797,969.873 							"/>
							<polygon style="fill:#FFFFFF;" points="2258.84,1086.117 1860.243,1098.907 1856.699,1058.447 2255.392,1046.206 							"/>
						</g>
						<g>
							<defs>
								<polygon id="SVGID_00000163056480011347911970000013948082113225960124_" points="2531.079,2961.054 1436.495,3068.16 
									1282.224,1342.188 2387.982,1298.395 								"/>
							</defs>
							<clipPath id="SVGID_00000170965647303866745830000008721857393584200321_">
								<use xlink:href="#SVGID_00000163056480011347911970000013948082113225960124_"  style="overflow:visible;"/>
							</clipPath>
							<g style="clip-path:url(#SVGID_00000170965647303866745830000008721857393584200321_);">
								<path style="fill:#FFFFFF;" d="M2595.071,3074.48c-14.952,0-29.621-7.242-38.529-20.622l-483.074-725.819l-467.433,34.107
									l-293.259,605.61c-11.13,22.977-38.776,32.583-61.758,21.46c-22.98-11.127-32.588-38.778-21.461-61.758l304.891-629.628
									c7.197-14.861,21.777-24.756,38.245-25.96l520.95-38.01c16.683-1.198,32.617,6.621,41.851,20.494l498.021,748.277
									c14.144,21.253,8.381,49.953-12.869,64.1C2612.768,3071.97,2603.872,3074.48,2595.071,3074.48z"/>
								<path style="fill:#FFFFFF;" d="M1926.624,3128.175c-23.704,0-43.885-18.125-45.999-42.185l-68.158-775.287
									l-549.833-1048.279c-11.86-22.61-3.144-50.553,19.466-62.414c22.616-11.86,50.556-3.142,62.414,19.466l554.135,1056.479
									c2.839,5.412,4.578,11.337,5.112,17.424l68.968,784.516c2.236,25.434-16.569,47.863-42.002,50.099
									C1929.352,3128.117,1927.982,3128.175,1926.624,3128.175z"/>
								<path style="fill:#FFFFFF;" d="M1894.063,2744.001c-16.741,0-30.992-12.811-32.474-29.802
									c-1.564-17.952,11.722-33.778,29.677-35.344l336.257-29.319l-117.886-1358.188c-1.559-17.958,11.733-33.775,29.688-35.334
									c17.977-1.522,33.775,11.733,35.334,29.688l120.706,1390.689c1.556,17.953-11.727,33.767-29.675,35.334l-368.758,32.152
									C1895.972,2743.959,1895.011,2744.001,1894.063,2744.001z"/>
								<path style="fill:#FFFFFF;" d="M2496.354,2393.895c-4.876,0-9.752-1.862-13.47-5.585l-615.402-616.339
									c-31.239,10.14-123.452,39.95-215.363,68.501c-66.14,20.547-119.219,36.439-157.766,47.24
									c-24.345,6.822-42,11.539-55.066,14.351c23.413,65.362,100.834,268.973,154.545,409.105
									c3.763,9.816-1.145,20.823-10.963,24.586c-9.826,3.766-20.826-1.147-24.586-10.962
									c-0.414-1.076-41.774-108.997-82.239-215.729c-23.773-62.709-42.594-112.75-55.939-148.734
									c-7.946-21.426-14.025-38.069-18.067-49.47c-7.813-22.04-12.115-34.181,2.85-42.188c4.379-2.345,9.367-2.754,13.937-1.514
									c36.069-3.646,291.785-84.036,447.971-134.994c6.825-2.223,14.309-0.425,19.373,4.645l623.653,624.601
									c7.431,7.441,7.42,19.492-0.021,26.92C2506.089,2392.038,2501.219,2393.895,2496.354,2393.895z M1428.97,1873.768
									c0.234,0.292,0.459,0.589,0.677,0.898C1429.427,1874.353,1429.199,1874.055,1428.97,1873.768z"/>
								<path style="fill:#FFFFFF;" d="M1872.679,1769.294c-9.762,0-18.072-7.465-18.943-17.374l-49.555-564.901
									c-0.919-10.471,6.828-19.708,17.302-20.627c10.479-0.884,19.708,6.828,20.627,17.302l49.555,564.901
									c0.919,10.471-6.828,19.708-17.302,20.627C1873.797,1769.27,1873.237,1769.294,1872.679,1769.294z"/>
							</g>
						</g>
					</g>
				</g>
				
					<linearGradient id="SVGID_00000165205150132859282200000008733453690889791642_" gradientUnits="userSpaceOnUse" x1="1488.9491" y1="1898.5487" x2="-55.6818" y2="4639.7261">
					<stop  offset="0" style="stop-color:#AA80F9"/>
					<stop  offset="0.9964" style="stop-color:#6165D7"/>
				</linearGradient>
				
					<circle style="fill:url(#SVGID_00000165205150132859282200000008733453690889791642_);" cx="1703.848" cy="1517.179" r="75.792"/>
			</g>
			<g style="opacity:0.48;">
				<path style="fill:#FFFFFF;" d="M2124.456,2250.39c-106.395-371.725-416.598-334.554-509.367-670.45
					c-76.192-275.87,99.489-421.297-7.077-652.258c-50.121-108.624-137.926-182.072-228.98-232.266l-142.718,2.726
					c-33.403,0.639-58.492,28.826-55.7,62.651l189.291,2291.297c2.868,34.71,32.799,60.574,66.448,57.47l899.827-83.043
					c-57.536-72.99-112.13-162.319-150.019-269.615C2105.958,2529.785,2183.29,2455.954,2124.456,2250.39z"/>
			</g>
		</g>
		<g>
			<g>
				
					<linearGradient id="SVGID_00000104680938962785876410000005845149644123274898_" gradientUnits="userSpaceOnUse" x1="1662.0299" y1="734.4844" x2="1988.4789" y2="1575.3367">
					<stop  offset="0" style="stop-color:#AA80F9"/>
					<stop  offset="0.9964" style="stop-color:#6165D7"/>
				</linearGradient>
				<path style="fill:url(#SVGID_00000104680938962785876410000005845149644123274898_);" d="M2028.004,852.17
					c0,138.517-194.055,391.28-281.875,498.577c-21.854,26.701-62.707,26.701-84.561,0
					c-87.821-107.297-281.875-360.06-281.875-498.577c0-179.026,145.13-324.156,324.156-324.156
					C1882.874,528.014,2028.004,673.144,2028.004,852.17z"/>
				
					<ellipse transform="matrix(0.7071 -0.7071 0.7071 0.7071 -103.5297 1454.3971)" style="fill:#FFFFFF;" cx="1703.848" cy="852.17" rx="180.787" ry="180.786"/>
				<g style="opacity:0.3;">
					
						<linearGradient id="SVGID_00000058576820533719299230000002180716544621583793_" gradientUnits="userSpaceOnUse" x1="1545.1401" y1="779.8647" x2="1871.5896" y2="1620.7183">
						<stop  offset="0" style="stop-color:#AA80F9"/>
						<stop  offset="0.9964" style="stop-color:#6165D7"/>
					</linearGradient>
					<path style="fill:url(#SVGID_00000058576820533719299230000002180716544621583793_);" d="M1702.416,1217.653
						c20.566-135.437,110.002-178.787,94.652-306.673c-17.704-147.486-148.292-186.767-151.443-318.031
						c-0.507-21.133,2.368-41.511,7.79-61.024c-155.072,24.226-273.723,158.374-273.723,320.244
						c0,138.517,194.055,391.28,281.875,498.577c12.863,15.716,32.307,22.171,50.587,19.385
						C1696.438,1310.811,1695.962,1260.155,1702.416,1217.653z"/>
				</g>
			</g>
		</g>
		<g>
			
				<linearGradient id="SVGID_00000106147199759767721850000005124943917858845887_" gradientUnits="userSpaceOnUse" x1="354.7848" y1="430.4734" x2="235.0204" y2="839.8501" gradientTransform="matrix(-0.3933 -0.9194 -0.9194 0.3933 2510.7478 1646.4448)">
				<stop  offset="0" style="stop-color:#FFC444"/>
				<stop  offset="0.9964" style="stop-color:#F36F56"/>
			</linearGradient>
			<path style="fill:url(#SVGID_00000106147199759767721850000005124943917858845887_);" d="M1945.441,1617.181l-30.938-14.615
				c0,0-20.071-52.562-32.766-69.149c-12.695-16.587-42.567-41.794-42.567-41.794s-8.42,13.096,0.94,22.56
				c9.359,9.465,22.951,24.458,22.75,28.542c-0.2,4.083-18.232,21.21-10.222,49.847c8.009,28.637,45.309,27.601,45.309,27.601
				l32.765,16.344L1945.441,1617.181z"/>
			
				<linearGradient id="SVGID_00000057860894482364982910000005280272078447670689_" gradientUnits="userSpaceOnUse" x1="2417.3992" y1="2755.9971" x2="2573.5767" y2="3319.5947">
				<stop  offset="0" style="stop-color:#311944"/>
				<stop  offset="1" style="stop-color:#893976"/>
			</linearGradient>
			<path style="fill:url(#SVGID_00000057860894482364982910000005280272078447670689_);" d="M2571.296,3075.49
				c0,0,7.448,30.187,7.684,41.123c0.238,10.937-120.116,26.182-121.99,18.124c-1.874-8.058,18.275-22.722,32.82-28.493
				c14.546-5.773,57.214-21.484,57.214-21.484L2571.296,3075.49z"/>
			
				<linearGradient id="SVGID_00000044897253047311733650000005463510519899765144_" gradientUnits="userSpaceOnUse" x1="2556.3977" y1="3154.4653" x2="2558.6614" y2="2964.3352">
				<stop  offset="0" style="stop-color:#FFC444"/>
				<stop  offset="0.9964" style="stop-color:#F36F56"/>
			</linearGradient>
			<path style="fill:url(#SVGID_00000044897253047311733650000005463510519899765144_);" d="M2539.531,3047.345l6.9,37.724
				c0,0,14.775,8.148,26.565,0l2.869-41.894L2539.531,3047.345z"/>
			
				<linearGradient id="SVGID_00000097486914162767244890000017929129191616288939_" gradientUnits="userSpaceOnUse" x1="2612.9302" y1="2701.8103" x2="2769.1094" y2="3265.4131">
				<stop  offset="0" style="stop-color:#311944"/>
				<stop  offset="1" style="stop-color:#893976"/>
			</linearGradient>
			<path style="fill:url(#SVGID_00000097486914162767244890000017929129191616288939_);" d="M2790.796,3107.803
				c0,0,7.449,30.186,7.686,41.123c0.237,10.937-120.118,26.182-121.991,18.124c-1.874-8.056,18.275-22.722,32.82-28.495
				c14.545-5.771,57.213-21.484,57.213-21.484L2790.796,3107.803z"/>
			
				<linearGradient id="SVGID_00000159446072392036177020000016411719603170726318_" gradientUnits="userSpaceOnUse" x1="2776.252" y1="3157.084" x2="2778.5156" y2="2966.9517">
				<stop  offset="0" style="stop-color:#FFC444"/>
				<stop  offset="0.9964" style="stop-color:#F36F56"/>
			</linearGradient>
			<path style="fill:url(#SVGID_00000159446072392036177020000016411719603170726318_);" d="M2759.031,3079.659l6.901,37.724
				c0,0,14.774,8.15,26.565,0l2.868-41.894L2759.031,3079.659z"/>
			
				<linearGradient id="SVGID_00000085942701337155021700000005601957034988872587_" gradientUnits="userSpaceOnUse" x1="2446.8025" y1="2542.9841" x2="2649.2373" y2="2542.9841">
				<stop  offset="0" style="stop-color:#444B8C"/>
				<stop  offset="0.9964" style="stop-color:#26264F"/>
			</linearGradient>
			<path style="fill:url(#SVGID_00000085942701337155021700000005601957034988872587_);" d="M2481.888,2052.692
				c-11.694,29.427-23.39,58.855-35.085,88.281c1.716,162.45,10.212,338.565,28.851,526.143
				c13.866,139.557,31.947,271.365,52.636,394.791c18.862-2.384,37.724-4.775,56.587-7.157
				c23.022-56.526,48.743-141.431,43.575-243.28c-5.39-106.238-38.651-117.736-44.746-219.382
				c-7.898-131.743,44.446-171.257,61.153-331.825c6.389-61.406,7.622-141.041-9.054-236.2
				C2584.498,2033.603,2533.194,2043.152,2481.888,2052.692z"/>
			
				<linearGradient id="SVGID_00000119801093796451303640000013375991127352067762_" gradientUnits="userSpaceOnUse" x1="2446.804" y1="2542.9841" x2="2649.2378" y2="2542.9841">
				<stop  offset="0" style="stop-color:#444B8C"/>
				<stop  offset="0.9964" style="stop-color:#26264F"/>
			</linearGradient>
			<path style="opacity:0.3;fill:url(#SVGID_00000119801093796451303640000013375991127352067762_);" d="M2635.804,2024.062
				c-27.708,5.152-55.416,10.306-83.125,15.465c-43.283,91.558-50.026,183.786-37.97,223.375
				c17.055,56.014,51.551,71.631,54.323,129.018c2.742,56.784-29.451,74.145-45.271,142.599
				c-10.949,47.395-3.677,89.583,11.319,172.023c30.204,166.061,74.731,214.017,45.268,271.617
				c-8.373,16.366-24.219,36.328-57.049,53.23c1.654,10.199,3.298,20.432,4.989,30.518c18.862-2.38,37.724-4.775,56.587-7.155
				c23.022-56.533,48.743-141.433,43.575-243.282c-5.39-106.24-38.651-117.739-44.746-219.383
				c-7.898-131.744,44.446-171.253,61.153-331.823C2651.247,2198.856,2652.48,2119.221,2635.804,2024.062z"/>
			
				<linearGradient id="SVGID_00000029013876779105331260000012965036933226075316_" gradientUnits="userSpaceOnUse" x1="2561.0918" y1="2571.9045" x2="2868.385" y2="2571.9045">
				<stop  offset="0" style="stop-color:#444B8C"/>
				<stop  offset="0.9964" style="stop-color:#26264F"/>
			</linearGradient>
			<path style="fill:url(#SVGID_00000029013876779105331260000012965036933226075316_);" d="M2561.092,2097.636
				c37.664,140.828,73.073,291.943,104.138,452.725c37.507,194.131,63.945,377.865,82.261,548.952
				c20.826-1.073,41.653-2.155,62.48-3.229c68.902-168.547,65.104-278.773,47.568-349.33
				c-6.757-27.188-23.443-80.226-32.734-160.744c-6.475-56.127-6.318-99.25-5.958-151.101
				c0.785-113.686,10.746-139.289,5.54-225.782c-4.883-81.173-7.836-122.208-32.889-144.29
				C2725.492,2006.662,2572.674,2091.091,2561.092,2097.636z"/>
			
				<linearGradient id="SVGID_00000078731166545982595730000001388978080608566179_" gradientUnits="userSpaceOnUse" x1="3736.9661" y1="1176.6017" x2="2827.0093" y2="2106.929" gradientTransform="matrix(0.9592 0.2826 -0.2826 0.9592 -381.098 -933.5842)">
				<stop  offset="0.0036" style="stop-color:#6165D7"/>
				<stop  offset="1" style="stop-color:#AA80F9"/>
			</linearGradient>
			<path style="fill:url(#SVGID_00000078731166545982595730000001388978080608566179_);" d="M1910.646,1591.166
				c-6.243,14.061-12.486,28.122-18.729,42.182c21.926,32.812,72.502,98.227,159.864,131.54
				c154.008,58.735,344.696-11.874,412.456-134.513c33.555-60.739,48.643-155.38,12.577-181.939
				c-10.011-7.374-27.023-11.757-68.615,1.34c-110.997,34.945-142.96,114.369-210.439,154.583
				C2149.194,1633.3,2064.882,1652.275,1910.646,1591.166z"/>
			
				<linearGradient id="SVGID_00000047040563667266158520000012400574462876696246_" gradientUnits="userSpaceOnUse" x1="3178.7754" y1="2608.3213" x2="2492.9419" y2="1623.7081">
				<stop  offset="0.0036" style="stop-color:#6165D7"/>
				<stop  offset="1" style="stop-color:#AA80F9"/>
			</linearGradient>
			<path style="fill:url(#SVGID_00000047040563667266158520000012400574462876696246_);" d="M2433.222,2171.231
				c-22.556-31.439-0.103-65.305,0.574-128.349c0.767-71.452-27.506-81.075-63.951-196.466
				c-24.236-76.743-47.504-150.417-33.951-239.926c6.495-42.898,17.51-115.656,73.851-154.888
				c29.075-20.245,70.863-21.803,153.252-24.083c101.885-2.825,152.825-4.239,192.254,12.652
				c5.771,2.474,125.885,55.855,141.985,157.268c16.387,103.215-95.605,126.24-99.592,265.954
				c-1.79,62.719,17.945,157.381,30.744,218.779c12.289,58.953,18.684,73.788,8.376,92.76
				c-24.844,45.73-112.56,40.291-287.991,29.423C2479.957,2200.09,2450.054,2194.693,2433.222,2171.231z"/>
			
				<linearGradient id="SVGID_00000132775023040230419810000008810756389069767581_" gradientUnits="userSpaceOnUse" x1="3178.7083" y1="2608.3677" x2="2492.8723" y2="1623.7515">
				<stop  offset="0" style="stop-color:#AA80F9"/>
				<stop  offset="0.9964" style="stop-color:#6165D7"/>
			</linearGradient>
			<path style="opacity:0.3;fill:url(#SVGID_00000132775023040230419810000008810756389069767581_);" d="M2673.151,1850.945
				c9.497,26.407,37.49,44.457,61.113,108.648c5.1,13.86,41.424,112.553,6.792,140.339c-20.006,16.046-41.175-9.623-92.802-9.06
				c-89.462,0.975-125.854,79.145-185.606,63.383c-10.367-2.74-24.285-9.225-38.967-25.518c-1.393,15.854,0.15,29.401,9.54,42.493
				c16.832,23.461,46.736,28.858,115.55,33.123c175.432,10.868,263.147,16.307,287.991-29.423
				c10.308-18.972,3.913-33.806-8.376-92.76c-12.799-61.398-32.533-156.06-30.744-218.779
				c3.987-139.714,115.98-162.739,99.592-265.954c-4.381-27.593-16.576-51.499-31.958-71.923
				C2726.442,1595.077,2643.301,1767.963,2673.151,1850.945z"/>
			
				<linearGradient id="SVGID_00000093896845949074383640000002171836480081392294_" gradientUnits="userSpaceOnUse" x1="2761.0728" y1="2062.2087" x2="2871.6985" y2="2062.2087">
				<stop  offset="0" style="stop-color:#FFC444"/>
				<stop  offset="0.9964" style="stop-color:#F36F56"/>
			</linearGradient>
			<path style="fill:url(#SVGID_00000093896845949074383640000002171836480081392294_);" d="M2870.756,2040.727l-27.239,20.631
				c-5.632-5.539-18.528-16.591-37.49-19.199c-21.363-2.932-44.931,5.617-44.955,12.362c-0.019,5.404,15.089,9.641,17.424,10.298
				c18.858,5.292,31.999-1.411,39.994,5.359c2.827,2.394,6.479,6.975,14.344,10.861c2.064,1.021,4.215,1.897,5.337,2.235
				c12.606,3.773,31.872-19.19,33.527-21.193L2870.756,2040.727z"/>
			
				<linearGradient id="SVGID_00000121971110177333324590000004630978125090428045_" gradientUnits="userSpaceOnUse" x1="3371.1094" y1="2474.3499" x2="2685.2729" y2="1489.7332">
				<stop  offset="0.0036" style="stop-color:#6165D7"/>
				<stop  offset="1" style="stop-color:#AA80F9"/>
			</linearGradient>
			<path style="fill:url(#SVGID_00000121971110177333324590000004630978125090428045_);" d="M2755.769,1670.998
				c-24.753-48.075-45.243-123.076-21.504-238.799c222.959,67.845,349.367,260.908,319.152,424.404
				c-24.907,134.781-148.841,209.39-176.552,225.217c-7.922-14.714-15.844-29.423-23.766-44.137
				c30.392-39.834,63.592-97.792,53.249-160.065C2892.011,1791.284,2805.883,1768.328,2755.769,1670.998z"/>
			
				<linearGradient id="SVGID_00000094585331749376295180000005163392977248193973_" gradientUnits="userSpaceOnUse" x1="2557.3855" y1="1464.4249" x2="2583.166" y2="1308.6224">
				<stop  offset="0" style="stop-color:#FFC444"/>
				<stop  offset="0.9964" style="stop-color:#F36F56"/>
			</linearGradient>
			<path style="fill:url(#SVGID_00000094585331749376295180000005163392977248193973_);" d="M2560.109,1324.769
				c0,0,4.736,37.672,18.742,65.045c12.657,24.74,69.731,36.356,81.496,41.161c11.767,4.806-19.389,24.106-51.759,30.002
				c-32.367,5.896-126.149,5.954-143.938-5.071c-17.79-11.023,12.582-12.521,35.188-22.938
				c22.605-10.416,32.422-57.046,26.654-77.391C2520.727,1335.231,2560.109,1324.769,2560.109,1324.769z"/>
			
				<linearGradient id="SVGID_00000107585828188889865080000010997745593400344505_" gradientUnits="userSpaceOnUse" x1="2600.8196" y1="1448.6886" x2="2518.811" y2="1240.4023">
				<stop  offset="0" style="stop-color:#444B8C"/>
				<stop  offset="0.9964" style="stop-color:#3E4177"/>
			</linearGradient>
			<path style="fill:url(#SVGID_00000107585828188889865080000010997745593400344505_);" d="M2507.401,1315.197
				c-18.264-15.279-20.783-17.032-23.089-22.635c-9.249-22.486,6.118-55.526,28.974-65.189c1.189-0.501,16.53-6.804,23.088-0.453
				c5.57,5.391-1.298,14.006,3.169,24.9c4.183,10.199,13.32,10.256,31.237,22.635c14.76,10.193,23.932,16.531,26.71,26.258
				c5.728,20.052-16.576,51.565-38.48,52.512C2551.131,1353.564,2548.673,1349.724,2507.401,1315.197z"/>
			<g>
				
					<linearGradient id="SVGID_00000116201392618695300400000010611748906173998502_" gradientUnits="userSpaceOnUse" x1="8550.8936" y1="-6608.7915" x2="8674.1895" y2="-6722" gradientTransform="matrix(0.827 0.5622 -0.5622 0.827 3357.9539 289.0357)">
					<stop  offset="0" style="stop-color:#FFC444"/>
					<stop  offset="0.9964" style="stop-color:#F36F56"/>
				</linearGradient>
				<path style="fill:url(#SVGID_00000116201392618695300400000010611748906173998502_);" d="M2557.123,1356.543
					c0,0-16.365,21.821-44.322,17.281c-25.031-4.064-23.282-60.907-6.039-71.347c5.752-3.481,16.662-4.106,25.167-0.816
					c5.025,1.944,6.564,4.258,14.835,7.275c7.628,2.781,9.923,2.127,12.092,4.343c2.715,2.769,4.292,9.072-2.231,25.113
					c5.275-4.405,11.223-5.716,15.123-3.394c0.623,0.372,2.24,1.715,3.041,3.591
					C2577.689,1345.382,2571.004,1353.054,2557.123,1356.543z"/>
			</g>
		</g>
		<g>
			<g>
				
					<linearGradient id="SVGID_00000101798412350825854920000011449673839038759077_" gradientUnits="userSpaceOnUse" x1="919.1534" y1="1590.2607" x2="565.5071" y2="2633.6665" gradientTransform="matrix(1 0.0075 0.0657 1.0026 104.1972 -16.2043)">
					<stop  offset="0" style="stop-color:#FFC444"/>
					<stop  offset="0.9964" style="stop-color:#F36F56"/>
				</linearGradient>
				<path style="fill:url(#SVGID_00000101798412350825854920000011449673839038759077_);" d="M639.406,1511.025
					c-31.715-0.239-55.836,25.504-53.738,57.497l46.621,710.889c2.098,31.993,29.519,56.576,61.11,54.913l755.625-39.78
					c28.074-1.478,49.15-26.977,47.183-56.958l-47.249-720.474L639.406,1511.025z"/>
				
					<linearGradient id="SVGID_00000012459295796241653330000007008408250981032350_" gradientUnits="userSpaceOnUse" x1="1145.1617" y1="1726.4838" x2="680.0411" y2="3098.7854" gradientTransform="matrix(1 0.0075 0.0657 1.0026 104.1972 -16.2043)">
					<stop  offset="0" style="stop-color:#FFC444"/>
					<stop  offset="0.9964" style="stop-color:#F36F56"/>
				</linearGradient>
				<polygon style="fill:url(#SVGID_00000012459295796241653330000007008408250981032350_);" points="1390.494,1747.867 
					1267.883,1515.75 1570.518,1518.026 				"/>
			</g>
			<g>
				<polygon style="opacity:0.63;fill:#FFFFFF;" points="1353.884,1974.304 736.696,1991.374 733.869,1948.281 1351.186,1933.161 
									"/>
				<polygon style="opacity:0.63;fill:#FFFFFF;" points="1358.705,2047.81 741.745,2068.365 740.036,2042.317 1357.074,2022.94 				
					"/>
				<polygon style="opacity:0.63;fill:#FFFFFF;" points="1361.413,2089.108 744.582,2111.622 742.873,2085.573 1359.782,2064.238 
									"/>
				<polygon style="opacity:0.63;fill:#FFFFFF;" points="1364.122,2130.407 747.418,2154.879 745.71,2128.83 1362.491,2105.537 				
					"/>
			</g>
			<polygon style="opacity:0.63;fill:#FFFFFF;" points="1051.946,1856.41 740.424,1862.073 725.41,1633.121 1037.274,1632.691 			
				"/>
			<g>
				<path style="fill:#FFFFFF;" d="M1090.976,1649.287c5.405-0.014,9.486-4.587,9.117-10.214
					c-0.369-5.627-5.048-10.183-10.454-10.177c-5.414,0.006-9.505,4.579-9.136,10.214
					C1080.873,1644.745,1085.562,1649.302,1090.976,1649.287z"/>
				<path style="fill:#FFFFFF;" d="M1107.926,1653.483l-0.009-0.141l-33.39,0.099l0.009,0.142c-4.838,0.72-8.308,5.814-7.899,12.051
					l2.811,42.87c0.441,6.721,5.197,12.134,10.618,12.091l-2.802-42.728l4.239,31.186l4.256,64.902
					c0.229,3.499,3.141,6.301,6.498,6.259c3.359-0.042,5.895-2.909,5.666-6.404l-3.834-58.471l2.432-0.018l3.834,58.46
					c0.229,3.495,3.135,6.293,6.488,6.251c3.348-0.042,5.878-2.906,5.649-6.397l-4.248-64.772l0.141-31.146l2.796,42.63
					c5.391-0.043,9.403-5.506,8.964-12.201l-2.801-42.707C1116.937,1659.224,1112.828,1654.172,1107.926,1653.483z"/>
			</g>
			<g>
				<path style="fill:#FFFFFF;" d="M1152.941,1649.124c5.355-0.014,9.396-4.566,9.029-10.166c-0.367-5.601-5.005-10.136-10.36-10.13
					c-5.364,0.006-9.415,4.558-9.047,10.166C1142.93,1644.603,1147.578,1649.138,1152.941,1649.124z"/>
				<path style="fill:#FFFFFF;" d="M1169.735,1653.3l-0.009-0.141l-33.079,0.097l0.009,0.141c-4.792,0.717-8.229,5.787-7.822,11.995
					l2.798,42.67c0.438,6.689,5.152,12.077,10.522,12.035l-2.789-42.528l4.209,31.04l4.237,64.599
					c0.228,3.482,3.114,6.271,6.439,6.23c3.328-0.042,5.839-2.895,5.611-6.374l-3.817-58.198l2.41-0.019l3.816,58.187
					c0.228,3.479,3.107,6.264,6.43,6.223c3.317-0.041,5.822-2.892,5.595-6.367l-4.228-64.47l0.131-31l2.782,42.431
					c5.341-0.043,9.314-5.48,8.877-12.144l-2.788-42.508C1178.664,1659.014,1174.592,1653.986,1169.735,1653.3z"/>
			</g>
			<polygon style="fill:#FFFFFF;" points="1099.505,1808.153 1107.752,1823.338 1124.082,1825.532 1113.166,1837.617 
				1117.031,1854.368 1102.032,1846.691 1088.043,1854.894 1089.713,1838.012 1077.172,1826.281 1093.256,1823.567 			"/>
			<polygon style="fill:#FFFFFF;" points="1155.352,1807.337 1163.535,1822.459 1179.728,1824.645 1168.907,1836.678 
				1172.744,1853.359 1157.869,1845.713 1144,1853.88 1145.651,1837.07 1133.213,1825.387 1149.16,1822.685 			"/>
			<polygon style="fill:#FFFFFF;" points="1210.732,1806.528 1218.85,1821.587 1234.909,1823.765 1224.182,1835.747 
				1227.991,1852.358 1213.238,1844.743 1199.487,1852.875 1201.12,1836.136 1188.783,1824.5 1204.596,1821.812 			"/>
			<polygon style="fill:#FFFFFF;" points="1265.65,1805.725 1273.704,1820.722 1289.631,1822.892 1278.995,1834.824 
				1282.777,1851.366 1268.146,1843.781 1254.511,1851.878 1256.126,1835.209 1243.888,1823.622 1259.569,1820.945 			"/>
			<polygon style="opacity:0.63;fill:#FFFFFF;" points="1320.111,1804.93 1328.103,1819.865 1343.898,1822.026 1333.354,1833.908 
				1337.109,1850.381 1322.596,1842.828 1309.077,1850.889 1310.674,1834.29 1298.535,1822.75 1314.085,1820.086 			"/>
		</g>
		<g>
			
				<linearGradient id="SVGID_00000081640051721159996490000014577323568212464045_" gradientUnits="userSpaceOnUse" x1="4487.3169" y1="3066.6379" x2="4549.0044" y2="4318.8755" gradientTransform="matrix(-1 0 0 1 6431.7759 0)">
				<stop  offset="0" style="stop-color:#311944"/>
				<stop  offset="1" style="stop-color:#893976"/>
			</linearGradient>
			<path style="fill:url(#SVGID_00000081640051721159996490000014577323568212464045_);" d="M2102.419,2557.443h-32.902v-41.528
				c0-13.368-9.996-24.752-23.252-26.478l-143.513-18.684c-7.726-1.004-15.21,1.271-21.066,6.416
				c-5.856,5.145-9.081,12.27-9.081,20.064v38.217h-32.901v-38.217c0-17.146,7.388-33.47,20.272-44.784
				c12.881-11.314,30.02-16.549,47.023-14.32l143.513,18.683c29.59,3.85,51.906,29.259,51.906,59.102V2557.443z"/>
			
				<linearGradient id="SVGID_00000099644985734216586480000007759901187564945796_" gradientUnits="userSpaceOnUse" x1="1303.7417" y1="3265.2129" x2="1430.4645" y2="3129.4387">
				<stop  offset="0" style="stop-color:#311944"/>
				<stop  offset="1" style="stop-color:#893976"/>
			</linearGradient>
			<path style="fill:url(#SVGID_00000099644985734216586480000007759901187564945796_);" d="M1565.364,2541.757l174.714-31.687
				l11.142,726.024l-155.988-54.775c-11.483-1.883-20.095-11.524-20.674-23.146l-29.456-590.882
				C1544.484,2554.899,1553.155,2543.972,1565.364,2541.757z"/>
			
				<linearGradient id="SVGID_00000100361173464806948570000014684905595766983556_" gradientUnits="userSpaceOnUse" x1="4107.1895" y1="2873.0823" x2="4691.6982" y2="2873.0823" gradientTransform="matrix(-1 0 0 1 6431.7759 0)">
				<stop  offset="0" style="stop-color:#FF9085"/>
				<stop  offset="1" style="stop-color:#FB6FBB"/>
			</linearGradient>
			<path style="fill:url(#SVGID_00000100361173464806948570000014684905595766983556_);" d="M2291.424,2557.088l-551.346-47.018
				l11.142,726.024l501.79-105.649c16.874-2.298,29.871-16.035,31.233-33.01l40.226-501.339
				C2326.064,2576.216,2311.296,2558.783,2291.424,2557.088z"/>
			
				<linearGradient id="SVGID_00000044149544820046749040000003384263057945602217_" gradientUnits="userSpaceOnUse" x1="1465.0509" y1="2602.7705" x2="1974.9059" y2="3312.3374">
				<stop  offset="0" style="stop-color:#311944"/>
				<stop  offset="1" style="stop-color:#893976"/>
			</linearGradient>
			<path style="fill:url(#SVGID_00000044149544820046749040000003384263057945602217_);" d="M1647.92,2526.784l-16.387,2.973
				c2.779,121.365,11.494,503.118,14.659,653.125c0.084,3.961,2.98,7.28,6.89,7.921l0,0c5.074,0.832,9.659-3.131,9.551-8.273
				C1659.449,3031.132,1650.658,2646.303,1647.92,2526.784z"/>
		</g>
	</g>
</g>
</svg>
